<?xml version="1.0" encoding="UTF-8" standalone="no"?><!DOCTYPE svg PUBLIC "-//W3C//DTD SVG 1.1//EN" "http://www.w3.org/Graphics/SVG/1.1/DTD/svg11.dtd"><svg width="100%" height="100%" viewBox="0 0 78513 50917" version="1.1" xmlns="http://www.w3.org/2000/svg" xmlns:xlink="http://www.w3.org/1999/xlink" xml:space="preserve" xmlns:serif="http://www.serif.com/" style="fill-rule:evenodd;clip-rule:evenodd;stroke-linecap:round;stroke-linejoin:round;stroke-miterlimit:1.5;"><g id="Clean-Architecture-Flow" serif:id="Clean Architecture Flow"><g id="Layers"><g id="Data-Layer" serif:id="Data Layer"><path d="M72307.8,49460.2l-16967.2,0l0,-36126.1l16967.2,-0l-0,36126.1Z" style="fill:#fef3f3;"/><rect x="39256.2" y="1442.96" width="16084.4" height="48017.3" style="fill:#fcfae3;"/><rect x="6204.61" y="1442.96" width="16967.2" height="48017.3" style="fill:#ebf7fd;"/><rect x="23171.8" y="1442.96" width="16084.4" height="48017.5" style="fill:#e3f2fc;"/><path d="M44908.5,15183.3l4824.93,0l0,20549.9l-4824.93,0l-0,-20549.9Z" style="fill:#fdfbec;stroke:#635128;stroke-width:4.17px;"/><path d="M35005.3,35733.2l-6452.72,0l-0,-20455.5l6452.72,-0l0,20455.5Z" style="fill:#eff8fd;stroke:#cee8f8;stroke-width:27.04px;stroke-linecap:square;"/><g><path d="M66236.7,35733.2l-4824.93,0l0,-20549.9l4824.93,0l-0,20549.9Z" style="fill:#fef7f7;stroke:#b91717;stroke-width:4.17px;"/><g id="Repository-Logic" serif:id="Repository Logic"><g transform="matrix(-2.43817e-16,1,-0.999999,-1.53361e-16,84020.4,-42760.4)"><g transform="matrix(1200,0,0,1200,72955.6,20630)"></g><text x="63390.4px" y="20630px" style="font-family:'Lato-Bold', 'Lato', sans-serif;font-weight:700;font-size:1200px;fill:#fbd2d2;">FUNCTIONALITY</text></g></g><g id="Repository-Logic1" serif:id="Repository Logic"><g transform="matrix(-1.00692e-16,-1,0.999999,-1.91148e-16,17807,77702.5)"><g transform="matrix(1200,0,0,1200,56675.6,29947.7)"></g><text x="47754.8px" y="29947.7px" style="font-family:'Lato-Bold', 'Lato', sans-serif;font-weight:700;font-size:1200px;fill:#f5e5a4;">DOMAIN L<tspan x="53667.2px " y="29947.7px ">O</tspan>GIC</text></g></g></g><rect x="55340.6" y="1455.99" width="16967.2" height="11878.1" style="fill:#e8fce3;"/><g transform="matrix(2500,0,0,2500,71165.5,4803.34)"></g><text x="56409.2px" y="4803.34px" style="font-family:'Lato-Bold', 'Lato', sans-serif;font-weight:700;font-size:2500px;fill:#c9f8be;">D<tspan x="58214.2px 59805.5px 61109.2px " y="4803.34px 4803.34px 4803.34px ">ATA</tspan> ST<tspan x="66098px " y="4803.34px ">O</tspan>RE</text><rect x="56673.9" y="6267.85" width="14382.8" height="3860.24" style="fill:#eefdea;stroke:#cef8d9;stroke-width:19.01px;stroke-linecap:square;"/><g transform="matrix(1,-1.61924e-16,2.5238e-16,0.999999,-7.27596e-12,0.00471885)"><g transform="matrix(1200,0,0,1200,69064.3,8631.77)"></g><text x="58548.7px" y="8631.77px" style="font-family:'Lato-Bold', 'Lato', sans-serif;font-weight:700;font-size:1200px;fill:#bef7c1;">D<tspan x="59415.1px 60178.9px 60804.7px " y="8631.77px 8631.77px 8631.77px ">ATA</tspan> NAMESP<tspan x="66751.3px 67572.7px " y="8631.77px 8631.77px ">AC</tspan>E</text></g><g id="Repository-Logic2" serif:id="Repository Logic"><g transform="matrix(-1.00692e-16,-1,0.999999,-1.91148e-16,3439.01,60986.5)"><g transform="matrix(1200,0,0,1200,38860.8,28773.8)"></g><text x="32212.8px" y="28773.8px" style="font-family:'Lato-Bold', 'Lato', sans-serif;font-weight:700;font-size:1200px;fill:#bee1f7;">PRESENTER</text></g></g><g transform="matrix(3.01373e-17,1,-1,4.822e-17,85933.8,-48324.9)"><g transform="matrix(5000,0,0,5000,80079.3,18804.5)"></g><text x="67129.3px" y="18804.5px" style="font-family:'Lato-Bold', 'Lato', sans-serif;font-weight:700;font-size:5000px;fill:#fce1e1;">D<tspan x="70739.3px 73921.8px 76529.3px " y="18804.5px 18804.5px 18804.5px ">ATA</tspan></text></g><g transform="matrix(3333.33,0,0,3333.33,54393.4,5104.59)"></g><text x="40203.4px" y="5104.59px" style="font-family:'Lato-Bold', 'Lato', sans-serif;font-weight:700;font-size:3333.33px;fill:#f8eec5;">DOMAIN</text><g transform="matrix(9.23273e-17,-1,1,7.42446e-17,-16609.7,39378.5)"><g transform="matrix(5000,0,0,5000,16594.4,27994.1)"></g><text x="11384.4px" y="27994.1px" style="font-family:'Lato-Bold', 'Lato', sans-serif;font-weight:700;font-size:5000px;fill:#dfeff8;">UI</text></g><g transform="matrix(9.23273e-17,-1,1,7.42446e-17,3978.38,49146.5)"><g transform="matrix(2500,0,0,2500,44912.4,22584)"></g><text x="26562.4px" y="22584px" style="font-family:'Lato-Bold', 'Lato', sans-serif;font-weight:700;font-size:2500px;fill:#d8ebf6;">PRESENT<tspan x="37159.9px 38751.2px " y="22584px 22584px ">AT</tspan>ION</text></g></g><g id="DI"><g><rect x="4748.62" y="49460.5" width="69015.2" height="1455.99" style="fill:#c8d2e6;"/><path d="M6204.61,49460.2l-1455.99,0l-0,-48010.7l1455.99,0l0,48010.7Z" style="fill:#c8d2e6;"/><path d="M73763.8,49460.2l-1455.99,0l-0,-48010.7l1455.99,0l-0,48010.7Z" style="fill:#c8d2e6;"/><g transform="matrix(1,0,0,0.935325,0,3260.94)"><text x="38259.2px" y="50420.6px" style="font-family:'Lato-Bold', 'Lato', sans-serif;font-weight:700;font-size:668.217px;fill:#fff;">DEPENDENCY INJECTION</text></g></g><g><rect x="4748.62" y="0" width="69015.2" height="1455.99" style="fill:#c8d2e6;"/><g transform="matrix(1,0,0,0.934582,0,62.813)"><text x="37481.7px" y="960.185px" style="font-family:'Lato-Bold', 'Lato', sans-serif;font-weight:700;font-size:668.75px;fill:#fff;">DEPENDENCY INJECTION</text></g></g></g></g><g><path d="M67640.2,25458.2l933.398,-0" style="fill:none;stroke:#ec3c56;stroke-width:125px;"/><path d="M66236.7,17765.9l1403.55,-0l-0,15381.5l-1403.55,-0" style="fill:none;stroke:#ec3c56;stroke-width:125px;"/></g><g id="Domain-Layer" serif:id="Domain Layer"><rect x="0.078" y="1449.58" width="4585.94" height="48016.1" style="fill:#fcfae3;"/><g transform="matrix(9.23273e-17,-1,1,7.42446e-17,-29055.2,36051.3)"><g transform="matrix(3333.33,0,0,3333.33,17688,32553.2)"></g><text x="3498.05px" y="32553.2px" style="font-family:'Lato-Bold', 'Lato', sans-serif;font-weight:700;font-size:3333.33px;fill:#f4e299;">DOMAIN</text></g></g><g id="Data-Source-Layer" serif:id="Data Source Layer"><rect x="73763.8" y="0" width="4748.62" height="50916.4" style="fill:#f27688;"/><g transform="matrix(6.13948e-17,1,-0.999999,6.10694e-17,88663.8,-62708.7)"><g transform="matrix(1250,0,0,1250,100605,12977.5)"></g><text x="75686.2px" y="12977.5px" style="font-family:'Lato-Bold', 'Lato', sans-serif;font-weight:700;font-size:1250px;fill:#fce3e7;">REMO<tspan x="79333.7px " y="12977.5px ">T</tspan>E API / SERVICES / L<tspan x="91333.8px " y="12977.5px ">O</tspan>CAL ST<tspan x="96311.9px " y="12977.5px ">O</tspan>RA<tspan x="98985.6px " y="12977.5px ">G</tspan>E</text></g></g><g id="External-Internal-User" serif:id="External/Internal User"><rect x="0" y="0" width="4748.62" height="50916.4" style="fill:#525a6c;"/><g><g transform="matrix(6.10698e-17,-1,0.999999,6.13951e-17,-24546.3,30198.7)"><g transform="matrix(1250,0,0,1250,6611.82,27372.6)"></g><text x="2826.19px" y="27372.6px" style="font-family:'Lato-Bold', 'Lato', sans-serif;font-weight:700;font-size:1250px;fill:#e8eaee;">USERS</text></g></g></g><path d="M13750.1,7533.71l7094.3,0l-0,35660.4l-7094.3,-0l0,-35660.4Z" style="fill:#f3f2fe;fill-opacity:0.5;stroke:#525a6c;stroke-width:29.55px;stroke-linecap:square;stroke-dasharray:146.16,146.16,0,0;"/><rect x="17014.2" y="10569.1" width="2616.32" height="29589.6" style="fill:#eefdfd;stroke:#a1f1f1;stroke-width:5.11px;stroke-linecap:square;"/><g transform="matrix(-1.00692e-16,-1,0.999999,-1.91148e-16,-12214.4,49726.8)"><g transform="matrix(1200,0,0,1200,29928.8,30970.6)"></g><text x="18756.2px" y="30970.6px" style="font-family:'Lato-Bold', 'Lato', sans-serif;font-weight:700;font-size:1200px;fill:#c3f4f4;">PR<tspan x="20263.4px " y="30970.6px ">O</tspan>DUCT FEA<tspan x="26868.2px " y="30970.6px ">T</tspan>URE</text></g><g transform="matrix(-1.00692e-16,-1,0.999999,-1.91148e-16,-17464.1,49802.9)"><g transform="matrix(1666.67,0,0,1666.67,32607.7,33633.5)"></g><text x="16169.4px" y="33633.5px" style="font-family:'Lato-Bold', 'Lato', sans-serif;font-weight:700;font-size:1666.67px;fill:#91a6c8;">BOUNDED CONTEXT</text></g><g><g><g transform="matrix(1666.67,0,0,1666.67,11180.2,23413.1)"></g><text x="8625.17px" y="23413.1px" style="font-family:'Lato-Regular', 'Lato', sans-serif;font-size:1666.67px;fill:#3f4e6c;">&lt;/&gt;</text><g transform="matrix(600,0,0,600,12068.1,24640.8)"></g><text x="7769.4px" y="24640.8px" style="font-family:'Lato-Bold', 'Lato', sans-serif;font-weight:700;font-size:600px;fill:#3f4e6c;">FRAMEWORKS</text></g><g><g transform="matrix(600,0,0,600,10428.4,28787.4)"></g><text x="9391.56px" y="28787.4px" style="font-family:'Lato-Bold', 'Lato', sans-serif;font-weight:700;font-size:600px;fill:#3f4e6c;">SSR</text><g><rect x="8839.05" y="27346.9" width="2176.52" height="666.557" style="fill:#3f4e6c;"/><g><circle cx="10491.9" cy="27680.2" r="74.816" style="fill:#f2fdef;"/><circle cx="10725.1" cy="27680.2" r="74.816" style="fill:#f2fdef;"/><circle cx="10258.7" cy="27680.2" r="74.816" style="fill:#f2fdef;"/><path d="M9835.98,27642.8l-0,74.816c-0,20.646 -16.762,37.408 -37.408,37.408l-758.225,0c-20.647,0 -37.409,-16.762 -37.409,-37.408l0,-74.816c0,-20.647 16.762,-37.409 37.409,-37.409l758.225,0c20.646,0 37.408,16.762 37.408,37.409Z" style="fill:#f2fdef;"/></g><rect x="8839.05" y="26560" width="2176.52" height="666.557" style="fill:#3f4e6c;"/><g><circle cx="10491.9" cy="26893.3" r="74.816" style="fill:#f2fdef;"/><circle cx="10725.1" cy="26893.3" r="74.816" style="fill:#f2fdef;"/><circle cx="10258.7" cy="26893.3" r="74.816" style="fill:#f2fdef;"/><path d="M9835.98,26855.9l-0,74.816c-0,20.647 -16.762,37.409 -37.408,37.409l-758.225,-0c-20.647,-0 -37.409,-16.762 -37.409,-37.409l0,-74.816c0,-20.646 16.762,-37.408 37.409,-37.408l758.225,-0c20.646,-0 37.408,16.762 37.408,37.408Z" style="fill:#f2fdef;"/></g><rect x="8839.05" y="25773.1" width="2176.52" height="666.557" style="fill:#3f4e6c;"/><g><circle cx="10491.9" cy="26106.4" r="74.816" style="fill:#f2fdef;"/><circle cx="10725.1" cy="26106.4" r="74.816" style="fill:#f2fdef;"/><circle cx="10258.7" cy="26106.4" r="74.816" style="fill:#f2fdef;"/><path d="M9835.98,26069l-0,74.816c-0,20.646 -16.762,37.408 -37.408,37.408l-758.225,0c-20.647,0 -37.409,-16.762 -37.409,-37.408l0,-74.816c0,-20.646 16.762,-37.409 37.409,-37.409l758.225,0c20.646,0 37.408,16.763 37.408,37.409Z" style="fill:#f2fdef;"/></g></g></g><g><circle cx="9472.32" cy="20795" r="129.045" style="fill:#3f4e6c;"/><circle cx="9927.3" cy="20795" r="129.045" style="fill:#3f4e6c;"/><circle cx="10382.3" cy="20795" r="129.045" style="fill:#3f4e6c;"/></g><g><circle cx="9472.32" cy="30121.4" r="129.045" style="fill:#3f4e6c;"/><circle cx="9927.3" cy="30121.4" r="129.045" style="fill:#3f4e6c;"/><circle cx="10382.3" cy="30121.4" r="129.045" style="fill:#3f4e6c;"/></g></g><g><circle cx="69858.8" cy="32746.3" r="129.053" style="fill:#ec3c56;"/><circle cx="70313.8" cy="32746.3" r="129.053" style="fill:#ec3c56;"/><circle cx="70768.8" cy="32746.3" r="129.053" style="fill:#ec3c56;"/></g><g><circle cx="69858.8" cy="18235.2" r="129.053" style="fill:#ec3c56;"/><circle cx="70313.8" cy="18235.2" r="129.053" style="fill:#ec3c56;"/><circle cx="70768.8" cy="18235.2" r="129.053" style="fill:#ec3c56;"/></g><g><g><rect x="69472.8" y="28757.7" width="1681.94" height="515.092" style="fill:#ec3c56;"/><rect x="69472.8" y="29365.8" width="1681.94" height="515.092" style="fill:#ec3c56;"/><rect x="69472.8" y="29973.9" width="1681.94" height="515.092" style="fill:#ec3c56;"/></g><g transform="matrix(400,0,0,400,71197.4,31027.7)"></g><text x="69386.6px" y="31027.7px" style="font-family:'Lato-Bold', 'Lato', sans-serif;font-weight:700;font-size:400px;fill:#ec3c56;">ST<tspan x="69823.6px " y="31027.7px ">O</tspan>RA<tspan x="70679.2px " y="31027.7px ">G</tspan>E</text></g><g><path d="M70429.3,24184.1l38.049,185.239c73.638,11.268 145.812,30.607 215.218,57.667l125.571,-141.397c70.268,31.949 137.273,70.635 200.075,115.514l-59.667,179.446c58.138,46.578 110.973,99.412 157.55,157.55l179.446,-59.667c44.88,62.802 83.565,129.807 115.514,200.075l-141.397,125.572c27.06,69.406 46.399,141.579 57.667,215.217l185.239,38.05c7.466,76.828 7.466,154.199 0,231.027l-185.239,38.049c-11.268,73.638 -30.607,145.812 -57.667,215.218l141.397,125.571c-31.949,70.268 -70.634,137.273 -115.514,200.075l-179.446,-59.667c-46.577,58.138 -99.412,110.973 -157.55,157.55l59.667,179.446c-62.802,44.88 -129.807,83.565 -200.075,115.514l-125.571,-141.397c-69.406,27.06 -141.58,46.399 -215.218,57.667l-38.049,185.239c-76.828,7.466 -154.199,7.466 -231.027,0l-38.05,-185.239c-73.638,-11.268 -145.811,-30.607 -215.217,-57.667l-125.572,141.397c-70.268,-31.949 -137.273,-70.634 -200.075,-115.514l59.667,-179.446c-58.138,-46.577 -110.972,-99.412 -157.55,-157.55l-179.446,59.667c-44.879,-62.802 -83.565,-129.807 -115.514,-200.075l141.397,-125.571c-27.06,-69.406 -46.399,-141.58 -57.667,-215.218l-185.239,-38.049c-7.465,-76.828 -7.465,-154.199 0,-231.027l185.239,-38.05c11.268,-73.638 30.607,-145.811 57.667,-215.217l-141.397,-125.572c31.949,-70.268 70.635,-137.273 115.514,-200.075l179.446,59.667c46.578,-58.138 99.412,-110.972 157.55,-157.55l-59.667,-179.446c62.802,-44.879 129.807,-83.565 200.075,-115.514l125.572,141.397c69.406,-27.06 141.579,-46.399 215.217,-57.667l38.05,-185.239c76.828,-7.465 154.199,-7.465 231.027,-0Zm-115.514,485.751c388.012,-0 703.028,315.016 703.028,703.028c0,388.012 -315.016,703.028 -703.028,703.028c-388.012,0 -703.028,-315.016 -703.028,-703.028c-0,-388.012 315.016,-703.028 703.028,-703.028Z" style="fill:#ec3c56;"/><g transform="matrix(400,0,0,400,70623.9,25509.2)"></g><text x="69964.3px" y="25509.2px" style="font-family:'Lato-Bold', 'Lato', sans-serif;font-weight:700;font-size:400px;fill:#ec3c56;">API</text></g><g><path d="M69876.4,20113.7c29.152,-140.237 215.146,-251.877 437.344,-251.877c222.198,0 408.192,111.64 437.345,251.877c152.037,-94.405 397.772,-96.838 567.986,2.424c170.213,99.261 209.437,267.87 102.064,388.32c203.782,-4.399 394.277,103.513 432.861,255.59c38.584,152.077 -87.315,298.761 -280.973,343.066c160.175,87.664 206.295,255.428 95.195,389.162c-111.099,133.734 -343.212,189.859 -532.539,137.286c41.62,138.709 -78.216,287.826 -287.014,340.642c-208.797,52.816 -438.516,-7.881 -534.925,-132.731c-96.409,124.85 -326.127,185.547 -534.925,132.731c-208.798,-52.816 -328.634,-201.933 -287.013,-340.642c-189.328,52.573 -421.441,-3.552 -532.54,-137.286c-111.099,-133.734 -64.98,-301.498 95.195,-389.162c-193.657,-44.305 -319.557,-190.989 -280.973,-343.066c38.585,-152.077 229.079,-259.989 432.861,-255.59c-107.373,-120.45 -68.149,-289.059 102.065,-388.32c170.213,-99.262 415.949,-96.829 567.986,-2.424Z" style="fill:#ec3c56;"/><g transform="matrix(300,0,0,300,71354.4,21051)"></g><text x="69178.5px" y="21051px" style="font-family:'Lato-Bold', 'Lato', sans-serif;font-weight:700;font-size:300px;fill:#fef3f9;">INTEGRA<tspan x="70454.1px " y="21051px ">T</tspan>IONS</text></g><path d="M55358.1,33142l6053.67,-0" style="fill:none;stroke:#ec3c56;stroke-width:125px;"/><path d="M55358.1,17757.4l6053.67,-0" style="fill:none;stroke:#ec3c56;stroke-width:125px;"/><path d="M62547.4,13334.1l-0,1849.22" style="fill:none;stroke:#ec3c56;stroke-width:125px;"/><path d="M65101,13334.1l0,1849.22" style="fill:none;stroke:#ec3c56;stroke-width:125px;"/><path d="M49733.4,33147.4l5607.19,-0" style="fill:none;stroke:#ebda3d;stroke-width:125px;"/><path d="M35005.3,17765.9l4250.9,-0" style="fill:none;stroke:#40a9eb;stroke-width:125px;"/><path d="M35005.3,33147.4l4250.9,-0" style="fill:none;stroke:#40a9eb;stroke-width:125px;"/><path d="M23171.8,17765.9l5380.79,-0" style="fill:none;stroke:#40a9eb;stroke-width:125px;"/><path d="M23209.4,33159.8l5380.79,-0" style="fill:none;stroke:#40a9eb;stroke-width:125px;"/><path d="M20883.5,39985.9l2288.31,-0" style="fill:none;stroke:#3be7ec;stroke-width:125px;"/><path d="M23171.8,33159.8l-0,6826.09" style="fill:none;stroke:#3be7ec;stroke-width:125px;"/><path d="M23171.8,10757.6l-0,7008.35" style="fill:none;stroke:#3be7ec;stroke-width:125px;"/><path d="M11801.5,25458.2l924.012,-0" style="fill:none;stroke:#7689ac;stroke-width:125px;"/><path d="M65101,10128.1l0,3205.99" style="fill:none;stroke:#61ec3e;stroke-width:125px;"/><path d="M62547.4,10128.1l-0,3205.99" style="fill:none;stroke:#61ec3e;stroke-width:125px;"/><path d="M44908.5,33147.4l-5652.28,-0" style="fill:none;stroke:#ebda3d;stroke-width:125px;"/><path d="M20898.3,10741.9l2273.46,0" style="fill:none;stroke:#3be7ec;stroke-width:125px;"/><path d="M49733.4,17765.9l5607.19,-0" style="fill:none;stroke:#ebda3d;stroke-width:125px;"/><path d="M39256.2,17765.9l5607.19,-0" style="fill:none;stroke:#ebda3d;stroke-width:125px;"/><path d="M13750.1,10741.9l-1024.63,0l0,29244l1024.63,-0" style="fill:none;stroke:#7689ac;stroke-width:125px;"/><g><circle cx="55358.1" cy="33150.5" r="360.097" style="fill:#fce3e7;"/><path d="M55358.1,32670.4c264.99,-0 480.129,215.138 480.129,480.129c-0,264.99 -215.139,480.129 -480.129,480.129c-264.991,0 -480.13,-215.139 -480.13,-480.129c0,-264.991 215.139,-480.129 480.13,-480.129Zm-0,120.032c198.743,-0 360.097,161.354 360.097,360.097c-0,198.743 -161.354,360.097 -360.097,360.097c-198.743,-0 -360.097,-161.354 -360.097,-360.097c-0,-198.743 161.354,-360.097 360.097,-360.097Z" style="fill:#ec3c56;"/><circle cx="55358.1" cy="33150.5" r="257.522" style="fill:#ec3c56;"/></g><g><circle cx="61411.7" cy="33147.4" r="360.097" style="fill:#fce3e7;"/><path d="M61411.7,32667.3c264.991,0 480.13,215.139 480.13,480.13c-0,264.99 -215.139,480.129 -480.13,480.129c-264.99,-0 -480.129,-215.139 -480.129,-480.129c0,-264.991 215.139,-480.13 480.129,-480.13Zm0,120.033c198.743,-0 360.097,161.354 360.097,360.097c0,198.743 -161.354,360.097 -360.097,360.097c-198.743,-0 -360.097,-161.354 -360.097,-360.097c0,-198.743 161.354,-360.097 360.097,-360.097Z" style="fill:#ec3c56;"/><circle cx="61411.7" cy="33147.4" r="257.522" style="fill:#ec3c56;"/></g><g><circle cx="55358.1" cy="17765.9" r="360.097" style="fill:#fce3e7;"/><path d="M55358.1,17285.8c264.99,0 480.129,215.139 480.129,480.13c-0,264.99 -215.139,480.129 -480.129,480.129c-264.991,-0 -480.13,-215.139 -480.13,-480.129c0,-264.991 215.139,-480.13 480.13,-480.13Zm-0,120.033c198.743,-0 360.097,161.354 360.097,360.097c-0,198.742 -161.354,360.097 -360.097,360.097c-198.743,-0 -360.097,-161.355 -360.097,-360.097c-0,-198.743 161.354,-360.097 360.097,-360.097Z" style="fill:#ec3c56;"/><circle cx="55358.1" cy="17765.9" r="257.522" style="fill:#ec3c56;"/></g><g><circle cx="61411.7" cy="17765.9" r="360.097" style="fill:#fce3e7;"/><path d="M61411.7,17285.8c264.991,0 480.13,215.139 480.13,480.13c-0,264.99 -215.139,480.129 -480.13,480.129c-264.99,-0 -480.129,-215.139 -480.129,-480.129c0,-264.991 215.139,-480.13 480.129,-480.13Zm0,120.033c198.743,-0 360.097,161.354 360.097,360.097c0,198.742 -161.354,360.097 -360.097,360.097c-198.743,-0 -360.097,-161.355 -360.097,-360.097c0,-198.743 161.354,-360.097 360.097,-360.097Z" style="fill:#ec3c56;"/><circle cx="61411.7" cy="17765.9" r="257.522" style="fill:#ec3c56;"/></g><g><circle cx="66236.7" cy="17765.9" r="360.097" style="fill:#fce3e7;"/><path d="M66236.7,17285.8c264.99,0 480.129,215.139 480.129,480.13c0,264.99 -215.139,480.129 -480.129,480.129c-264.991,-0 -480.13,-215.139 -480.13,-480.129c0,-264.991 215.139,-480.13 480.13,-480.13Zm-0,120.033c198.743,-0 360.097,161.354 360.097,360.097c-0,198.742 -161.354,360.097 -360.097,360.097c-198.743,-0 -360.097,-161.355 -360.097,-360.097c-0,-198.743 161.354,-360.097 360.097,-360.097Z" style="fill:#ec3c56;"/><circle cx="66236.7" cy="17765.9" r="257.522" style="fill:#ec3c56;"/></g><g><circle cx="65101" cy="15183.3" r="360.097" style="fill:#fce3e7;"/><path d="M65101,14703.2c264.991,-0 480.13,215.139 480.13,480.129c-0,264.991 -215.139,480.13 -480.13,480.13c-264.99,-0 -480.129,-215.139 -480.129,-480.13c0,-264.99 215.139,-480.129 480.129,-480.129Zm0,120.032c198.743,0 360.097,161.354 360.097,360.097c0,198.743 -161.354,360.097 -360.097,360.097c-198.743,0 -360.097,-161.354 -360.097,-360.097c0,-198.743 161.354,-360.097 360.097,-360.097Z" style="fill:#ec3c56;"/><circle cx="65101" cy="15183.3" r="257.522" style="fill:#ec3c56;"/></g><g><circle cx="65101" cy="13334.1" r="360.097" style="fill:#fce3e7;"/><path d="M65101,12853.9c264.991,0 480.13,215.139 480.13,480.13c-0,264.99 -215.139,480.129 -480.13,480.129c-264.99,-0 -480.129,-215.139 -480.129,-480.129c0,-264.991 215.139,-480.13 480.129,-480.13Zm0,120.033c198.743,-0 360.097,161.354 360.097,360.097c0,198.743 -161.354,360.097 -360.097,360.097c-198.743,-0 -360.097,-161.354 -360.097,-360.097c0,-198.743 161.354,-360.097 360.097,-360.097Z" style="fill:#ec3c56;"/><circle cx="65101" cy="13334.1" r="257.522" style="fill:#ec3c56;"/></g><g><circle cx="62547.4" cy="13334.1" r="360.097" style="fill:#fce3e7;"/><path d="M62547.4,12853.9c264.99,0 480.129,215.139 480.129,480.13c0,264.99 -215.139,480.129 -480.129,480.129c-264.991,-0 -480.129,-215.139 -480.129,-480.129c-0,-264.991 215.138,-480.13 480.129,-480.13Zm-0,120.033c198.743,-0 360.097,161.354 360.097,360.097c-0,198.743 -161.354,360.097 -360.097,360.097c-198.743,-0 -360.097,-161.354 -360.097,-360.097c-0,-198.743 161.354,-360.097 360.097,-360.097Z" style="fill:#ec3c56;"/><circle cx="62547.4" cy="13334.1" r="257.522" style="fill:#ec3c56;"/></g><g><circle cx="62547.4" cy="15183.3" r="360.097" style="fill:#fce3e7;"/><path d="M62547.4,14703.2c264.99,-0 480.129,215.139 480.129,480.129c0,264.991 -215.139,480.13 -480.129,480.13c-264.991,-0 -480.129,-215.139 -480.129,-480.13c-0,-264.99 215.138,-480.129 480.129,-480.129Zm-0,120.032c198.743,0 360.097,161.354 360.097,360.097c-0,198.743 -161.354,360.097 -360.097,360.097c-198.743,0 -360.097,-161.354 -360.097,-360.097c-0,-198.743 161.354,-360.097 360.097,-360.097Z" style="fill:#ec3c56;"/><circle cx="62547.4" cy="15183.3" r="257.522" style="fill:#ec3c56;"/></g><g><circle cx="66236.7" cy="33147.4" r="360.097" style="fill:#fce3e7;"/><path d="M66236.7,32667.3c264.99,0 480.129,215.139 480.129,480.13c0,264.99 -215.139,480.129 -480.129,480.129c-264.991,-0 -480.13,-215.139 -480.13,-480.129c0,-264.991 215.139,-480.13 480.13,-480.13Zm-0,120.033c198.743,-0 360.097,161.354 360.097,360.097c-0,198.743 -161.354,360.097 -360.097,360.097c-198.743,-0 -360.097,-161.354 -360.097,-360.097c-0,-198.743 161.354,-360.097 360.097,-360.097Z" style="fill:#ec3c56;"/><circle cx="66236.7" cy="33147.4" r="257.522" style="fill:#ec3c56;"/></g><g><circle cx="49733.4" cy="33147.4" r="360.097" style="fill:#fcfae3;"/><path d="M49733.4,32667.3c264.991,0 480.13,215.139 480.13,480.13c-0,264.99 -215.139,480.129 -480.13,480.129c-264.99,-0 -480.129,-215.139 -480.129,-480.129c-0,-264.991 215.139,-480.13 480.129,-480.13Zm0,120.033c198.743,-0 360.097,161.354 360.097,360.097c0,198.743 -161.354,360.097 -360.097,360.097c-198.743,-0 -360.097,-161.354 -360.097,-360.097c0,-198.743 161.354,-360.097 360.097,-360.097Z" style="fill:#ebda3d;"/><circle cx="49733.4" cy="33147.4" r="257.522" style="fill:#ebda3d;"/></g><g><circle cx="49733.4" cy="17765.9" r="360.097" style="fill:#fcfae3;"/><path d="M49733.4,17285.8c264.991,0 480.13,215.139 480.13,480.13c-0,264.99 -215.139,480.129 -480.13,480.129c-264.99,-0 -480.129,-215.139 -480.129,-480.129c-0,-264.991 215.139,-480.13 480.129,-480.13Zm0,120.033c198.743,-0 360.097,161.354 360.097,360.097c0,198.742 -161.354,360.097 -360.097,360.097c-198.743,-0 -360.097,-161.355 -360.097,-360.097c0,-198.743 161.354,-360.097 360.097,-360.097Z" style="fill:#ebda3d;"/><circle cx="49733.4" cy="17765.9" r="257.522" style="fill:#ebda3d;"/></g><g><circle cx="44908.5" cy="17765.9" r="360.097" style="fill:#fcfae3;"/><path d="M44908.5,17285.8c264.99,0 480.129,215.139 480.129,480.13c0,264.99 -215.139,480.129 -480.129,480.129c-264.991,-0 -480.13,-215.139 -480.13,-480.129c0,-264.991 215.139,-480.13 480.13,-480.13Zm-0,120.033c198.743,-0 360.097,161.354 360.097,360.097c-0,198.742 -161.354,360.097 -360.097,360.097c-198.743,-0 -360.097,-161.355 -360.097,-360.097c-0,-198.743 161.354,-360.097 360.097,-360.097Z" style="fill:#ebda3d;"/><circle cx="44908.5" cy="17765.9" r="257.522" style="fill:#ebda3d;"/></g><g><circle cx="44908.5" cy="33147.4" r="360.097" style="fill:#fcfae3;"/><path d="M44908.5,32667.3c264.99,0 480.129,215.139 480.129,480.13c0,264.99 -215.139,480.129 -480.129,480.129c-264.991,-0 -480.13,-215.139 -480.13,-480.129c0,-264.991 215.139,-480.13 480.13,-480.13Zm-0,120.033c198.743,-0 360.097,161.354 360.097,360.097c-0,198.743 -161.354,360.097 -360.097,360.097c-198.743,-0 -360.097,-161.354 -360.097,-360.097c-0,-198.743 161.354,-360.097 360.097,-360.097Z" style="fill:#ebda3d;"/><circle cx="44908.5" cy="33147.4" r="257.522" style="fill:#ebda3d;"/></g><g><circle cx="65101" cy="10128.1" r="360.097" style="fill:#e8fce3;"/><path d="M65101,10608.2c-264.99,-0 -480.129,-215.139 -480.129,-480.13c0,-264.99 215.139,-480.129 480.129,-480.129c264.991,0 480.13,215.139 480.13,480.129c-0,264.991 -215.139,480.13 -480.13,480.13Zm0,-120.033c-198.743,0 -360.097,-161.354 -360.097,-360.097c0,-198.742 161.354,-360.096 360.097,-360.096c198.743,-0 360.097,161.354 360.097,360.096c0,198.743 -161.354,360.097 -360.097,360.097Z" style="fill:#61ec3e;"/><circle cx="65101" cy="10128.1" r="257.522" style="fill:#61ec3e;"/></g><g><circle cx="62547.4" cy="10128.1" r="360.097" style="fill:#e8fce3;"/><path d="M62547.4,10608.2c-264.991,-0 -480.129,-215.139 -480.129,-480.13c-0,-264.99 215.138,-480.129 480.129,-480.129c264.99,0 480.129,215.139 480.129,480.129c0,264.991 -215.139,480.13 -480.129,480.13Zm-0,-120.033c-198.743,0 -360.097,-161.354 -360.097,-360.097c-0,-198.742 161.354,-360.096 360.097,-360.096c198.743,-0 360.097,161.354 360.097,360.096c-0,198.743 -161.354,360.097 -360.097,360.097Z" style="fill:#61ec3e;"/><circle cx="62547.4" cy="10128.1" r="257.522" style="fill:#61ec3e;"/></g><g><circle cx="20898.3" cy="10741.9" r="360.097" style="fill:#e3fbfc;"/><path d="M20898.3,10261.7c264.991,-0 480.129,215.139 480.129,480.129c0,264.991 -215.138,480.13 -480.129,480.13c-264.99,-0 -480.129,-215.139 -480.129,-480.13c-0,-264.99 215.139,-480.129 480.129,-480.129Zm0,120.032c198.743,0 360.097,161.354 360.097,360.097c0,198.743 -161.354,360.097 -360.097,360.097c-198.743,0 -360.097,-161.354 -360.097,-360.097c0,-198.743 161.354,-360.097 360.097,-360.097Z" style="fill:#3be7ec;"/><circle cx="20898.3" cy="10741.9" r="257.522" style="fill:#3be7ec;"/></g><g><circle cx="20883.5" cy="39985.9" r="360.097" style="fill:#e3fbfc;"/><path d="M20883.5,39505.8c264.991,0 480.13,215.139 480.13,480.13c-0,264.99 -215.139,480.129 -480.13,480.129c-264.99,0 -480.129,-215.139 -480.129,-480.129c0,-264.991 215.139,-480.13 480.129,-480.13Zm0,120.033c198.743,-0 360.097,161.354 360.097,360.097c0,198.743 -161.354,360.097 -360.097,360.097c-198.743,-0 -360.097,-161.354 -360.097,-360.097c0,-198.743 161.354,-360.097 360.097,-360.097Z" style="fill:#3be7ec;"/><circle cx="20883.5" cy="39985.9" r="257.522" style="fill:#3be7ec;"/></g><g><circle cx="23164.1" cy="17765.9" r="360.097" style="fill:#e3fbfc;"/><path d="M23164.1,17285.8c264.99,0 480.129,215.139 480.129,480.13c0,264.99 -215.139,480.129 -480.129,480.129c-264.991,-0 -480.129,-215.139 -480.129,-480.129c-0,-264.991 215.138,-480.13 480.129,-480.13Zm-0,120.033c198.743,-0 360.097,161.354 360.097,360.097c-0,198.742 -161.354,360.097 -360.097,360.097c-198.743,-0 -360.097,-161.355 -360.097,-360.097c-0,-198.743 161.354,-360.097 360.097,-360.097Z" style="fill:#3be7ec;"/><circle cx="23164.1" cy="17765.9" r="257.522" style="fill:#3be7ec;"/></g><g><circle cx="23171.8" cy="33159.8" r="360.097" style="fill:#e3fbfc;"/><path d="M23171.8,32679.7c264.99,0 480.129,215.139 480.129,480.13c0,264.99 -215.139,480.129 -480.129,480.129c-264.991,-0 -480.13,-215.139 -480.13,-480.129c0,-264.991 215.139,-480.13 480.13,-480.13Zm-0,120.033c198.743,-0 360.097,161.354 360.097,360.097c-0,198.743 -161.354,360.097 -360.097,360.097c-198.743,-0 -360.097,-161.354 -360.097,-360.097c-0,-198.743 161.354,-360.097 360.097,-360.097Z" style="fill:#3be7ec;"/><circle cx="23171.8" cy="33159.8" r="257.522" style="fill:#3be7ec;"/></g><g><circle cx="39256.2" cy="17765.9" r="360.097" style="fill:#e3f2fc;"/><path d="M39256.2,17285.8c264.991,0 480.129,215.139 480.129,480.13c0,264.99 -215.138,480.129 -480.129,480.129c-264.991,-0 -480.129,-215.139 -480.129,-480.129c-0,-264.991 215.138,-480.13 480.129,-480.13Zm0,120.033c198.743,-0 360.097,161.354 360.097,360.097c0,198.742 -161.354,360.097 -360.097,360.097c-198.743,-0 -360.097,-161.355 -360.097,-360.097c0,-198.743 161.354,-360.097 360.097,-360.097Z" style="fill:#40a9eb;"/><circle cx="39256.2" cy="17765.9" r="257.522" style="fill:#40a9eb;"/></g><g><circle cx="35005.3" cy="17765.9" r="360.097" style="fill:#e3f2fc;"/><path d="M35005.3,17285.8c264.991,0 480.129,215.139 480.129,480.13c0,264.99 -215.138,480.129 -480.129,480.129c-264.991,-0 -480.129,-215.139 -480.129,-480.129c-0,-264.991 215.138,-480.13 480.129,-480.13Zm0,120.033c198.743,-0 360.097,161.354 360.097,360.097c0,198.742 -161.354,360.097 -360.097,360.097c-198.743,-0 -360.097,-161.355 -360.097,-360.097c0,-198.743 161.354,-360.097 360.097,-360.097Z" style="fill:#40a9eb;"/><circle cx="35005.3" cy="17765.9" r="257.522" style="fill:#40a9eb;"/></g><g><circle cx="35005.3" cy="33147.4" r="360.097" style="fill:#e3f2fc;"/><path d="M35005.3,32667.3c264.991,0 480.129,215.139 480.129,480.13c0,264.99 -215.138,480.129 -480.129,480.129c-264.991,-0 -480.129,-215.139 -480.129,-480.129c-0,-264.991 215.138,-480.13 480.129,-480.13Zm0,120.033c198.743,-0 360.097,161.354 360.097,360.097c0,198.743 -161.354,360.097 -360.097,360.097c-198.743,-0 -360.097,-161.354 -360.097,-360.097c0,-198.743 161.354,-360.097 360.097,-360.097Z" style="fill:#40a9eb;"/><circle cx="35005.3" cy="33147.4" r="257.522" style="fill:#40a9eb;"/></g><g><circle cx="39256.2" cy="33147.4" r="360.097" style="fill:#e3f2fc;"/><path d="M39256.2,32667.3c264.991,0 480.129,215.139 480.129,480.13c0,264.99 -215.138,480.129 -480.129,480.129c-264.991,-0 -480.129,-215.139 -480.129,-480.129c-0,-264.991 215.138,-480.13 480.129,-480.13Zm0,120.033c198.743,-0 360.097,161.354 360.097,360.097c0,198.743 -161.354,360.097 -360.097,360.097c-198.743,-0 -360.097,-161.354 -360.097,-360.097c0,-198.743 161.354,-360.097 360.097,-360.097Z" style="fill:#40a9eb;"/><circle cx="39256.2" cy="33147.4" r="257.522" style="fill:#40a9eb;"/></g><g><circle cx="28590.2" cy="33147.4" r="360.097" style="fill:#e3f2fc;"/><path d="M28590.2,32667.3c264.991,0 480.129,215.139 480.129,480.13c0,264.99 -215.138,480.129 -480.129,480.129c-264.99,-0 -480.129,-215.139 -480.129,-480.129c-0,-264.991 215.139,-480.13 480.129,-480.13Zm0,120.033c198.743,-0 360.097,161.354 360.097,360.097c0,198.743 -161.354,360.097 -360.097,360.097c-198.743,-0 -360.097,-161.354 -360.097,-360.097c0,-198.743 161.354,-360.097 360.097,-360.097Z" style="fill:#40a9eb;"/><circle cx="28590.2" cy="33147.4" r="257.522" style="fill:#40a9eb;"/></g><g><circle cx="28552.6" cy="17765.9" r="360.097" style="fill:#e3f2fc;"/><path d="M28552.6,17285.8c264.99,0 480.129,215.139 480.129,480.13c0,264.99 -215.139,480.129 -480.129,480.129c-264.991,-0 -480.129,-215.139 -480.129,-480.129c-0,-264.991 215.138,-480.13 480.129,-480.13Zm-0,120.033c198.743,-0 360.097,161.354 360.097,360.097c-0,198.742 -161.354,360.097 -360.097,360.097c-198.743,-0 -360.097,-161.355 -360.097,-360.097c-0,-198.743 161.354,-360.097 360.097,-360.097Z" style="fill:#40a9eb;"/><circle cx="28552.6" cy="17765.9" r="257.522" style="fill:#40a9eb;"/></g><g><circle cx="13750.1" cy="39985.9" r="360.097" style="fill:#f1f7f0;"/><path d="M13750.1,39505.8c264.991,0 480.13,215.139 480.13,480.13c-0,264.99 -215.139,480.129 -480.13,480.129c-264.99,0 -480.129,-215.139 -480.129,-480.129c0,-264.991 215.139,-480.13 480.129,-480.13Zm0,120.033c198.743,-0 360.097,161.354 360.097,360.097c0,198.743 -161.354,360.097 -360.097,360.097c-198.742,-0 -360.097,-161.354 -360.097,-360.097c0,-198.743 161.355,-360.097 360.097,-360.097Z" style="fill:#7689ac;"/><circle cx="13750.1" cy="39985.9" r="257.522" style="fill:#7689ac;"/></g><g><circle cx="13750.1" cy="10741.9" r="360.097" style="fill:#f1f7f0;"/><path d="M13750.1,10261.7c264.991,-0 480.13,215.139 480.13,480.129c-0,264.991 -215.139,480.13 -480.13,480.13c-264.99,-0 -480.129,-215.139 -480.129,-480.13c0,-264.99 215.139,-480.129 480.129,-480.129Zm0,120.032c198.743,0 360.097,161.354 360.097,360.097c0,198.743 -161.354,360.097 -360.097,360.097c-198.742,0 -360.097,-161.354 -360.097,-360.097c0,-198.743 161.355,-360.097 360.097,-360.097Z" style="fill:#7689ac;"/><circle cx="13750.1" cy="10741.9" r="257.522" style="fill:#7689ac;"/></g><path d="M51890,17041.2l-0,-154.537l1132.08,0l0,-143.498l370.092,220.767l-370.092,220.767l0,-143.499l-1132.08,0Z" style="fill:#72f1d0;"/><path d="M23895.5,13396.1l154.537,0l0,1132.08l143.499,-0l-220.767,370.092l-220.767,-370.092l143.498,-0l0,-1132.08Z" style="fill:#72f1d0;"/><path d="M12009.6,18686.3l-154.537,-0l-0,-1132.08l-143.499,0l220.767,-370.092l220.767,370.092l-143.498,0l-0,1132.08Z" style="fill:#72f1d0;"/><path d="M12009.6,33077.5l-154.537,-0l-0,-1132.08l-143.499,-0l220.767,-370.092l220.767,370.092l-143.498,-0l-0,1132.08Z" style="fill:#72f1d0;"/><path d="M36435,17041.2l0,-154.537l1132.08,0l-0,-143.498l370.092,220.767l-370.092,220.767l-0,-143.499l-1132.08,0Z" style="fill:#72f1d0;"/><path d="M24907.6,17041.2l0,-154.537l1132.08,0l0,-143.498l370.092,220.767l-370.092,220.767l0,-143.499l-1132.08,0Z" style="fill:#72f1d0;"/><path d="M41308.7,17041.2l-0,-154.537l1132.08,0l0,-143.498l370.093,220.767l-370.093,220.767l0,-143.499l-1132.08,0Z" style="fill:#72f1d0;"/><path d="M57633.8,17041.2l-0,-154.537l1132.08,0l0,-143.498l370.093,220.767l-370.093,220.767l0,-143.499l-1132.08,0Z" style="fill:#72f1d0;"/><path d="M61304.6,14085.2l-154.537,0l0,-1132.08l-143.498,0l220.767,-370.092l220.767,370.092l-143.499,0l0,1132.08Z" style="fill:#72f1d0;"/><path d="M66250,12583l154.537,0l0,1132.08l143.499,-0l-220.767,370.092l-220.767,-370.092l143.498,-0l0,-1132.08Z" style="fill:#72f1d0;"/><path d="M59136,33867.1l-0,154.537l-1132.08,-0l-0,143.498l-370.092,-220.767l370.092,-220.767l-0,143.499l1132.08,-0Z" style="fill:#72f1d0;"/><path d="M53392.2,33873.3l0,154.537l-1132.08,-0l-0,143.498l-370.092,-220.767l370.092,-220.767l-0,143.499l1132.08,-0Z" style="fill:#72f1d0;"/><path d="M42833.4,33873.3l0,154.537l-1132.08,-0l-0,143.498l-370.093,-220.767l370.093,-220.767l-0,143.499l1132.08,-0Z" style="fill:#72f1d0;"/><path d="M37879.6,33873.3l-0,154.537l-1132.08,-0l0,143.498l-370.092,-220.767l370.092,-220.767l0,143.499l1132.08,-0Z" style="fill:#72f1d0;"/><path d="M26409.8,33873.3l0,154.537l-1132.08,-0l-0,143.498l-370.093,-220.767l370.093,-220.767l-0,143.499l1132.08,-0Z" style="fill:#72f1d0;"/><path d="M23895.5,35893.8l154.537,-0l0,1132.08l143.499,0l-220.767,370.093l-220.767,-370.093l143.498,0l0,-1132.08Z" style="fill:#72f1d0;"/><path d="M68245,20818.7l154.537,-0l0,1132.08l143.499,-0l-220.767,370.092l-220.767,-370.092l143.498,-0l0,-1132.08Z" style="fill:#72f1d0;"/><path d="M68245,28378.7l154.537,-0l0,1132.08l143.499,-0l-220.767,370.092l-220.767,-370.092l143.498,-0l0,-1132.08Z" style="fill:#72f1d0;"/><g transform="matrix(416.667,0,0,416.667,25137.8,9738.27)"></g><text x="21200.7px" y="9738.27px" style="font-family:'Lato-Bold', 'Lato', sans-serif;font-weight:700;font-size:416.667px;fill:#3be7ec;">UI ASKS PRESENTER</text><g transform="matrix(3.125,0,0,3.125,-30607.2,-9183.56)"><text x="16584.4px" y="12843.4px" style="font-family:'Lato-Bold', 'Lato', sans-serif;font-weight:700;font-size:133.333px;fill:#40a9eb;">PRESENTER RETURNS</text><text x="16777.1px" y="13008.8px" style="font-family:'Lato-Bold', 'Lato', sans-serif;font-weight:700;font-size:133.333px;fill:#40a9eb;">PRESENT<tspan x="17342.3px 17427.2px " y="13008.8px 13008.8px ">AT</tspan>ION</text><g transform="matrix(133.333,0,0,133.333,17504.2,13174.1)"></g><text x="17028.7px" y="13174.1px" style="font-family:'Lato-Bold', 'Lato', sans-serif;font-weight:700;font-size:133.333px;fill:#40a9eb;">MODEL</text></g><g transform="matrix(3.125,0,0,3.125,-14701.5,-24035.1)"><text x="16718.9px" y="12843.4px" style="font-family:'Lato-Bold', 'Lato', sans-serif;font-weight:700;font-size:133.333px;fill:#40a9eb;">PRESENTER ASKS</text><g transform="matrix(133.333,0,0,133.333,17550.3,13008.8)"></g><text x="16982.7px" y="13008.8px" style="font-family:'Lato-Bold', 'Lato', sans-serif;font-weight:700;font-size:133.333px;fill:#40a9eb;">DOMAIN</text></g><g transform="matrix(3.125,0,0,3.125,-14701.5,-8934.42)"><text x="16669.9px" y="12843.4px" style="font-family:'Lato-Bold', 'Lato', sans-serif;font-weight:700;font-size:133.333px;fill:#ebda3d;">DOMAIN RETURNS</text><g transform="matrix(133.333,0,0,133.333,17800.9,13008.8)"></g><text x="16732px" y="13008.8px" style="font-family:'Lato-Bold', 'Lato', sans-serif;font-weight:700;font-size:133.333px;fill:#ebda3d;">DOMAIN MODEL</text></g><g transform="matrix(3.125,0,0,3.125,1382.95,-24670.1)"><text x="16618.9px" y="12843.4px" style="font-family:'Lato-Bold', 'Lato', sans-serif;font-weight:700;font-size:133.333px;fill:#ebda3d;">DOMAIN ASKS D<tspan x="17665px 17749.9px 17819.4px " y="12843.4px 12843.4px 12843.4px ">ATA</tspan></text><text x="16901px" y="13008.8px" style="font-family:'Lato-Bold', 'Lato', sans-serif;font-weight:700;font-size:133.333px;fill:#ebda3d;">( THR<tspan x="17231px " y="13008.8px ">O</tspan>UGH</text><g transform="matrix(133.333,0,0,133.333,17710.5,13174.1)"></g><text x="16822.4px" y="13174.1px" style="font-family:'Lato-Bold', 'Lato', sans-serif;font-weight:700;font-size:133.333px;fill:#ebda3d;">REPOSIT<tspan x="17363.6px " y="13174.1px ">O</tspan>RY )</text></g><g transform="matrix(1.91351e-16,-3.125,3.125,1.91351e-16,19853,67291.7)"><text x="16677px" y="12843.4px" style="font-family:'Lato-Bold', 'Lato', sans-serif;font-weight:700;font-size:133.333px;fill:#ec3c56;">REPOSIT<tspan x="17218.2px " y="12843.4px ">O</tspan>RY ASKS</text><g transform="matrix(133.333,0,0,133.333,17660,13008.8)"></g><text x="16873px" y="13008.8px" style="font-family:'Lato-Bold', 'Lato', sans-serif;font-weight:700;font-size:133.333px;fill:#ec3c56;">D<tspan x="16969.2px 17054.1px 17123.6px " y="13008.8px 13008.8px 13008.8px ">ATA</tspan> ST<tspan x="17389.7px " y="13008.8px ">O</tspan>RE</text></g><g transform="matrix(1.91351e-16,3.125,-3.125,1.91351e-16,107727,-40816.3)"><text x="16621.9px" y="12843.4px" style="font-family:'Lato-Bold', 'Lato', sans-serif;font-weight:700;font-size:133.333px;fill:#61ec3e;">D<tspan x="16718.2px 16803px 16872.6px " y="12843.4px 12843.4px 12843.4px ">ATA</tspan> ST<tspan x="17138.6px " y="12843.4px ">O</tspan>RE RETURNS</text><g transform="matrix(133.333,0,0,133.333,17721.6,13008.8)"></g><text x="16934.6px" y="13008.8px" style="font-family:'Lato-Bold', 'Lato', sans-serif;font-weight:700;font-size:133.333px;fill:#61ec3e;">ST<tspan x="17080.3px " y="13008.8px ">O</tspan>RE D<tspan x="17472.6px 17557.4px 17627px " y="13008.8px 13008.8px 13008.8px ">ATA</tspan></text></g><g transform="matrix(3.125,0,0,3.125,1382.95,-8896.04)"><text x="16781.1px" y="12843.4px" style="font-family:'Lato-Bold', 'Lato', sans-serif;font-weight:700;font-size:133.333px;fill:#ec3c56;">D<tspan x="16877.3px 16962.2px 17031.7px " y="12843.4px 12843.4px 12843.4px ">ATA</tspan> RETURNS</text><text x="16689.1px" y="13008.8px" style="font-family:'Lato-Bold', 'Lato', sans-serif;font-weight:700;font-size:133.333px;fill:#ec3c56;">MAPPED DOMAIN</text><g transform="matrix(133.333,0,0,133.333,17504.2,13174.1)"></g><text x="17028.7px" y="13174.1px" style="font-family:'Lato-Bold', 'Lato', sans-serif;font-weight:700;font-size:133.333px;fill:#ec3c56;">MODEL</text></g><g transform="matrix(1.91351e-16,3.125,-3.125,1.91351e-16,107181,-32421.3)"><text x="16677px" y="12843.4px" style="font-family:'Lato-Bold', 'Lato', sans-serif;font-weight:700;font-size:133.333px;fill:#ec3c56;">REPOSIT<tspan x="17218.2px " y="12843.4px ">O</tspan>RY ASKS</text><g transform="matrix(133.333,0,0,133.333,17714.5,13008.8)"></g><text x="16818.4px" y="13008.8px" style="font-family:'Lato-Bold', 'Lato', sans-serif;font-weight:700;font-size:133.333px;fill:#ec3c56;">D<tspan x="16914.7px 16999.5px 17069.1px " y="13008.8px 13008.8px 13008.8px ">ATA</tspan> SOUR<tspan x="17548.8px " y="13008.8px ">C</tspan>E</text></g><g transform="matrix(1.91351e-16,3.125,-3.125,1.91351e-16,107181,-25031.6)"><text x="16883.6px" y="12843.4px" style="font-family:'Lato-Bold', 'Lato', sans-serif;font-weight:700;font-size:133.333px;fill:#ec3c56;">D<tspan x="16979.9px 17064.7px 17134.3px " y="12843.4px 12843.4px 12843.4px ">ATA</tspan> SOUR<tspan x="17614px " y="12843.4px ">C</tspan>E</text><g transform="matrix(133.333,0,0,133.333,18067.7,13008.8)"></g><text x="16595.6px" y="13008.8px" style="font-family:'Lato-Bold', 'Lato', sans-serif;font-weight:700;font-size:133.333px;fill:#ec3c56;">RETURNS D<tspan x="17317.4px 17402.2px 17471.8px " y="13008.8px 13008.8px 13008.8px ">ATA</tspan> MODEL</text></g><g><rect x="51422.1" y="18744.1" width="7837.12" height="2993.5" style="fill:#fbe3e0;"/><g transform="matrix(3.125,0,0,3.125,77.8789,-20540.6)"><g transform="matrix(106.667,0,0,106.667,18252.4,12823.6)"></g><g transform="matrix(106.667,0,0,106.667,18288.6,12823.6)"></g><text x="16578.5px" y="12823.6px" style="font-family:'Lato-Bold', 'Lato', sans-serif;font-weight:700;font-size:106.667px;fill:#ec3c56;">Ev<tspan x="16694.7px " y="12823.6px ">e</tspan>ry Repository has injected speciﬁc data</text><text x="16578.5px" y="12951.6px" style="font-family:'Lato-Bold', 'Lato', sans-serif;font-weight:700;font-size:106.667px;fill:#ec3c56;">source client. In repository y<tspan x="17920.6px " y="12951.6px ">o</tspan>u ask data</text><g transform="matrix(106.667,0,0,106.667,17474.4,13079.6)"></g><g transform="matrix(106.667,0,0,106.667,17510.6,13079.6)"></g><g transform="matrix(106.667,0,0,106.667,18168.7,13079.6)"></g><g transform="matrix(106.667,0,0,106.667,18204.8,13079.6)"></g><text x="16578.5px" y="13079.6px" style="font-family:'Lato-Bold', 'Lato', sans-serif;font-weight:700;font-size:106.667px;fill:#ec3c56;">source with a speciﬁc pa<tspan x="17724.2px " y="13079.6px ">y</tspan>load. Deﬁne separ<tspan x="18632.8px " y="13079.6px ">a</tspan>te</text><text x="16578.5px" y="13207.6px" style="font-family:'Lato-Bold', 'Lato', sans-serif;font-weight:700;font-size:106.667px;fill:#ec3c56;">repository for separ<tspan x="17522.6px " y="13207.6px ">a</tspan>te data source. Use Unit</text><g transform="matrix(106.667,0,0,106.667,18453.8,13335.6)"></g><text x="16578.5px" y="13335.6px" style="font-family:'Lato-Bold', 'Lato', sans-serif;font-weight:700;font-size:106.667px;fill:#ec3c56;">Of W<tspan x="16831.2px " y="13335.6px ">o</tspan>rk pattern in case of dependency<tspan x="18429.8px " y="13335.6px ">.</tspan></text></g></g><g><rect x="50756.4" y="27291.2" width="7837.12" height="2993.5" style="fill:#fbe3e0;"/><g transform="matrix(3.125,0,0,3.125,-587.758,-11993.5)"><g transform="matrix(106.667,0,0,106.667,18127.7,12823.6)"></g><g transform="matrix(106.667,0,0,106.667,18163.8,12823.6)"></g><text x="16578.5px" y="12823.6px" style="font-family:'Lato-Bold', 'Lato', sans-serif;font-weight:700;font-size:106.667px;fill:#ec3c56;">Data source is represented b<tspan x="17932.3px " y="12823.6px ">y</tspan> deﬁnition of it&apos;s</text><text x="16578.5px" y="12951.6px" style="font-family:'Lato-Bold', 'Lato', sans-serif;font-weight:700;font-size:106.667px;fill:#ec3c56;">client. Ev<tspan x="17007px " y="12951.6px ">e</tspan>ry data source should ha<tspan x="18212.7px 18267.9px " y="12951.6px 12951.6px ">ve</tspan> it&apos;s own</text><text x="16578.5px" y="13079.6px" style="font-family:'Lato-Bold', 'Lato', sans-serif;font-weight:700;font-size:106.667px;fill:#ec3c56;">client implementation which is injected then</text><g transform="matrix(106.667,0,0,106.667,17948.9,13207.6)"></g><g transform="matrix(106.667,0,0,106.667,17985,13207.6)"></g><text x="16578.5px" y="13207.6px" style="font-family:'Lato-Bold', 'Lato', sans-serif;font-weight:700;font-size:106.667px;fill:#ec3c56;">to repository<tspan x="17193.3px " y="13207.6px ">.</tspan> Data source deﬁne it&apos;s own data</text><g transform="matrix(106.667,0,0,106.667,18204.1,13335.6)"></g><text x="16578.5px" y="13335.6px" style="font-family:'Lato-Bold', 'Lato', sans-serif;font-weight:700;font-size:106.667px;fill:#ec3c56;">models tr<tspan x="17026.2px " y="13335.6px ">a</tspan>nslated later to domain.</text></g></g><g><rect x="62708.6" y="36861.7" width="7837.12" height="2993.5" style="fill:#fbe3e0;"/><g transform="matrix(3.125,0,0,3.125,11364.4,-2422.91)"><text x="16578.5px" y="12823.6px" style="font-family:'Lato-Bold', 'Lato', sans-serif;font-weight:700;font-size:106.667px;fill:#ec3c56;">Data source client returns data in it&apos;s own</text><g transform="matrix(106.667,0,0,106.667,16822.3,12951.6)"></g><g transform="matrix(106.667,0,0,106.667,16858.4,12951.6)"></g><text x="16578.5px" y="12951.6px" style="font-family:'Lato-Bold', 'Lato', sans-serif;font-weight:700;font-size:106.667px;fill:#ec3c56;">speciﬁc format ( Data Model ). As repository</text><text x="16578.5px" y="13079.6px" style="font-family:'Lato-Bold', 'Lato', sans-serif;font-weight:700;font-size:106.667px;fill:#ec3c56;">has an access to domain structures, it should</text><text x="16578.5px" y="13207.6px" style="font-family:'Lato-Bold', 'Lato', sans-serif;font-weight:700;font-size:106.667px;fill:#ec3c56;">map Data Models to Domain models in a scope</text><g transform="matrix(106.667,0,0,106.667,18059.6,13335.6)"></g><text x="16578.5px" y="13335.6px" style="font-family:'Lato-Bold', 'Lato', sans-serif;font-weight:700;font-size:106.667px;fill:#ec3c56;">of repository e<tspan x="17271px " y="13335.6px ">x</tspan>posed function.</text></g></g><g><rect x="45634.3" y="11436.3" width="7379.6" height="2993.5" style="fill:#faf6d4;"/><g transform="matrix(3.125,0,0,3.125,-5810.05,-27857.1)"><text x="16578.5px" y="12823.6px" style="font-family:'Lato-Bold', 'Lato', sans-serif;font-weight:700;font-size:106.667px;fill:#dfd151;">Domain structures has injected repositories</text><text x="16578.5px" y="12951.6px" style="font-family:'Lato-Bold', 'Lato', sans-serif;font-weight:700;font-size:106.667px;fill:#dfd151;">which are abstr<tspan x="17308.1px " y="12951.6px ">a</tspan>ctions for data sources.</text><text x="16578.5px" y="13079.6px" style="font-family:'Lato-Bold', 'Lato', sans-serif;font-weight:700;font-size:106.667px;fill:#dfd151;">Ev<tspan x="16694.7px " y="13079.6px ">e</tspan>ntually y<tspan x="17160.6px " y="13079.6px ">o</tspan>u can inject here also Unit of</text><text x="16578.5px" y="13207.6px" style="font-family:'Lato-Bold', 'Lato', sans-serif;font-weight:700;font-size:106.667px;fill:#dfd151;">W<tspan x="16688px " y="13207.6px ">o</tspan>rk. Ask repository for data through</text><g transform="matrix(106.667,0,0,106.667,17776.8,13335.6)"></g><text x="16578.5px" y="13335.6px" style="font-family:'Lato-Bold', 'Lato', sans-serif;font-weight:700;font-size:106.667px;fill:#dfd151;">separ<tspan x="16840.3px " y="13335.6px ">a</tspan>te Request Object.</text></g></g><g><rect x="40143.3" y="36260.7" width="7837.12" height="2506.79" style="fill:#faf6d4;"/><g transform="matrix(3.125,0,0,3.125,-11200.9,-3083.58)"><text x="16578.5px" y="12823.6px" style="font-family:'Lato-Bold', 'Lato', sans-serif;font-weight:700;font-size:106.667px;fill:#dfd151;">Domain Structures lik<tspan x="17611.4px " y="12823.6px ">e</tspan> Use Case, Scenario,</text><text x="16578.5px" y="12951.6px" style="font-family:'Lato-Bold', 'Lato', sans-serif;font-weight:700;font-size:106.667px;fill:#dfd151;">Inter<tspan x="16813px " y="12951.6px ">a</tspan>ctor<tspan x="17057.9px " y="12951.6px ">,</tspan> returns Domain model for</text><text x="16578.5px" y="13079.6px" style="font-family:'Lato-Bold', 'Lato', sans-serif;font-weight:700;font-size:106.667px;fill:#dfd151;">Presentation la<tspan x="17302.1px 17357.2px " y="13079.6px 13079.6px ">ye</tspan>r or triggers some business</text><g transform="matrix(106.667,0,0,106.667,17979.9,13207.6)"></g><text x="16578.5px" y="13207.6px" style="font-family:'Lato-Bold', 'Lato', sans-serif;font-weight:700;font-size:106.667px;fill:#dfd151;">logic related to receiv<tspan x="17603.7px " y="13207.6px ">e</tspan>d data.</text></g></g><g><rect x="65715.8" y="5095.69" width="7320.03" height="2299.34" style="fill:#d4f9ca;"/><g transform="matrix(3.125,0,0,3.125,14257.5,-34153)"><g transform="matrix(106.667,0,0,106.667,18549.5,12823.6)"></g><g transform="matrix(106.667,0,0,106.667,18585.7,12823.6)"></g><text x="16578.5px" y="12823.6px" style="font-family:'Lato-Bold', 'Lato', sans-serif;font-weight:700;font-size:106.667px;fill:#61ec3e;">In data store y<tspan x="17252.5px " y="12823.6px ">o</tspan>u can k<tspan x="17637.9px " y="12823.6px ">e</tspan>ep data for a speciﬁc</text><g transform="matrix(106.667,0,0,106.667,17793.4,12951.6)"></g><g transform="matrix(106.667,0,0,106.667,17829.6,12951.6)"></g><text x="16578.5px" y="12951.6px" style="font-family:'Lato-Bold', 'Lato', sans-serif;font-weight:700;font-size:106.667px;fill:#61ec3e;">fr<tspan x="16657.9px " y="12951.6px ">a</tspan>mework. Data store deﬁnition ma<tspan x="18302.9px " y="12951.6px ">y</tspan> vary</text><g transform="matrix(106.667,0,0,106.667,18618.9,13079.6)"></g><text x="16578.5px" y="13079.6px" style="font-family:'Lato-Bold', 'Lato', sans-serif;font-weight:700;font-size:106.667px;fill:#61ec3e;">depending on used fr<tspan x="17567.4px " y="13079.6px ">a</tspan>mework ( Redux etc )</text></g></g><g><rect x="51680.6" y="9083.96" width="7320.03" height="1951.18" style="fill:#d4f9ca;"/><g transform="matrix(3.125,0,0,3.125,222.287,-30338.9)"><g transform="matrix(106.667,0,0,106.667,16891.3,12823.6)"></g><g transform="matrix(106.667,0,0,106.667,16928.4,12823.6)"></g><text x="16578.5px" y="12823.6px" style="font-family:'Lato-Bold', 'Lato', sans-serif;font-weight:700;font-size:106.667px;fill:#61ec3e;">In this ﬂow Data Store is treated as separ<tspan x="18514.6px " y="12823.6px ">a</tspan>te</text><text x="16578.5px" y="12951.6px" style="font-family:'Lato-Bold', 'Lato', sans-serif;font-weight:700;font-size:106.667px;fill:#61ec3e;">data source and is accessed same wa<tspan x="18301.2px " y="12951.6px ">y</tspan> as</text><g transform="matrix(106.667,0,0,106.667,17718.1,13079.6)"></g><g transform="matrix(106.667,0,0,106.667,17754.3,13079.6)"></g><g transform="matrix(106.667,0,0,106.667,18087.2,13079.6)"></g><text x="16578.5px" y="13079.6px" style="font-family:'Lato-Bold', 'Lato', sans-serif;font-weight:700;font-size:106.667px;fill:#61ec3e;">others through client deﬁnition.</text></g></g><g><rect x="22961.3" y="19313.3" width="8064.67" height="2054.98" style="fill:#d6ecf7;"/><g transform="matrix(3.125,0,0,3.125,-28465.5,-20067.8)"><g transform="matrix(106.667,0,0,106.667,17719.4,12823.6)"></g><g transform="matrix(106.667,0,0,106.667,17755.6,12823.6)"></g><text x="16578.5px" y="12823.6px" style="font-family:'Lato-Bold', 'Lato', sans-serif;font-weight:700;font-size:106.667px;fill:#40a9eb;">Presenter e<tspan x="17126.3px " y="12823.6px ">x</tspan>poses speciﬁc set of functions which</text><g transform="matrix(106.667,0,0,106.667,17213.3,12951.6)"></g><g transform="matrix(106.667,0,0,106.667,17249.4,12951.6)"></g><text x="16578.5px" y="12951.6px" style="font-family:'Lato-Bold', 'Lato', sans-serif;font-weight:700;font-size:106.667px;fill:#40a9eb;">has a clear deﬁnition of input ( Request Object )</text><g transform="matrix(106.667,0,0,106.667,18198.2,13079.6)"></g><text x="16578.5px" y="13079.6px" style="font-family:'Lato-Bold', 'Lato', sans-serif;font-weight:700;font-size:106.667px;fill:#40a9eb;">and output ( Presentation Model ).</text></g></g><g><rect x="31026" y="12221.2" width="8064.67" height="2054.98" style="fill:#d6ecf7;"/><g transform="matrix(3.125,0,0,3.125,-20400.9,-27159.8)"><text x="16578.5px" y="12823.6px" style="font-family:'Lato-Bold', 'Lato', sans-serif;font-weight:700;font-size:106.667px;fill:#40a9eb;">Presenter has injected Domain Structures</text><text x="16578.5px" y="12951.6px" style="font-family:'Lato-Bold', 'Lato', sans-serif;font-weight:700;font-size:106.667px;fill:#40a9eb;">through which asks for data required b<tspan x="18404.7px " y="12951.6px ">y</tspan> upper</text><g transform="matrix(106.667,0,0,106.667,16908.3,13079.6)"></g><text x="16578.5px" y="13079.6px" style="font-family:'Lato-Bold', 'Lato', sans-serif;font-weight:700;font-size:106.667px;fill:#40a9eb;">la<tspan x="16661.4px 16716.5px " y="13079.6px 13079.6px ">ye</tspan>rs.</text></g></g><g><rect x="24582.8" y="36730" width="8064.67" height="2054.98" style="fill:#d6ecf7;"/><g transform="matrix(3.125,0,0,3.125,-26844.1,-2651.07)"><text x="16578.5px" y="12823.6px" style="font-family:'Lato-Bold', 'Lato', sans-serif;font-weight:700;font-size:106.667px;fill:#40a9eb;">Presenter returns Presentation model to UI</text><text x="16578.5px" y="12951.6px" style="font-family:'Lato-Bold', 'Lato', sans-serif;font-weight:700;font-size:106.667px;fill:#40a9eb;">structures which then can be mapped ( if needed )</text><g transform="matrix(106.667,0,0,106.667,17163.3,13079.6)"></g><text x="16578.5px" y="13079.6px" style="font-family:'Lato-Bold', 'Lato', sans-serif;font-weight:700;font-size:106.667px;fill:#40a9eb;">to UI Model.</text></g></g><g><rect x="9848.8" y="4478.41" width="7802.61" height="2432.22" style="fill:#ddf8f8;"/><g transform="matrix(3.125,0,0,3.125,-41608.1,-34699.4)"><text x="16578.5px" y="12823.6px" style="font-family:'Lato-Bold', 'Lato', sans-serif;font-weight:700;font-size:106.667px;fill:#3be7ec;">Product feature has injected presenter which</text><text x="16578.5px" y="12951.6px" style="font-family:'Lato-Bold', 'Lato', sans-serif;font-weight:700;font-size:106.667px;fill:#3be7ec;">can ask for data which is required to displa<tspan x="18581.9px " y="12951.6px ">y</tspan></text><g transform="matrix(106.667,0,0,106.667,18493.6,13079.6)"></g><text x="16578.5px" y="13079.6px" style="font-family:'Lato-Bold', 'Lato', sans-serif;font-weight:700;font-size:106.667px;fill:#3be7ec;">data for user or for markup related logic.</text></g></g><g><rect x="6817" y="43686.3" width="10133.5" height="4546.29" style="fill:#e5f3fa;"/><g transform="matrix(3.125,0,0,3.125,-44421.8,4977.2)"><g transform="matrix(106.667,0,0,106.667,17334.7,12823.6)"></g><g transform="matrix(106.667,0,0,106.667,17370.8,12823.6)"></g><text x="16578.5px" y="12823.6px" style="font-family:'Lato-Bold', 'Lato', sans-serif;font-weight:700;font-size:106.667px;fill:#7ec5f0;">UI La<tspan x="16819.3px 16874.5px " y="12823.6px 12823.6px ">ye</tspan>r ma<tspan x="17139.4px " y="12823.6px ">y</tspan> deﬁne it&apos;s own models if y<tspan x="18432.5px " y="12823.6px ">o</tspan>u need, but in</text><text x="16578.5px" y="12951.6px" style="font-family:'Lato-Bold', 'Lato', sans-serif;font-weight:700;font-size:106.667px;fill:#7ec5f0;">gener<tspan x="16850.4px " y="12951.6px ">a</tspan>l y<tspan x="17010.9px " y="12951.6px ">o</tspan>u should use presentation models. In some of the</text><text x="16578.5px" y="13079.6px" style="font-family:'Lato-Bold', 'Lato', sans-serif;font-weight:700;font-size:106.667px;fill:#7ec5f0;">cases y<tspan x="16911.2px " y="13079.6px ">o</tspan>u ma<tspan x="17196.8px " y="13079.6px ">y</tspan> try to use domain models but it&apos;s better to</text><text x="16578.5px" y="13207.6px" style="font-family:'Lato-Bold', 'Lato', sans-serif;font-weight:700;font-size:106.667px;fill:#7ec5f0;">k<tspan x="16634.2px " y="13207.6px ">e</tspan>ep them separ<tspan x="17360.2px " y="13207.6px ">a</tspan>ted. UI La<tspan x="17860.6px 17915.7px " y="13207.6px 13207.6px ">ye</tspan>r asks through presenter with</text><text x="16578.5px" y="13335.6px" style="font-family:'Lato-Bold', 'Lato', sans-serif;font-weight:700;font-size:106.667px;fill:#7ec5f0;">use of request object for data to displa<tspan x="18387.9px " y="13335.6px ">y</tspan> it for user with use</text><g transform="matrix(106.667,0,0,106.667,16940.9,13463.6)"></g><g transform="matrix(106.667,0,0,106.667,16977,13463.6)"></g><g transform="matrix(106.667,0,0,106.667,17629.9,13463.6)"></g><text x="16578.5px" y="13463.6px" style="font-family:'Lato-Bold', 'Lato', sans-serif;font-weight:700;font-size:106.667px;fill:#7ec5f0;">of speciﬁc fr<tspan x="17155.9px " y="13463.6px ">a</tspan>mework.</text></g></g><g transform="matrix(6.12323e-17,-1,1,6.12323e-17,-98999.9,45589.6)"><g transform="matrix(416.667,0,0,416.667,30116.3,112430)"></g><text x="25102.8px" y="112430px" style="font-family:'Lato-Bold', 'Lato', sans-serif;font-weight:700;font-size:416.667px;fill:#7689ac;">USER PERFORMS A<tspan x="28810.1px " y="112430px ">C</tspan>TION</text></g><g transform="matrix(6.12323e-17,-1,1,6.12323e-17,-114678,61267.5)"><g transform="matrix(416.667,0,0,416.667,32724.4,128108)"></g><text x="25102.8px" y="128108px" style="font-family:'Lato-Bold', 'Lato', sans-serif;font-weight:700;font-size:416.667px;fill:#7689ac;">UI READ<tspan x="26719.4px " y="128108px ">Y</tspan> D<tspan x="27373.4px 27638.6px 27855.9px " y="128108px 128108px 128108px ">ATA</tspan> IS P<tspan x="28895.1px " y="128108px ">A</tspan>SSED T<tspan x="30500.1px " y="128108px ">O</tspan> MARKUP</text></g></g></svg>