<?xml version="1.0" encoding="UTF-8" standalone="no"?><!DOCTYPE svg PUBLIC "-//W3C//DTD SVG 1.1//EN" "http://www.w3.org/Graphics/SVG/1.1/DTD/svg11.dtd"><svg width="100%" height="100%" viewBox="0 0 78388 50917" version="1.1" xmlns="http://www.w3.org/2000/svg" xmlns:xlink="http://www.w3.org/1999/xlink" xml:space="preserve" xmlns:serif="http://www.serif.com/" style="fill-rule:evenodd;clip-rule:evenodd;stroke-linecap:square;stroke-linejoin:round;stroke-miterlimit:1.5;"><g id="UI-Layer-Architecture" serif:id="UI Layer Architecture"><g id="Layers"><g id="UI-Layer" serif:id="UI Layer"><rect x="4586.02" y="1455.99" width="73801.4" height="48004.3" style="fill:#e3f2fc;"/><g transform="matrix(5000,0,0,5000,59794.2,7106.49)"></g><text x="23094.2px" y="7106.49px" style="font-family:'Lato-Bold', 'Lato', sans-serif;font-weight:700;font-size:5000px;fill:#bee1f7;">PRESENT<tspan x="44289.2px 47471.7px " y="7106.49px 7106.49px ">AT</tspan>ION</text></g><g id="Product-Feature" serif:id="Product Feature"><path d="M65622.2,41730.3l-48333.5,-0l-0,-32544.2l48333.5,0l0,32544.2Z" style="fill:#eff8fd;stroke:#cee8f8;stroke-width:43.43px;"/><g transform="matrix(1,2.71372e-17,3.43347e-16,1,0.0086102,-1.81899e-12)"><g transform="matrix(1250,0,0,1250,44877.7,11786)"></g><text x="37952.7px" y="11786px" style="font-family:'Lato-Bold', 'Lato', sans-serif;font-weight:700;font-size:1250px;fill:#bee1f7;">PRESENTER</text></g></g><g id="Presentation"><rect x="61061.3" y="13363.2" width="3634.46" height="26588.7" style="fill:#fcfae3;stroke:#284c63;stroke-width:4.17px;stroke-linecap:round;"/><g transform="matrix(8.83696e-17,-1,1,-2.82115e-16,34012.3,92648.5)"><g transform="matrix(1250,0,0,1250,68979.8,29318.1)"></g><text x="63330.4px" y="29318.1px" style="font-family:'Lato-Bold', 'Lato', sans-serif;font-weight:700;font-size:1250px;fill:#f4e299;">USE CASE</text></g></g><g id="DI"><g><g><rect x="-0" y="49460.5" width="78387.4" height="1455.99" style="fill:#c8d2e6;"/></g><g><g transform="matrix(1,0,0,0.936071,0,3223.34)"><text x="38228.8px" y="50420.6px" style="font-family:'Lato-Bold', 'Lato', sans-serif;font-weight:700;font-size:667.685px;fill:#fff;">DEPENDENCY INJECTION</text></g></g></g><g><g><rect x="-0" y="0" width="78387.4" height="1455.99" style="fill:#c8d2e6;"/></g><g><g transform="matrix(1,0,0,0.936073,0,61.382)"><text x="37422px" y="960.185px" style="font-family:'Lato-Bold', 'Lato', sans-serif;font-weight:700;font-size:667.685px;fill:#fff;">DEPENDENCY INJECTION</text></g></g></g></g><g id="Data-Store" serif:id="Data Store"><path d="M54460,39951.8l-26009,-0l0,-3634.46l26009,-0l0,3634.46Z" style="fill:#e8fce3;stroke:#35931e;stroke-width:4.17px;stroke-linecap:round;"/><g transform="matrix(1,2.71372e-17,3.43347e-16,1,0.00856377,7.27596e-12)"><g transform="matrix(1250,0,0,1250,45126.1,38586.5)"></g><text x="37748px" y="38586.5px" style="font-family:'Lato-Bold', 'Lato', sans-serif;font-weight:700;font-size:1250px;fill:#c9f8be;">D<tspan x="38650.5px 39446.1px 40098px " y="38586.5px 38586.5px 38586.5px ">ATA</tspan> ST<tspan x="42592.3px " y="38586.5px ">O</tspan>RE</text></g></g></g><g id="Logic"><g id="Data-Access-Logic" serif:id="Data Access Logic"><path d="M46608.8,28801.2l-10306.7,-0l-0,-5455.91l10306.7,-0l-0,5455.91Z" style="fill:#f5fdfd;stroke:#647dd0;stroke-width:20.83px;"/><g transform="matrix(3.125,0,0,3.125,-14185.3,-2952.01)"><text x="16826.4px" y="9193.56px" style="font-family:'Lato-Bold', 'Lato', sans-serif;font-weight:700;font-size:266.667px;fill:#7b9bcd;">PRESENT<tspan x="17956.8px 18126.5px " y="9193.56px 9193.56px ">AT</tspan>ION</text><g transform="matrix(266.667,0,0,266.667,18202.9,9577.56)"></g><text x="17407.2px" y="9577.56px" style="font-family:'Lato-Bold', 'Lato', sans-serif;font-weight:700;font-size:266.667px;fill:#7b9bcd;">L<tspan x="17534.4px " y="9577.56px ">O</tspan>GIC</text></g></g><g id="Data-Access-Logic1" serif:id="Data Access Logic"><rect x="22277.7" y="18424.7" width="3634.46" height="15297.2" style="fill:#f5fdfd;stroke:#647dd0;stroke-width:14.73px;"/><g transform="matrix(6.12323e-17,-1,1,6.12323e-17,-86388.1,77649.4)"><g transform="matrix(833.333,0,0,833.333,56287.9,110749)"></g><text x="47193.4px" y="110749px" style="font-family:'Lato-Bold', 'Lato', sans-serif;font-weight:700;font-size:833.333px;fill:#7b9bcd;">PRESENTER FUNCTION</text></g></g><g id="UI-Mapper" serif:id="UI Mapper"><path d="M58012.9,22196.5l-8012.24,-0l0,-4046.96l8012.24,-0l-0,4046.96Z" style="fill:#f5fdfd;stroke:#647dd0;stroke-width:20.87px;"/><g transform="matrix(3.125,0,0,3.125,-903.682,-8983.29)"><text x="16464.3px" y="9136.83px" style="font-family:'Lato-Regular', 'Lato', sans-serif;font-size:192px;fill:#7b9bcd;">PRESENT<tspan x="17275.9px 17393.8px " y="9136.83px 9136.83px ">AT</tspan>ION MAPPER</text><text x="17038.3px" y="9419.5px" style="font-family:'Lato-Regular', 'Lato', sans-serif;font-size:192px;fill:#7b9bcd;">DOMAIN T<tspan x="17988.3px " y="9419.5px ">O</tspan></text><g transform="matrix(192,0,0,192,18271.4,9686.17)"></g><text x="16871.3px" y="9686.17px" style="font-family:'Lato-Regular', 'Lato', sans-serif;font-size:192px;fill:#7b9bcd;">PRESENT<tspan x="17682.9px 17800.8px " y="9686.17px 9686.17px ">AT</tspan>ION</text></g></g></g><g id="Data-Flows-description" serif:id="Data Flows description"><g><path d="M50616.4,23614.9l154.537,-0l0,1132.08l143.499,-0l-220.767,370.092l-220.767,-370.092l143.498,-0l0,-1132.08Z" style="fill:#72f1d0;"/><path d="M57405.1,25117l-154.537,-0l0,-1132.08l-143.498,0l220.767,-370.092l220.767,370.092l-143.499,0l0,1132.08Z" style="fill:#72f1d0;"/></g><g><path d="M30346.4,27125l-0,-154.537l1132.08,-0l-0,-143.499l370.092,220.767l-370.092,220.767l-0,-143.498l-1132.08,-0Z" style="fill:#72f1d0;"/><path d="M31848.6,24827.7l-0,154.537l-1132.08,-0l0,143.498l-370.092,-220.767l370.092,-220.767l0,143.499l1132.08,-0Z" style="fill:#72f1d0;"/><path d="M31848.6,24827.7l-0,154.537l-1132.08,-0l0,143.498l-370.092,-220.767l370.092,-220.767l0,143.499l1132.08,-0Z" style="fill:#72f1d0;"/><g transform="matrix(333.333,0,0,333.333,32925.9,25711.3)"></g><text x="29226px" y="25711.3px" style="font-family:'Lato-Bold', 'Lato', sans-serif;font-weight:700;font-size:333.333px;fill:#40a9eb;">PRESENT<tspan x="30639px 30851.2px " y="25711.3px 25711.3px ">AT</tspan>ION MODEL</text><g transform="matrix(333.333,0,0,333.333,32946.4,26533.3)"></g><text x="29226px" y="26533.3px" style="font-family:'Lato-Bold', 'Lato', sans-serif;font-weight:700;font-size:333.333px;fill:#40a9eb;">REQUEST OBJECT D<tspan x="32323.7px 32535.9px 32709.7px " y="26533.3px 26533.3px 26533.3px ">ATA</tspan></text></g><g><path d="M53262.3,27198.1l-0,-154.537l1132.08,0l-0,-143.498l370.092,220.767l-370.092,220.767l-0,-143.499l-1132.08,0Z" style="fill:#72f1d0;"/><path d="M54764.5,24900.9l-0,154.537l-1132.08,0l0,143.499l-370.092,-220.767l370.092,-220.767l0,143.498l1132.08,0Z" style="fill:#72f1d0;"/><g transform="matrix(333.333,0,0,333.333,55325.2,25784.5)"></g><text x="52653px" y="25784.5px" style="font-family:'Lato-Bold', 'Lato', sans-serif;font-weight:700;font-size:333.333px;fill:#40a9eb;">DOMAIN MODEL</text><g transform="matrix(333.333,0,0,333.333,55862.3,26606.5)"></g><text x="52142px" y="26606.5px" style="font-family:'Lato-Bold', 'Lato', sans-serif;font-weight:700;font-size:333.333px;fill:#40a9eb;">REQUEST OBJECT D<tspan x="55239.6px 55451.8px 55625.6px " y="26606.5px 26606.5px 26606.5px ">ATA</tspan></text></g><g><path d="M40437.7,31242.8l154.537,-0l0,1132.08l143.499,-0l-220.767,370.092l-220.767,-370.092l143.498,-0l0,-1132.08Z" style="fill:#72f1d0;"/><path d="M42547.5,32745l-154.537,-0l0,-1132.08l-143.498,0l220.767,-370.092l220.767,370.092l-143.499,0l0,1132.08Z" style="fill:#72f1d0;"/><g transform="matrix(6.12323e-17,1,-1,6.12323e-17,60330.6,-103264)"><g transform="matrix(333.333,0,0,333.333,136826,18607)"></g><text x="133605px" y="18607px" style="font-family:'Lato-Bold', 'Lato', sans-serif;font-weight:700;font-size:333.333px;fill:#40a9eb;">D<tspan x="133846px 134058px 134232px " y="18607px 18607px 18607px ">ATA</tspan> ST<tspan x="134897px " y="18607px ">O</tspan>RE MODEL</text></g><g transform="matrix(6.12323e-17,1,-1,6.12323e-17,60167.9,-101783)"><g transform="matrix(333.333,0,0,333.333,134717,19266.3)"></g><text x="132783px" y="19266.3px" style="font-family:'Lato-Bold', 'Lato', sans-serif;font-weight:700;font-size:333.333px;fill:#40a9eb;">INPUT D<tspan x="134094px 134306px 134480px " y="19266.3px 19266.3px 19266.3px ">ATA</tspan></text></g></g></g><g id="Data-Flows" serif:id="Data Flows"><g><path d="M51703,26135.8c-16.159,-0 -30.894,-6.146 -41.993,-16.225c-11.325,-9.238 -20.507,-23.692 -20.507,-46.276c-0,-34.494 28.005,-62.5 62.5,-62.5c34.495,0 62.5,28.005 62.5,62.5c-0,58.921 -62.5,62.501 -62.5,62.501Zm62.5,-616.329l-0,138.459c-0,34.495 -28.005,62.5 -62.5,62.5c-34.495,0 -62.5,-28.005 -62.5,-62.5l-0,-138.459c-0,-34.495 28.005,-62.501 62.5,-62.501c34.495,0 62.5,28.006 62.5,62.501Zm-0,-553.825l-0,138.455c-0,34.494 -28.005,62.5 -62.5,62.5c-34.495,-0 -62.5,-28.006 -62.5,-62.5l-0,-138.455c-0,-34.495 28.005,-62.501 62.5,-62.501c34.495,0 62.5,28.006 62.5,62.501Zm-0,-553.824l-0,138.456c-0,34.495 -28.005,62.5 -62.5,62.5c-34.495,-0 -62.5,-28.005 -62.5,-62.5l-0,-138.456c-0,-34.495 28.005,-62.504 62.5,-62.504c34.495,-0 62.5,28.009 62.5,62.504Zm-0,-553.871c-0,0.008 -0,0.034 -0,0.038l-0,138.459c-0,34.495 -28.005,62.5 -62.5,62.5c-34.495,0 -62.5,-28.005 -62.5,-62.5l-0,-138.459c-0,-34.494 28.005,-62.503 62.5,-62.503c34.481,0 62.478,27.987 62.5,62.465Zm-0,-553.788l-0,138.464c-0,34.495 -28.005,62.5 -62.5,62.5c-34.495,-0 -62.5,-28.005 -62.5,-62.5l-0,-138.464c-0,-34.495 28.005,-62.501 62.5,-62.501c34.495,-0 62.5,28.006 62.5,62.501Zm-0.426,-1114.98c0.279,2.042 0.426,4.474 0.426,7.329l-0,138.455c-0,34.495 -28.005,62.5 -62.5,62.5c-34.495,0 -62.5,-28.005 -62.5,-62.5l-0,-138.456c-0,22.582 9.18,37.035 20.505,46.273c-12.593,-11.437 -20.505,-27.938 -20.505,-46.273c-0,-34.494 28.005,-62.5 62.5,-62.5c32.015,0 58.441,24.125 62.074,55.172Zm0.426,699.612c-0,34.495 -28.005,62.5 -62.5,62.5c-34.495,0 -62.5,-28.005 -62.5,-62.5l-0,-138.456c-0,-34.495 28.005,-62.5 62.5,-62.5c34.495,-0 62.5,28.005 62.5,62.5l-0,138.456Z" style="fill:#40a9eb;"/><path d="M56310.6,26135.8c-16.159,-0 -30.894,-6.146 -41.993,-16.225c-11.325,-9.238 -20.507,-23.692 -20.507,-46.276c0,-34.494 28.006,-62.5 62.5,-62.5c34.495,0 62.5,28.005 62.5,62.5c0,58.921 -62.5,62.501 -62.5,62.501Zm62.5,-616.329l0,138.459c0,34.495 -28.005,62.5 -62.5,62.5c-34.494,0 -62.5,-28.005 -62.5,-62.5l0,-138.459c0,-34.495 28.006,-62.501 62.5,-62.501c34.495,0 62.5,28.006 62.5,62.501Zm0,-553.825l0,138.455c0,34.494 -28.005,62.5 -62.5,62.5c-34.494,-0 -62.5,-28.006 -62.5,-62.5l0,-138.455c0,-34.495 28.006,-62.501 62.5,-62.501c34.495,0 62.5,28.006 62.5,62.501Zm0,-553.824l0,138.456c0,34.495 -28.005,62.5 -62.5,62.5c-34.494,-0 -62.5,-28.005 -62.5,-62.5l0,-138.456c0,-34.495 28.006,-62.504 62.5,-62.504c34.495,-0 62.5,28.009 62.5,62.504Zm0,-553.885c0,0.012 0,0.049 0,0.052l0,138.459c0,34.495 -28.005,62.5 -62.5,62.5c-34.494,0 -62.5,-28.005 -62.5,-62.5l0,-138.459c0,-34.494 28.006,-62.503 62.5,-62.503c34.477,0 62.471,27.98 62.5,62.451Zm0,-553.774l0,138.464c0,34.495 -28.005,62.5 -62.5,62.5c-34.494,-0 -62.5,-28.005 -62.5,-62.5l0,-138.464c0,-34.495 28.006,-62.501 62.5,-62.501c34.495,-0 62.5,28.006 62.5,62.501Zm-0.426,-1114.98c0.28,2.042 0.426,4.474 0.426,7.329l0,138.455c0,34.495 -28.005,62.5 -62.5,62.5c-34.494,0 -62.5,-28.005 -62.5,-62.5l0,-138.456c0,22.582 9.181,37.035 20.505,46.273c-12.593,-11.437 -20.505,-27.938 -20.505,-46.273c0,-34.494 28.006,-62.5 62.5,-62.5c32.016,0 58.441,24.125 62.074,55.172Zm0.426,699.612c0,34.495 -28.005,62.5 -62.5,62.5c-34.494,0 -62.5,-28.005 -62.5,-62.5l0,-138.456c0,-34.495 28.006,-62.5 62.5,-62.5c34.495,-0 62.5,28.005 62.5,62.5l0,138.456Z" style="fill:#40a9eb;"/></g><path d="M64758.2,26073.3l13629.2,-0" style="fill:none;stroke:#ebda3d;stroke-width:125px;stroke-linecap:round;"/><path d="M41455.5,39933.2l-0,9527" style="fill:none;stroke:#61ec3e;stroke-width:125px;stroke-linecap:round;"/><path d="M41455.5,28820l-0,7497.34" style="fill:none;stroke:#40a9eb;stroke-width:125px;stroke-linecap:round;"/><path d="M47222.8,26073.3l13838.5,-0" style="fill:none;stroke:#40a9eb;stroke-width:125px;stroke-linecap:round;"/><path d="M25912.2,26008.3l10389.9,-0" style="fill:none;stroke:#40a9eb;stroke-width:125px;stroke-linecap:round;"/><path d="M4586.02,26008.3l17691.7,-0" style="fill:none;stroke:#40a9eb;stroke-width:125px;stroke-linecap:round;"/><g><circle cx="41455.5" cy="36317.4" r="486.926" style="fill:#e8fce3;"/><path d="M41455.5,36966.6c-358.323,-0 -649.235,-290.913 -649.235,-649.235c-0,-358.323 290.912,-649.235 649.235,-649.235c358.322,-0 649.235,290.912 649.235,649.235c-0,358.322 -290.913,649.235 -649.235,649.235Zm-0,-162.309c-268.742,-0 -486.926,-218.184 -486.926,-486.926c-0,-268.742 218.184,-486.927 486.926,-486.927c268.742,0 486.926,218.185 486.926,486.927c0,268.742 -218.184,486.926 -486.926,486.926Z" style="fill:#61ec3e;"/><circle cx="41455.5" cy="36317.4" r="348.223" style="fill:#61ec3e;"/></g><g><circle cx="41455.5" cy="39933.2" r="486.926" style="fill:#e8fce3;"/><path d="M41455.5,40582.5c-358.323,-0 -649.235,-290.913 -649.235,-649.235c-0,-358.323 290.912,-649.235 649.235,-649.235c358.322,-0 649.235,290.912 649.235,649.235c-0,358.322 -290.913,649.235 -649.235,649.235Zm-0,-162.309c-268.742,0 -486.926,-218.184 -486.926,-486.926c-0,-268.742 218.184,-486.926 486.926,-486.926c268.742,-0 486.926,218.184 486.926,486.926c0,268.742 -218.184,486.926 -486.926,486.926Z" style="fill:#61ec3e;"/><circle cx="41455.5" cy="39933.2" r="348.223" style="fill:#61ec3e;"/></g><g><circle cx="46624" cy="26008.3" r="486.926" style="fill:#e3f2fc;"/><path d="M46624,25359c358.322,-0 649.235,290.912 649.235,649.235c-0,358.323 -290.913,649.235 -649.235,649.235c-358.323,0 -649.235,-290.912 -649.235,-649.235c-0,-358.323 290.912,-649.235 649.235,-649.235Zm-0,162.309c268.742,-0 486.926,218.184 486.926,486.926c0,268.742 -218.184,486.926 -486.926,486.926c-268.742,0 -486.926,-218.184 -486.926,-486.926c-0,-268.742 218.184,-486.926 486.926,-486.926Z" style="fill:#40a9eb;"/><circle cx="46624" cy="26008.3" r="348.223" style="fill:#40a9eb;"/></g><g><circle cx="41455.5" cy="28820" r="486.926" style="fill:#e3f2fc;"/><path d="M41455.5,29469.3c-358.323,0 -649.235,-290.912 -649.235,-649.235c-0,-358.322 290.912,-649.235 649.235,-649.235c358.322,0 649.235,290.913 649.235,649.235c-0,358.323 -290.913,649.235 -649.235,649.235Zm-0,-162.309c-268.742,0 -486.926,-218.184 -486.926,-486.926c-0,-268.742 218.184,-486.926 486.926,-486.926c268.742,-0 486.926,218.184 486.926,486.926c0,268.742 -218.184,486.926 -486.926,486.926Z" style="fill:#40a9eb;"/><circle cx="41455.5" cy="28820" r="348.223" style="fill:#40a9eb;"/></g><g><circle cx="25912.2" cy="26008.3" r="486.926" style="fill:#e3f2fc;"/><path d="M25912.2,25359c358.323,-0 649.235,290.912 649.235,649.235c0,358.323 -290.912,649.235 -649.235,649.235c-358.322,0 -649.235,-290.912 -649.235,-649.235c0,-358.323 290.913,-649.235 649.235,-649.235Zm0,162.309c268.742,-0 486.927,218.184 486.927,486.926c-0,268.742 -218.185,486.926 -486.927,486.926c-268.742,0 -486.926,-218.184 -486.926,-486.926c0,-268.742 218.184,-486.926 486.926,-486.926Z" style="fill:#40a9eb;"/><circle cx="25912.2" cy="26008.3" r="348.223" style="fill:#40a9eb;"/></g><g><circle cx="36295.6" cy="26008.3" r="486.926" style="fill:#e3f2fc;"/><path d="M36295.6,25359c358.323,-0 649.235,290.912 649.235,649.235c0,358.323 -290.912,649.235 -649.235,649.235c-358.322,0 -649.235,-290.912 -649.235,-649.235c0,-358.323 290.913,-649.235 649.235,-649.235Zm0,162.309c268.742,-0 486.927,218.184 486.927,486.926c-0,268.742 -218.185,486.926 -486.927,486.926c-268.741,0 -486.926,-218.184 -486.926,-486.926c0,-268.742 218.185,-486.926 486.926,-486.926Z" style="fill:#40a9eb;"/><circle cx="36295.6" cy="26008.3" r="348.223" style="fill:#40a9eb;"/></g><g><circle cx="22277.7" cy="26008.3" r="486.926" style="fill:#e3f2fc;"/><path d="M22277.7,25359c358.323,-0 649.235,290.912 649.235,649.235c0,358.323 -290.912,649.235 -649.235,649.235c-358.322,0 -649.235,-290.912 -649.235,-649.235c0,-358.323 290.913,-649.235 649.235,-649.235Zm0,162.309c268.742,-0 486.927,218.184 486.927,486.926c-0,268.742 -218.185,486.926 -486.927,486.926c-268.742,0 -486.926,-218.184 -486.926,-486.926c0,-268.742 218.184,-486.926 486.926,-486.926Z" style="fill:#40a9eb;"/><circle cx="22277.7" cy="26008.3" r="348.223" style="fill:#40a9eb;"/></g><g><circle cx="64758.2" cy="26107.5" r="486.926" style="fill:#fcfae3;"/><path d="M64758.2,25458.2c358.322,-0 649.235,290.912 649.235,649.235c-0,358.322 -290.913,649.235 -649.235,649.235c-358.323,-0 -649.235,-290.913 -649.235,-649.235c-0,-358.323 290.912,-649.235 649.235,-649.235Zm-0,162.308c268.742,0 486.926,218.185 486.926,486.927c0,268.742 -218.184,486.926 -486.926,486.926c-268.742,-0 -486.927,-218.184 -486.927,-486.926c0,-268.742 218.185,-486.927 486.927,-486.927Z" style="fill:#ebda3d;"/><circle cx="64758.2" cy="26107.5" r="348.223" style="fill:#ebda3d;"/></g><g><circle cx="61061.3" cy="26107.5" r="486.926" style="fill:#fcfae3;"/><path d="M61061.3,25458.2c358.322,-0 649.235,290.912 649.235,649.235c-0,358.322 -290.913,649.235 -649.235,649.235c-358.323,-0 -649.235,-290.913 -649.235,-649.235c-0,-358.323 290.912,-649.235 649.235,-649.235Zm-0,162.308c268.742,0 486.926,218.185 486.926,486.927c-0,268.742 -218.184,486.926 -486.926,486.926c-268.742,-0 -486.927,-218.184 -486.927,-486.926c0,-268.742 218.185,-486.927 486.927,-486.927Z" style="fill:#ebda3d;"/><circle cx="61061.3" cy="26107.5" r="348.223" style="fill:#ebda3d;"/></g></g><g id="UI-Layer1" serif:id="UI Layer"><rect x="0.078" y="1449.58" width="4585.94" height="48016.1" style="fill:#ebf7fd;"/><g transform="matrix(9.23273e-17,-1,1,7.42446e-17,-24265.2,31234.6)"><g transform="matrix(3333.33,0,0,3333.33,6958.05,27749.9)"></g><text x="3484.71px" y="27749.9px" style="font-family:'Lato-Bold', 'Lato', sans-serif;font-weight:700;font-size:3333.33px;fill:#d8ebf6;">UI</text></g></g><g id="Hints"><g><rect x="13485.4" y="11171.6" width="7606.69" height="2920.31" style="fill:#d6ecf7;"/><g transform="matrix(3.125,0,0,3.125,-37948.8,-28179.3)"><g transform="matrix(106.667,0,0,106.667,17692.3,12823.6)"></g><g transform="matrix(106.667,0,0,106.667,17728.4,12823.6)"></g><text x="16578.5px" y="12823.6px" style="font-family:'Lato-Bold', 'Lato', sans-serif;font-weight:700;font-size:106.667px;fill:#40a9eb;">Presentation la<tspan x="17302.1px 17357.2px " y="12823.6px 12823.6px ">ye</tspan>r is deﬁned b<tspan x="18014.5px " y="12823.6px ">y</tspan> MVP pattern.</text><text x="16578.5px" y="12951.6px" style="font-family:'Lato-Bold', 'Lato', sans-serif;font-weight:700;font-size:106.667px;fill:#40a9eb;">Presenter is a gatewa<tspan x="17592.7px " y="12951.6px ">y</tspan> between data store</text><text x="16578.5px" y="13079.6px" style="font-family:'Lato-Bold', 'Lato', sans-serif;font-weight:700;font-size:106.667px;fill:#40a9eb;">la<tspan x="16661.4px 16716.5px " y="13079.6px 13079.6px ">ye</tspan>r and domain la<tspan x="17495.6px 17550.7px 17607.8px 17644.1px " y="13079.6px 13079.6px 13079.6px 13079.6px ">yer.</tspan> Here y<tspan x="18002.6px " y="13079.6px ">o</tspan>u can ha<tspan x="18447px 18502.2px " y="13079.6px 13079.6px ">ve</tspan> an<tspan x="18694.3px " y="13079.6px ">y</tspan></text><g transform="matrix(106.667,0,0,106.667,17545.5,13207.6)"></g><g transform="matrix(106.667,0,0,106.667,17582.6,13207.6)"></g><text x="16578.5px" y="13207.6px" style="font-family:'Lato-Bold', 'Lato', sans-serif;font-weight:700;font-size:106.667px;fill:#40a9eb;">logic related to data ﬂow between those</text><g transform="matrix(106.667,0,0,106.667,16887.7,13335.6)"></g><text x="16578.5px" y="13335.6px" style="font-family:'Lato-Bold', 'Lato', sans-serif;font-weight:700;font-size:106.667px;fill:#40a9eb;">la<tspan x="16661.4px 16716.5px " y="13335.6px 13335.6px ">ye</tspan>rs.</text></g></g><g><rect x="32248.6" y="19924.5" width="8064.67" height="2429.31" style="fill:#d6ecf7;"/><g transform="matrix(3.125,0,0,3.125,-19178.3,-19445.9)"><text x="16578.5px" y="12823.6px" style="font-family:'Lato-Bold', 'Lato', sans-serif;font-weight:700;font-size:106.667px;fill:#40a9eb;">Presentation logic should contain an<tspan x="18297.1px " y="12823.6px ">y</tspan> logic</text><g transform="matrix(106.667,0,0,106.667,17300.4,12951.6)"></g><g transform="matrix(106.667,0,0,106.667,17337.5,12951.6)"></g><text x="16578.5px" y="12951.6px" style="font-family:'Lato-Bold', 'Lato', sans-serif;font-weight:700;font-size:106.667px;fill:#40a9eb;">related to data ﬂow which can be for e<tspan x="18380.2px " y="12951.6px ">x</tspan>ample</text><text x="16578.5px" y="13079.6px" style="font-family:'Lato-Bold', 'Lato', sans-serif;font-weight:700;font-size:106.667px;fill:#40a9eb;">calling multiple use cases and then updating data</text><g transform="matrix(106.667,0,0,106.667,17687.4,13207.6)"></g><text x="16578.5px" y="13207.6px" style="font-family:'Lato-Bold', 'Lato', sans-serif;font-weight:700;font-size:106.667px;fill:#40a9eb;">store, mapping data etc</text></g></g><g><rect x="50018.8" y="27915" width="8387.39" height="3021.33" style="fill:#d6ecf7;"/><g transform="matrix(3.125,0,0,3.125,-1271.75,-11396.2)"><text x="16578.5px" y="12823.6px" style="font-family:'Lato-Bold', 'Lato', sans-serif;font-weight:700;font-size:106.667px;fill:#40a9eb;">Gener<tspan x="16872.3px " y="12823.6px ">a</tspan>lly y<tspan x="17118.6px " y="12823.6px ">o</tspan>u should map domain model to</text><text x="16578.5px" y="12951.6px" style="font-family:'Lato-Bold', 'Lato', sans-serif;font-weight:700;font-size:106.667px;fill:#40a9eb;">presentation as structure ma<tspan x="17945.7px " y="12951.6px ">y</tspan> differ depending</text><text x="16578.5px" y="13079.6px" style="font-family:'Lato-Bold', 'Lato', sans-serif;font-weight:700;font-size:106.667px;fill:#40a9eb;">on the screen. But sometimes y<tspan x="18045.7px " y="13079.6px ">o</tspan>u can use domain</text><text x="16578.5px" y="13207.6px" style="font-family:'Lato-Bold', 'Lato', sans-serif;font-weight:700;font-size:106.667px;fill:#40a9eb;">model when y<tspan x="17234.7px " y="13207.6px ">o</tspan>u see that both structures are</text><g transform="matrix(106.667,0,0,106.667,18752.3,13335.6)"></g><text x="16578.5px" y="13335.6px" style="font-family:'Lato-Bold', 'Lato', sans-serif;font-weight:700;font-size:106.667px;fill:#40a9eb;">e<tspan x="16632.3px " y="13335.6px ">x</tspan>actly the same and won<tspan x="17793.2px " y="13335.6px ">&apos;</tspan>t change in a future.</text></g></g><g><rect x="45876.9" y="39345" width="6662.24" height="3192.44" style="fill:#d4f9ca;"/><g transform="matrix(3.125,0,0,3.125,-5361.52,151.054)"><text x="16578.5px" y="12823.6px" style="font-family:'Lato-Bold', 'Lato', sans-serif;font-weight:700;font-size:106.667px;fill:#61ec3e;">Data store here allows to update</text><text x="16578.5px" y="12951.6px" style="font-family:'Lato-Bold', 'Lato', sans-serif;font-weight:700;font-size:106.667px;fill:#61ec3e;">store simultaneously when we fetch</text><text x="16578.5px" y="13079.6px" style="font-family:'Lato-Bold', 'Lato', sans-serif;font-weight:700;font-size:106.667px;fill:#61ec3e;">data, update data on data source side</text><text x="16578.5px" y="13207.6px" style="font-family:'Lato-Bold', 'Lato', sans-serif;font-weight:700;font-size:106.667px;fill:#61ec3e;">etc. W<tspan x="16881.7px " y="13207.6px ">e</tspan> can also get data from store</text><g transform="matrix(106.667,0,0,106.667,16701,13335.6)"></g><g transform="matrix(106.667,0,0,106.667,16737.2,13335.6)"></g><g transform="matrix(106.667,0,0,106.667,18311.8,13335.6)"></g><text x="16578.5px" y="13335.6px" style="font-family:'Lato-Bold', 'Lato', sans-serif;font-weight:700;font-size:106.667px;fill:#61ec3e;">to ﬁll presentation model structures.</text></g></g><g><rect x="62189.6" y="14541.7" width="7837.12" height="2993.5" style="fill:#faf6d4;"/><g transform="matrix(3.125,0,0,3.125,10845.4,-24743)"><text x="16578.5px" y="12823.6px" style="font-family:'Lato-Bold', 'Lato', sans-serif;font-weight:700;font-size:106.667px;fill:#dfd151;">Domain is represented b<tspan x="17735.3px " y="12823.6px ">y</tspan> Use Case, Inter<tspan x="18524.7px " y="12823.6px ">a</tspan>ctor</text><text x="16578.5px" y="12951.6px" style="font-family:'Lato-Bold', 'Lato', sans-serif;font-weight:700;font-size:106.667px;fill:#dfd151;">or Scenario patterns, and it&apos;s a entry point to</text><text x="16578.5px" y="13079.6px" style="font-family:'Lato-Bold', 'Lato', sans-serif;font-weight:700;font-size:106.667px;fill:#dfd151;">data source. It contains business logic for a</text><g transform="matrix(106.667,0,0,106.667,16822.3,13207.6)"></g><g transform="matrix(106.667,0,0,106.667,16858.4,13207.6)"></g><text x="16578.5px" y="13207.6px" style="font-family:'Lato-Bold', 'Lato', sans-serif;font-weight:700;font-size:106.667px;fill:#dfd151;">speciﬁc user action. W<tspan x="17638.5px " y="13207.6px ">e</tspan> can inject to presenter</text><g transform="matrix(106.667,0,0,106.667,17440.1,13335.6)"></g><text x="16578.5px" y="13335.6px" style="font-family:'Lato-Bold', 'Lato', sans-serif;font-weight:700;font-size:106.667px;fill:#dfd151;">multiple usecases.</text></g></g></g></g></svg>