<?xml version="1.0" encoding="UTF-8" standalone="no"?><!DOCTYPE svg PUBLIC "-//W3C//DTD SVG 1.1//EN" "http://www.w3.org/Graphics/SVG/1.1/DTD/svg11.dtd"><svg width="100%" height="100%" viewBox="0 0 78325 50917" version="1.1" xmlns="http://www.w3.org/2000/svg" xmlns:xlink="http://www.w3.org/1999/xlink" xml:space="preserve" xmlns:serif="http://www.serif.com/" style="fill-rule:evenodd;clip-rule:evenodd;stroke-linecap:square;stroke-linejoin:round;stroke-miterlimit:1.5;"><g id="UI-Layer-Architecture" serif:id="UI Layer Architecture"><g id="Layers"><g id="UI-Layer" serif:id="UI Layer"><rect x="6137.09" y="1442.96" width="72187.8" height="48017.3" style="fill:#ebf7fd;"/><g transform="matrix(5000,0,0,5000,44798.4,6934.78)"></g><text x="39588.4px" y="6934.78px" style="font-family:'Lato-Bold', 'Lato', sans-serif;font-weight:700;font-size:5000px;fill:#d8ebf6;">UI</text></g><g id="Bounded-Context" serif:id="Bounded Context"><rect x="15705.9" y="8611.32" width="52850.2" height="38998.8" style="fill:#f3f2fe;fill-opacity:0.5;stroke:#525a6c;stroke-width:43.9px;stroke-dasharray:217.12,217.12,0,0;"/><g transform="matrix(13.0208,-1.45597e-16,4.62062e-14,13.0208,33912,11349)"><text x="0px" y="0px" style="font-family:'Lato-Bold', 'Lato', sans-serif;font-weight:700;font-size:128px;fill:#91a6c8;fill-opacity:0.5;">BOUNDED</text><text x="665.024px" y="0px" style="font-family:'Lato-Bold', 'Lato', sans-serif;font-weight:700;font-size:128px;fill:#91a6c8;fill-opacity:0.5;">CONTEXT</text></g></g><g id="Product-Feature" serif:id="Product Feature"><path d="M66297.7,45701.8l-48333.5,-0l-0,-32544.2l48333.5,0l0,32544.2Z" style="fill:#eefdfd;stroke:#a1f1f1;stroke-width:43.43px;"/><g transform="matrix(1,2.71372e-17,3.43347e-16,1,0.00823314,-1.81899e-12)"><g transform="matrix(1250,0,0,1250,47928.8,15841.1)"></g><text x="36290.6px" y="15841.1px" style="font-family:'Lato-Bold', 'Lato', sans-serif;font-weight:700;font-size:1250px;fill:#c3f4f4;">PR<tspan x="37860.6px " y="15841.1px ">O</tspan>DUCT FEA<tspan x="44740.6px " y="15841.1px ">T</tspan>URE</text></g></g><g id="Presentation"><rect x="61061.3" y="30806.9" width="3634.46" height="13624.7" style="fill:#e3f2fc;stroke:#284c63;stroke-width:4.17px;stroke-linecap:round;"/><g transform="matrix(8.83696e-17,-1,1,-2.82115e-16,22208.3,104452)"><g transform="matrix(1250,0,0,1250,70255.4,41122.1)"></g><text x="63330.4px" y="41122.1px" style="font-family:'Lato-Bold', 'Lato', sans-serif;font-weight:700;font-size:1250px;fill:#bee1f7;">PRESENTER</text></g></g><g id="Data-Store" serif:id="Data Store"><rect x="61061.3" y="14427.8" width="3634.46" height="13624.7" style="fill:#e8fce3;stroke:#35931e;stroke-width:4.17px;stroke-linecap:round;"/><g transform="matrix(8.83696e-17,-1,1,-2.82115e-16,38382.7,88278)"><g transform="matrix(1250,0,0,1250,70708.5,24947.6)"></g><text x="63330.4px" y="24947.6px" style="font-family:'Lato-Bold', 'Lato', sans-serif;font-weight:700;font-size:1250px;fill:#c9f8be;">D<tspan x="64232.9px 65028.5px 65680.4px " y="24947.6px 24947.6px 24947.6px ">ATA</tspan> ST<tspan x="68174.8px " y="24947.6px ">O</tspan>RE</text></g></g><g id="DI"><g><g><rect x="4748.61" y="49460.5" width="73576.3" height="1455.99" style="fill:#c8d2e6;"/></g><g><g transform="matrix(1,0,0,0.99728,0,137.138)"><text x="37750.8px" y="50420.6px" style="font-family:'Lato-Bold', 'Lato', sans-serif;font-weight:700;font-size:626.705px;fill:#fff;">DEPENDENCY INJECTION</text></g></g></g><g><g><rect x="4748.61" y="0" width="73576.3" height="1455.99" style="fill:#c8d2e6;"/></g><g><g transform="matrix(1,0,0,0.997282,0,2.60979)"><text x="37750.8px" y="960.185px" style="font-family:'Lato-Bold', 'Lato', sans-serif;font-weight:700;font-size:626.705px;fill:#fff;">DEPENDENCY INJECTION</text></g></g></g><g><path d="M4748.7,67.542l1388.46,0l0,49392.8l-1388.46,-0l-0,-49392.8Z" style="fill:#c8d2e6;"/></g></g><g id="External-Internal-User" serif:id="External/Internal User"><rect x="0" y="-0" width="4748.62" height="50916.4" style="fill:#525a6c;"/><g><g transform="matrix(6.10698e-17,-1,0.999999,6.13951e-17,-24546.3,30198.7)"><g transform="matrix(1250,0,0,1250,6611.82,27372.6)"></g><text x="2826.19px" y="27372.6px" style="font-family:'Lato-Bold', 'Lato', sans-serif;font-weight:700;font-size:1250px;fill:#e8eaee;">USERS</text></g></g></g></g><g id="Logic"><g id="Data-Access-Logic" serif:id="Data Access Logic"><path d="M47059.7,32123.6l-10306.7,-0l-0,-5455.91l10306.7,0l-0,5455.91Z" style="fill:#f5fdfd;stroke:#647dd0;stroke-width:20.83px;"/><g transform="matrix(833.333,0,0,833.333,45919.3,29684.5)"></g><text x="37893.5px" y="29684.5px" style="font-family:'Lato-Bold', 'Lato', sans-serif;font-weight:700;font-size:833.333px;fill:#7b9bcd;">D<tspan x="38495.1px 39025.6px 39460.1px " y="29684.5px 29684.5px 29684.5px ">ATA</tspan> A<tspan x="40783.1px " y="29684.5px ">C</tspan>CESS L<tspan x="43830.1px " y="29684.5px ">O</tspan>GIC</text></g><g id="Data-Store-Logic" serif:id="Data Store Logic"><path d="M47059.7,23934l-10306.7,0l-0,-5455.9l10306.7,-0l-0,5455.9Z" style="fill:#f5fdfd;stroke:#647dd0;stroke-width:20.83px;"/><g transform="matrix(3.125,0,0,3.125,-13734.3,-7799.89)"><text x="16502.8px" y="9193.56px" style="font-family:'Lato-Bold', 'Lato', sans-serif;font-weight:700;font-size:266.667px;fill:#7b9bcd;">D<tspan x="16695.4px 16865.1px 17004.2px " y="9193.56px 9193.56px 9193.56px ">ATA</tspan> ST<tspan x="17536.3px " y="9193.56px ">O</tspan>RE A<tspan x="18310.8px " y="9193.56px ">C</tspan>CESS</text><g transform="matrix(266.667,0,0,266.667,18202.9,9577.56)"></g><text x="17407.2px" y="9577.56px" style="font-family:'Lato-Bold', 'Lato', sans-serif;font-weight:700;font-size:266.667px;fill:#7b9bcd;">L<tspan x="17534.4px " y="9577.56px ">O</tspan>GIC</text></g></g><g id="Presentation-Logic" serif:id="Presentation Logic"><path d="M47059.7,40313.2l-10306.7,-0l-0,-5455.91l10306.7,0l-0,5455.91Z" style="fill:#f5fdfd;stroke:#647dd0;stroke-width:20.83px;"/><g transform="matrix(3.125,0,0,3.125,-13734.3,8579.27)"><text x="16826.4px" y="9193.56px" style="font-family:'Lato-Bold', 'Lato', sans-serif;font-weight:700;font-size:266.667px;fill:#7b9bcd;">PRESENT<tspan x="17956.8px 18126.5px " y="9193.56px 9193.56px ">AT</tspan>ION</text><g transform="matrix(266.667,0,0,266.667,18718.1,9577.56)"></g><text x="16892px" y="9577.56px" style="font-family:'Lato-Bold', 'Lato', sans-serif;font-weight:700;font-size:266.667px;fill:#7b9bcd;">A<tspan x="17074.5px " y="9577.56px ">C</tspan>CESS L<tspan x="18049.6px " y="9577.56px ">O</tspan>GIC</text></g></g><g id="UI-Mapper" serif:id="UI Mapper"><path d="M57829.3,31453.2l-7645.09,-0l-0,-4046.96l7645.09,0l0,4046.96Z" style="fill:#f5fdfd;stroke:#647dd0;stroke-width:20.83px;"/><g transform="matrix(3.125,0,0,3.125,-442.63,665.934)"><text x="16917.2px" y="9136.83px" style="font-family:'Lato-Regular', 'Lato', sans-serif;font-size:192px;fill:#7b9bcd;">UI MAPPER</text><g transform="matrix(192,0,0,192,18389,9403.5)"></g><text x="16458.6px" y="9403.5px" style="font-family:'Lato-Regular', 'Lato', sans-serif;font-size:192px;fill:#7b9bcd;">PRESENT<tspan x="17270.2px 17388.1px " y="9403.5px 9403.5px ">AT</tspan>ION T<tspan x="17999.6px " y="9403.5px ">O</tspan> UI</text></g></g><g id="Markup-Logic" serif:id="Markup Logic"><path d="M32392.8,32123.6l-10306.7,-0l-0,-5455.91l10306.7,0l-0,5455.91Z" style="fill:#f5fdfd;stroke:#647dd0;stroke-width:20.83px;"/><g transform="matrix(3.125,0,0,3.125,-28401.3,-244.21)"><text x="17225.6px" y="9193.56px" style="font-family:'Lato-Bold', 'Lato', sans-serif;font-weight:700;font-size:266.667px;fill:#7b9bcd;">MARKUP</text><text x="17126.8px" y="9593.56px" style="font-family:'Lato-Bold', 'Lato', sans-serif;font-weight:700;font-size:266.667px;fill:#7b9bcd;">HANDLING</text><g transform="matrix(266.667,0,0,266.667,18228.6,9993.56)"></g><text x="17432.9px" y="9993.56px" style="font-family:'Lato-Bold', 'Lato', sans-serif;font-weight:700;font-size:266.667px;fill:#7b9bcd;">L<tspan x="17560.1px " y="9993.56px ">O</tspan>GIC</text></g></g></g><g id="Data-Flows" serif:id="Data Flows"><g id="Flows"><path d="M41906.4,34857.3l-0,-2733.67" style="fill:none;stroke:#3be7ec;stroke-width:125px;stroke-linecap:round;"/><path d="M41906.4,26667.7l-0,-2733.67" style="fill:none;stroke:#3be7ec;stroke-width:125px;stroke-linecap:round;"/><path d="M47059.7,37619.3l14001.5,-0" style="fill:none;stroke:#3be7ec;stroke-width:125px;stroke-linecap:round;"/><g><path d="M51703,37681.8c-16.157,-0 -30.889,-6.144 -41.988,-16.221c-11.327,-9.237 -20.512,-23.692 -20.512,-46.28c-0,-34.494 28.005,-62.5 62.5,-62.5c34.495,0 62.5,28.005 62.5,62.5c-0,58.922 -62.5,62.501 -62.5,62.501Zm62.5,-578.198l-0,128.929c-0,34.494 -28.005,62.5 -62.5,62.5c-34.495,-0 -62.5,-28.006 -62.5,-62.5l-0,-128.929c-0,-34.495 28.005,-62.504 62.5,-62.504c34.495,-0 62.5,28.009 62.5,62.504Zm-0,-386.781c-0,34.495 -28.005,62.5 -62.5,62.5c-34.495,0 -62.5,-28.005 -62.5,-62.5l-0,-128.925c-0,-34.494 28.005,-62.5 62.5,-62.5c34.495,0 62.5,28.006 62.5,62.5l-0,128.925Zm-0,-644.629l-0,0.006l-0,128.927c-0,34.495 -28.005,62.5 -62.5,62.5c-34.495,-0 -62.5,-28.005 -62.5,-62.5l-0,-128.927l-0,-0.006c-0,-34.495 28.005,-62.5 62.5,-62.5c34.495,0 62.5,28.005 62.5,62.5Zm-0,-515.703l-0,0.006l-0,128.929c-0,34.495 -28.005,62.5 -62.5,62.5c-34.495,0 -62.5,-28.005 -62.5,-62.5l-0,-128.929l-0,-0.006c-0,-34.495 28.005,-62.5 62.5,-62.5c34.495,-0 62.5,28.005 62.5,62.5Zm-0,-386.766c-0,34.494 -28.005,62.5 -62.5,62.5c-34.495,-0 -62.5,-28.006 -62.5,-62.5l-0,-128.928c-0,-34.494 28.005,-62.5 62.5,-62.5c34.495,0 62.5,28.006 62.5,62.5l-0,128.928Zm-0,-644.626l-0,128.925c-0,34.495 -28.005,62.5 -62.5,62.5c-34.495,0 -62.5,-28.005 -62.5,-62.5l-0,-128.925c-0,-34.494 28.005,-62.5 62.5,-62.5c34.495,0 62.5,28.006 62.5,62.5Zm-0,-515.7l-0,128.924c-0,34.494 -28.005,62.5 -62.5,62.5c-34.495,-0 -62.5,-28.006 -62.5,-62.5l-0,-128.924c-0,-34.494 28.005,-62.501 62.5,-62.501c34.495,0 62.5,28.007 62.5,62.501Zm-0,-515.7l-0,128.927c-0,34.495 -28.005,62.5 -62.5,62.5c-34.495,-0 -62.5,-28.005 -62.5,-62.5l-0,-128.927c-0,-34.495 28.005,-62.5 62.5,-62.5c34.495,-0 62.5,28.005 62.5,62.5Zm-0,-515.696l-0,128.932c-0,34.494 -28.005,62.5 -62.5,62.5c-34.495,-0 -62.5,-28.006 -62.5,-62.5l-0,-128.932c-0,-34.495 28.005,-62.501 62.5,-62.501c34.495,-0 62.5,28.006 62.5,62.501Zm-0,-515.703l-0,128.926c-0,34.494 -28.005,62.5 -62.5,62.5c-34.495,-0 -62.5,-28.006 -62.5,-62.5l-0,-128.926c-0,-34.494 28.005,-62.503 62.5,-62.503c34.495,0 62.5,28.009 62.5,62.503Zm-0,-515.699l-0,128.925c-0,34.495 -28.005,62.5 -62.5,62.5c-34.495,-0 -62.5,-28.005 -62.5,-62.5l-0,-128.925c-0,-34.495 28.005,-62.5 62.5,-62.5c34.495,-0 62.5,28.005 62.5,62.5Zm-0.426,-523.027c0.279,2.043 0.426,4.475 0.426,7.33l-0,128.926c-0,34.495 -28.005,62.5 -62.5,62.5c-34.495,0 -62.5,-28.005 -62.5,-62.5l-0,-128.926c-0,22.593 9.189,37.049 20.52,46.286c-12.602,-11.438 -20.52,-27.945 -20.52,-46.286c-0,-34.495 28.005,-62.498 62.5,-62.498c32.015,0 58.44,24.122 62.074,55.168Z" style="fill:#3be7ec;"/><path d="M56310.6,37681.8c-16.156,-0 -30.889,-6.144 -41.987,-16.221c-11.328,-9.237 -20.513,-23.692 -20.513,-46.28c0,-34.494 28.006,-62.5 62.5,-62.5c34.495,0 62.5,28.005 62.5,62.5c0,58.922 -62.5,62.501 -62.5,62.501Zm62.5,-578.198l0,128.929c0,34.494 -28.005,62.5 -62.5,62.5c-34.494,-0 -62.5,-28.006 -62.5,-62.5l0,-128.929c0,-34.495 28.006,-62.504 62.5,-62.504c34.495,-0 62.5,28.009 62.5,62.504Zm0,-386.781c0,34.495 -28.005,62.5 -62.5,62.5c-34.494,0 -62.5,-28.005 -62.5,-62.5l0,-128.925c0,-34.494 28.006,-62.5 62.5,-62.5c34.495,0 62.5,28.006 62.5,62.5l0,128.925Zm0,-644.629l0,0.006l0,128.927c0,34.495 -28.005,62.5 -62.5,62.5c-34.494,-0 -62.5,-28.005 -62.5,-62.5l0,-128.927l0,-0.006c0,-34.495 28.006,-62.5 62.5,-62.5c34.495,0 62.5,28.005 62.5,62.5Zm0,-515.703l0,0.006l0,128.929c0,34.495 -28.005,62.5 -62.5,62.5c-34.494,0 -62.5,-28.005 -62.5,-62.5l0,-128.929l0,-0.006c0,-34.495 28.006,-62.5 62.5,-62.5c34.495,-0 62.5,28.005 62.5,62.5Zm0,-386.766c0,34.494 -28.005,62.5 -62.5,62.5c-34.494,-0 -62.5,-28.006 -62.5,-62.5l0,-128.928c0,-34.494 28.006,-62.5 62.5,-62.5c34.495,0 62.5,28.006 62.5,62.5l0,128.928Zm0,-644.626l0,128.925c0,34.495 -28.005,62.5 -62.5,62.5c-34.494,0 -62.5,-28.005 -62.5,-62.5l0,-128.925c0,-34.494 28.006,-62.5 62.5,-62.5c34.495,0 62.5,28.006 62.5,62.5Zm0,-515.7l0,128.924c0,34.494 -28.005,62.5 -62.5,62.5c-34.494,-0 -62.5,-28.006 -62.5,-62.5l0,-128.924c0,-34.494 28.006,-62.501 62.5,-62.501c34.495,0 62.5,28.007 62.5,62.501Zm0,-515.7l0,128.927c0,34.495 -28.005,62.5 -62.5,62.5c-34.494,-0 -62.5,-28.005 -62.5,-62.5l0,-128.927c0,-34.495 28.006,-62.5 62.5,-62.5c34.495,-0 62.5,28.005 62.5,62.5Zm0,-515.696l0,128.932c0,34.494 -28.005,62.5 -62.5,62.5c-34.494,-0 -62.5,-28.006 -62.5,-62.5l0,-128.932c0,-34.495 28.006,-62.501 62.5,-62.501c34.495,-0 62.5,28.006 62.5,62.501Zm0,-515.703l0,128.926c0,34.494 -28.005,62.5 -62.5,62.5c-34.494,-0 -62.5,-28.006 -62.5,-62.5l0,-128.926c0,-34.494 28.006,-62.503 62.5,-62.503c34.495,0 62.5,28.009 62.5,62.503Zm0,-515.699l0,128.925c0,34.495 -28.005,62.5 -62.5,62.5c-34.494,-0 -62.5,-28.005 -62.5,-62.5l0,-128.925c0,-34.495 28.006,-62.5 62.5,-62.5c34.495,-0 62.5,28.005 62.5,62.5Zm-0.426,-523.027c0.28,2.043 0.426,4.475 0.426,7.33l0,128.926c0,34.495 -28.005,62.5 -62.5,62.5c-34.494,0 -62.5,-28.005 -62.5,-62.5l0,-128.926c0,22.593 9.189,37.049 20.521,46.286c-12.602,-11.438 -20.521,-27.945 -20.521,-46.286c0,-34.495 28.006,-62.498 62.5,-62.498c32.015,0 58.441,24.122 62.074,55.168Z" style="fill:#3be7ec;"/></g><path d="M47059.7,21240.1l14001.5,0" style="fill:none;stroke:#3be7ec;stroke-width:125px;stroke-linecap:round;"/><g><circle cx="47059.7" cy="21206" r="486.926" style="fill:#e3fbfc;"/><path d="M47059.7,20556.8c358.322,-0 649.235,290.912 649.235,649.235c-0,358.322 -290.913,649.235 -649.235,649.235c-358.323,-0 -649.235,-290.913 -649.235,-649.235c-0,-358.323 290.912,-649.235 649.235,-649.235Zm-0,162.308c268.742,0 486.926,218.185 486.926,486.927c-0,268.742 -218.184,486.926 -486.926,486.926c-268.742,-0 -486.927,-218.184 -486.927,-486.926c0,-268.742 218.185,-486.927 486.927,-486.927Z" style="fill:#3be7ec;"/><circle cx="47059.7" cy="21206" r="348.223" style="fill:#3be7ec;"/></g><g><circle cx="41906.4" cy="23934" r="486.926" style="fill:#e3fbfc;"/><path d="M41906.4,23284.8c358.322,0 649.235,290.913 649.235,649.235c-0,358.323 -290.913,649.235 -649.235,649.235c-358.323,0 -649.235,-290.912 -649.235,-649.235c-0,-358.322 290.912,-649.235 649.235,-649.235Zm-0,162.309c268.742,0 486.926,218.185 486.926,486.926c-0,268.742 -218.184,486.927 -486.926,486.927c-268.742,-0 -486.927,-218.185 -486.927,-486.927c0,-268.741 218.185,-486.926 486.927,-486.926Z" style="fill:#3be7ec;"/><circle cx="41906.4" cy="23934" r="348.223" style="fill:#3be7ec;"/></g><g><circle cx="41906.4" cy="26667.7" r="486.926" style="fill:#e3fbfc;"/><path d="M41906.4,26018.4c358.322,0 649.235,290.912 649.235,649.235c-0,358.323 -290.913,649.235 -649.235,649.235c-358.323,0 -649.235,-290.912 -649.235,-649.235c-0,-358.323 290.912,-649.235 649.235,-649.235Zm-0,162.309c268.742,-0 486.926,218.184 486.926,486.926c-0,268.742 -218.184,486.926 -486.926,486.926c-268.742,0 -486.927,-218.184 -486.927,-486.926c0,-268.742 218.185,-486.926 486.927,-486.926Z" style="fill:#3be7ec;"/><circle cx="41906.4" cy="26667.7" r="348.223" style="fill:#3be7ec;"/></g><g><circle cx="41906.4" cy="32123.6" r="486.926" style="fill:#e3fbfc;"/><path d="M41906.4,31474.3c358.322,-0 649.235,290.912 649.235,649.235c-0,358.322 -290.913,649.235 -649.235,649.235c-358.323,-0 -649.235,-290.913 -649.235,-649.235c-0,-358.323 290.912,-649.235 649.235,-649.235Zm-0,162.308c268.742,0 486.926,218.185 486.926,486.927c-0,268.742 -218.184,486.926 -486.926,486.926c-268.742,-0 -486.927,-218.184 -486.927,-486.926c0,-268.742 218.185,-486.927 486.927,-486.927Z" style="fill:#3be7ec;"/><circle cx="41906.4" cy="32123.6" r="348.223" style="fill:#3be7ec;"/></g><g><circle cx="41906.4" cy="34857.3" r="486.926" style="fill:#e3fbfc;"/><path d="M41906.4,34208c358.322,0 649.235,290.913 649.235,649.235c-0,358.323 -290.913,649.235 -649.235,649.235c-358.323,0 -649.235,-290.912 -649.235,-649.235c-0,-358.322 290.912,-649.235 649.235,-649.235Zm-0,162.309c268.742,-0 486.926,218.184 486.926,486.926c-0,268.742 -218.184,486.926 -486.926,486.926c-268.742,0 -486.927,-218.184 -486.927,-486.926c0,-268.742 218.185,-486.926 486.927,-486.926Z" style="fill:#3be7ec;"/><circle cx="41906.4" cy="34857.3" r="348.223" style="fill:#3be7ec;"/></g><g><circle cx="47059.7" cy="37585.2" r="486.926" style="fill:#e3fbfc;"/><path d="M47059.7,36936c358.322,-0 649.235,290.912 649.235,649.235c-0,358.323 -290.913,649.235 -649.235,649.235c-358.323,0 -649.235,-290.912 -649.235,-649.235c-0,-358.323 290.912,-649.235 649.235,-649.235Zm-0,162.309c268.742,-0 486.926,218.184 486.926,486.926c-0,268.742 -218.184,486.926 -486.926,486.926c-268.742,0 -486.927,-218.184 -486.927,-486.926c0,-268.742 218.185,-486.926 486.927,-486.926Z" style="fill:#3be7ec;"/><circle cx="47059.7" cy="37585.2" r="348.223" style="fill:#3be7ec;"/></g><g><path d="M32392.8,29429.7l4836.68,-0" style="fill:none;stroke:#3be7ec;stroke-width:125px;stroke-linecap:round;"/><g><circle cx="32392.8" cy="29429.7" r="486.926" style="fill:#e3fbfc;"/><path d="M32392.8,28780.5c358.322,-0 649.235,290.912 649.235,649.235c-0,358.322 -290.913,649.235 -649.235,649.235c-358.323,-0 -649.235,-290.913 -649.235,-649.235c-0,-358.323 290.912,-649.235 649.235,-649.235Zm-0,162.308c268.742,0 486.926,218.185 486.926,486.927c-0,268.742 -218.184,486.926 -486.926,486.926c-268.742,-0 -486.927,-218.184 -486.927,-486.926c0,-268.742 218.185,-486.927 486.927,-486.927Z" style="fill:#3be7ec;"/><circle cx="32392.8" cy="29429.7" r="348.223" style="fill:#3be7ec;"/></g><g><circle cx="36753" cy="29429.7" r="486.926" style="fill:#e3fbfc;"/><path d="M36753,28780.5c358.322,-0 649.235,290.912 649.235,649.235c-0,358.322 -290.913,649.235 -649.235,649.235c-358.323,-0 -649.235,-290.913 -649.235,-649.235c-0,-358.323 290.912,-649.235 649.235,-649.235Zm-0,162.308c268.742,0 486.926,218.185 486.926,486.927c0,268.742 -218.184,486.926 -486.926,486.926c-268.742,-0 -486.927,-218.184 -486.927,-486.926c0,-268.742 218.185,-486.927 486.927,-486.927Z" style="fill:#3be7ec;"/><circle cx="36753" cy="29429.7" r="348.223" style="fill:#3be7ec;"/></g></g><path d="M64695.7,21240.1l13629.2,0" style="fill:none;stroke:#61ec3e;stroke-width:125px;stroke-linecap:round;"/><path d="M64695.7,37619.3l13629.2,-0" style="fill:none;stroke:#40a9eb;stroke-width:125px;stroke-linecap:round;"/><g><circle cx="64695.7" cy="21240.1" r="486.926" style="fill:#e8fce3;"/><path d="M64695.7,20590.9c358.322,0 649.235,290.913 649.235,649.235c-0,358.323 -290.913,649.235 -649.235,649.235c-358.323,0 -649.235,-290.912 -649.235,-649.235c-0,-358.322 290.912,-649.235 649.235,-649.235Zm-0,162.309c268.742,0 486.926,218.184 486.926,486.926c0,268.742 -218.184,486.927 -486.926,486.927c-268.742,-0 -486.927,-218.185 -486.927,-486.927c0,-268.742 218.185,-486.926 486.927,-486.926Z" style="fill:#61ec3e;"/><circle cx="64695.7" cy="21240.1" r="348.223" style="fill:#61ec3e;"/></g><g><circle cx="61061.3" cy="21240.1" r="486.926" style="fill:#e8fce3;"/><path d="M61061.3,20590.9c358.322,0 649.235,290.913 649.235,649.235c-0,358.323 -290.913,649.235 -649.235,649.235c-358.323,0 -649.235,-290.912 -649.235,-649.235c-0,-358.322 290.912,-649.235 649.235,-649.235Zm-0,162.309c268.742,0 486.926,218.184 486.926,486.926c-0,268.742 -218.184,486.927 -486.926,486.927c-268.742,-0 -486.927,-218.185 -486.927,-486.927c0,-268.742 218.185,-486.926 486.927,-486.926Z" style="fill:#61ec3e;"/><circle cx="61061.3" cy="21240.1" r="348.223" style="fill:#61ec3e;"/></g><g><circle cx="64695.7" cy="37619.3" r="486.926" style="fill:#e3f2fc;"/><path d="M64695.7,36970.1c358.322,-0 649.235,290.912 649.235,649.235c-0,358.322 -290.913,649.235 -649.235,649.235c-358.323,-0 -649.235,-290.913 -649.235,-649.235c-0,-358.323 290.912,-649.235 649.235,-649.235Zm-0,162.308c268.742,0 486.926,218.185 486.926,486.927c0,268.742 -218.184,486.926 -486.926,486.926c-268.742,0 -486.927,-218.184 -486.927,-486.926c0,-268.742 218.185,-486.927 486.927,-486.927Z" style="fill:#40a9eb;"/><circle cx="64695.7" cy="37619.3" r="348.223" style="fill:#40a9eb;"/></g><g><circle cx="61061.3" cy="37619.3" r="486.926" style="fill:#e3f2fc;"/><path d="M61061.3,36970.1c358.322,-0 649.235,290.912 649.235,649.235c-0,358.322 -290.913,649.235 -649.235,649.235c-358.323,-0 -649.235,-290.913 -649.235,-649.235c-0,-358.323 290.912,-649.235 649.235,-649.235Zm-0,162.308c268.742,0 486.926,218.185 486.926,486.927c-0,268.742 -218.184,486.926 -486.926,486.926c-268.742,0 -486.927,-218.184 -486.927,-486.926c0,-268.742 218.185,-486.927 486.927,-486.927Z" style="fill:#40a9eb;"/><circle cx="61061.3" cy="37619.3" r="348.223" style="fill:#40a9eb;"/></g><g><path d="M22086,29429.7l-8152.88,-0" style="fill:none;stroke:#7689ac;stroke-width:125px;stroke-linecap:round;"/><g><circle cx="22086" cy="29429.7" r="486.926" style="fill:#f1f7f0;"/><path d="M22086,28780.5c358.322,-0 649.235,290.912 649.235,649.235c-0,358.322 -290.913,649.235 -649.235,649.235c-358.323,-0 -649.235,-290.913 -649.235,-649.235c-0,-358.323 290.912,-649.235 649.235,-649.235Zm-0,162.308c268.742,0 486.926,218.185 486.926,486.927c0,268.742 -218.184,486.926 -486.926,486.926c-268.742,-0 -486.926,-218.184 -486.926,-486.926c-0,-268.742 218.184,-486.927 486.926,-486.927Z" style="fill:#7689ac;"/><circle cx="22086" cy="29429.7" r="348.223" style="fill:#7689ac;"/></g></g></g><g id="Flow-Descriptions" serif:id="Flow Descriptions"><g><path d="M43613.1,25984.1l-154.537,0l-0,-1132.08l-143.499,-0l220.767,-370.093l220.767,370.093l-143.498,-0l-0,1132.08Z" style="fill:#72f1d0;"/><path d="M40415.1,24481.9l154.537,0l-0,1132.08l143.498,0l-220.767,370.092l-220.767,-370.092l143.499,0l-0,-1132.08Z" style="fill:#72f1d0;"/><g transform="matrix(6.12323e-17,-1,1,6.12323e-17,-75097.2,80971.5)"><g transform="matrix(333.333,0,0,333.333,56678.8,118108)"></g><text x="54745.1px" y="118108px" style="font-family:'Lato-Bold', 'Lato', sans-serif;font-weight:700;font-size:333.333px;fill:#3be7ec;">INPUT D<tspan x="56056.1px 56268.3px 56442.1px " y="118108px 118108px 118108px ">ATA</tspan></text></g><g transform="matrix(6.12323e-17,-1,1,6.12323e-17,-76829.2,78997.1)"><g transform="matrix(333.333,0,0,333.333,54573,117987)"></g><text x="52891.9px" y="117987px" style="font-family:'Lato-Bold', 'Lato', sans-serif;font-weight:700;font-size:333.333px;fill:#3be7ec;">DS MODEL</text></g></g><g><path d="M35309,28254.2l0,154.537l-1132.08,-0l-0,143.498l-370.093,-220.767l370.093,-220.767l-0,143.499l1132.08,-0Z" style="fill:#72f1d0;"/><path d="M33806.8,30515.4l0,-154.537l1132.08,0l0,-143.499l370.092,220.768l-370.092,220.767l0,-143.499l-1132.08,0Z" style="fill:#72f1d0;"/><g transform="matrix(333.333,0,0,333.333,35498.2,30021.5)"></g><text x="33564.5px" y="30021.5px" style="font-family:'Lato-Bold', 'Lato', sans-serif;font-weight:700;font-size:333.333px;fill:#3be7ec;">INPUT D<tspan x="34875.5px 35087.7px 35261.5px " y="30021.5px 30021.5px 30021.5px ">ATA</tspan></text><g transform="matrix(333.333,0,0,333.333,35189.2,29126.4)"></g><text x="33914.2px" y="29126.4px" style="font-family:'Lato-Bold', 'Lato', sans-serif;font-weight:700;font-size:333.333px;fill:#3be7ec;">UI D<tspan x="34566.5px 34778.7px 34952.5px " y="29126.4px 29126.4px 29126.4px ">ATA</tspan></text></g><g><path d="M53309.4,22264l0,-154.537l1132.08,0l-0,-143.498l370.092,220.767l-370.092,220.767l-0,-143.499l-1132.08,0Z" style="fill:#72f1d0;"/><path d="M54811.6,20154.2l0,154.537l-1132.08,0l0,143.499l-370.092,-220.767l370.092,-220.767l0,143.498l1132.08,0Z" style="fill:#72f1d0;"/><g transform="matrix(333.333,0,0,333.333,55574.7,20978.2)"></g><text x="52354.1px" y="20978.2px" style="font-family:'Lato-Bold', 'Lato', sans-serif;font-weight:700;font-size:333.333px;fill:#3be7ec;">D<tspan x="52594.7px 52806.9px 52980.7px " y="20978.2px 20978.2px 20978.2px ">ATA</tspan> ST<tspan x="53645.9px " y="20978.2px ">O</tspan>RE MODEL</text><g transform="matrix(333.333,0,0,333.333,54947.1,21800.1)"></g><text x="53013.4px" y="21800.1px" style="font-family:'Lato-Bold', 'Lato', sans-serif;font-weight:700;font-size:333.333px;fill:#3be7ec;">INPUT D<tspan x="54324.4px 54536.6px 54710.4px " y="21800.1px 21800.1px 21800.1px ">ATA</tspan></text></g><g><path d="M53255.7,38747.6l0,-154.537l1132.08,0l-0,-143.498l370.092,220.767l-370.092,220.767l-0,-143.499l-1132.08,0Z" style="fill:#72f1d0;"/><path d="M54757.9,36450.3l0,154.537l-1132.08,0l0,143.499l-370.092,-220.767l370.092,-220.767l0,143.498l1132.08,0Z" style="fill:#72f1d0;"/><g transform="matrix(333.333,0,0,333.333,55835.2,37333.9)"></g><text x="52135.3px" y="37333.9px" style="font-family:'Lato-Bold', 'Lato', sans-serif;font-weight:700;font-size:333.333px;fill:#3be7ec;">PRESENT<tspan x="53548.3px 53760.5px " y="37333.9px 37333.9px ">AT</tspan>ION MODEL</text><g transform="matrix(333.333,0,0,333.333,55855.7,38155.9)"></g><text x="52135.3px" y="38155.9px" style="font-family:'Lato-Bold', 'Lato', sans-serif;font-weight:700;font-size:333.333px;fill:#3be7ec;">REQUEST OBJECT D<tspan x="55233px 55445.2px 55619px " y="38155.9px 38155.9px 38155.9px ">ATA</tspan></text></g><g><path d="M57405.1,35276.2l-154.537,0l0,-1132.08l-143.498,-0l220.767,-370.093l220.767,370.093l-143.499,-0l0,1132.08Z" style="fill:#72f1d0;"/><path d="M50616.4,33774l154.537,0l0,1132.08l143.499,0l-220.767,370.092l-220.767,-370.092l143.498,0l0,-1132.08Z" style="fill:#72f1d0;"/></g><g><path d="M43613.1,34232l-154.537,-0l-0,-1132.08l-143.499,-0l220.767,-370.092l220.767,370.092l-143.498,-0l-0,1132.08Z" style="fill:#72f1d0;"/><path d="M40415.1,32729.9l154.537,-0l-0,1132.08l143.498,-0l-220.767,370.092l-220.767,-370.092l143.499,-0l-0,-1132.08Z" style="fill:#72f1d0;"/><g transform="matrix(6.12323e-17,1,-1,6.12323e-17,63432.6,-102235)"><g transform="matrix(333.333,0,0,333.333,136691,20672.7)"></g><text x="134642px" y="20672.7px" style="font-family:'Lato-Bold', 'Lato', sans-serif;font-weight:700;font-size:333.333px;fill:#3be7ec;">PRES MODEL</text></g><g transform="matrix(6.12323e-17,1,-1,6.12323e-17,61945.4,-100016)"><g transform="matrix(333.333,0,0,333.333,134193,21038.7)"></g><text x="132788px" y="21038.7px" style="font-family:'Lato-Bold', 'Lato', sans-serif;font-weight:700;font-size:333.333px;fill:#3be7ec;">R<tspan x="132999px " y="21038.7px ">O</tspan> D<tspan x="133570px 133782px 133956px " y="21038.7px 21038.7px 21038.7px ">ATA</tspan></text></g></g></g></g><g id="Hints"><g><rect x="10639.2" y="14607.5" width="10133.5" height="4546.29" style="fill:#e5f3fa;"/><g transform="matrix(3.125,0,0,3.125,-40599.6,-24283.2)"><g transform="matrix(106.667,0,0,106.667,17469.1,12823.6)"></g><g transform="matrix(106.667,0,0,106.667,17505.2,12823.6)"></g><text x="16578.5px" y="12823.6px" style="font-family:'Lato-Bold', 'Lato', sans-serif;font-weight:700;font-size:106.667px;fill:#7ec5f0;">In UI la<tspan x="16907.8px 16963px " y="12823.6px 12823.6px ">ye</tspan>r y<tspan x="17139.3px " y="12823.6px ">o</tspan>u can ﬁnd all code / logic related to an<tspan x="18968.5px " y="12823.6px ">y</tspan> used</text><g transform="matrix(106.667,0,0,106.667,18860.2,12951.6)"></g><g transform="matrix(106.667,0,0,106.667,18896.4,12951.6)"></g><text x="16578.5px" y="12951.6px" style="font-family:'Lato-Bold', 'Lato', sans-serif;font-weight:700;font-size:106.667px;fill:#7ec5f0;">fr<tspan x="16657.9px " y="12951.6px ">a</tspan>mework lik<tspan x="17242.1px " y="12951.6px ">e</tspan> Ne<tspan x="17454.1px " y="12951.6px ">x</tspan>t.js or React.js. Here y<tspan x="18530.4px " y="12951.6px ">o</tspan>u can ﬁnd an<tspan x="19180.9px " y="12951.6px ">y</tspan> use</text><g transform="matrix(106.667,0,0,106.667,17281.3,13079.6)"></g><g transform="matrix(106.667,0,0,106.667,17317.4,13079.6)"></g><text x="16578.5px" y="13079.6px" style="font-family:'Lato-Bold', 'Lato', sans-serif;font-weight:700;font-size:106.667px;fill:#7ec5f0;">of cli tools, conﬁgur<tspan x="17503.2px " y="13079.6px ">a</tspan>tions, HTML markup, styles etc.</text><text x="16578.5px" y="13207.6px" style="font-family:'Lato-Bold', 'Lato', sans-serif;font-weight:700;font-size:106.667px;fill:#7ec5f0;">Gener<tspan x="16872.3px " y="13207.6px ">a</tspan>lly e<tspan x="17118.7px 17173.9px " y="13207.6px 13207.6px ">ve</tspan>rything what is not related to data fetching or</text><g transform="matrix(106.667,0,0,106.667,17667.2,13335.6)"></g><g transform="matrix(106.667,0,0,106.667,17703.3,13335.6)"></g><text x="16578.5px" y="13335.6px" style="font-family:'Lato-Bold', 'Lato', sans-serif;font-weight:700;font-size:106.667px;fill:#7ec5f0;">business logic. Y<tspan x="17337.4px " y="13335.6px ">o</tspan>u can ﬁnd here also setup for na<tspan x="18887.9px " y="13335.6px ">v</tspan>igation or</text><text x="16578.5px" y="13463.6px" style="font-family:'Lato-Bold', 'Lato', sans-serif;font-weight:700;font-size:106.667px;fill:#7ec5f0;">themes used within the app. An<tspan x="18057.5px " y="13463.6px ">y</tspan> tests related setup can be</text><g transform="matrix(106.667,0,0,106.667,17363.9,13591.6)"></g><text x="16578.5px" y="13591.6px" style="font-family:'Lato-Bold', 'Lato', sans-serif;font-weight:700;font-size:106.667px;fill:#7ec5f0;">also stored here.</text></g></g><g><rect x="63489.3" y="10884.5" width="10133.5" height="4546.29" style="fill:#d4f9ca;"/><g transform="matrix(3.125,0,0,3.125,12210.2,-28231.6)"><text x="16578.5px" y="12823.6px" style="font-family:'Lato-Bold', 'Lato', sans-serif;font-weight:700;font-size:106.667px;fill:#61ec3e;">Data store is a la<tspan x="17356.9px 17412px " y="12823.6px 12823.6px ">ye</tspan>r which contains of store and data which is</text><text x="16578.5px" y="12951.6px" style="font-family:'Lato-Bold', 'Lato', sans-serif;font-weight:700;font-size:106.667px;fill:#61ec3e;">stored there. It&apos;s also visible via presenter so y<tspan x="18754.6px " y="12951.6px ">o</tspan>u can access</text><text x="16578.5px" y="13079.6px" style="font-family:'Lato-Bold', 'Lato', sans-serif;font-weight:700;font-size:106.667px;fill:#61ec3e;">it either on presentation la<tspan x="17837.4px 17892.5px " y="13079.6px 13079.6px ">ye</tspan>r or on ui la<tspan x="18473.3px 18528.5px " y="13079.6px 13079.6px ">ye</tspan>r if for e<tspan x="18952.5px " y="13079.6px ">x</tspan>ample</text><text x="16578.5px" y="13207.6px" style="font-family:'Lato-Bold', 'Lato', sans-serif;font-weight:700;font-size:106.667px;fill:#61ec3e;">y<tspan x="16633.7px " y="13207.6px ">o</tspan>u would lik<tspan x="17204.9px " y="13207.6px ">e</tspan> to just perform oper<tspan x="18235.8px " y="13207.6px ">a</tspan>tions on store without</text><text x="16578.5px" y="13335.6px" style="font-family:'Lato-Bold', 'Lato', sans-serif;font-weight:700;font-size:106.667px;fill:#61ec3e;">an<tspan x="16693.1px " y="13335.6px ">y</tspan> action on data source. There are few variants of</text><text x="16578.5px" y="13463.6px" style="font-family:'Lato-Bold', 'Lato', sans-serif;font-weight:700;font-size:106.667px;fill:#61ec3e;">approach to Data store la<tspan x="17775.5px 17830.6px " y="13463.6px 13463.6px ">ye</tspan>r isolation here but this one is</text><text x="16578.5px" y="13591.6px" style="font-family:'Lato-Bold', 'Lato', sans-serif;font-weight:700;font-size:106.667px;fill:#61ec3e;">probably most con<tspan x="17456.1px 17511.2px " y="13591.6px 13591.6px ">ve</tspan>nient for most de<tspan x="18374.5px 18429.6px " y="13591.6px 13591.6px ">ve</tspan>lopers as it&apos;s a &apos;in the</text><g transform="matrix(106.667,0,0,106.667,17357.9,13719.6)"></g><text x="16578.5px" y="13719.6px" style="font-family:'Lato-Bold', 'Lato', sans-serif;font-weight:700;font-size:106.667px;fill:#61ec3e;">middle<tspan x="16899.7px " y="13719.6px ">&apos;</tspan> solution.</text></g></g><g><rect x="51768.3" y="42520.6" width="10133.5" height="4546.29" style="fill:#d2ebfb;"/><g transform="matrix(3.125,0,0,3.125,529.509,3403.12)"><g transform="matrix(106.667,0,0,106.667,18020.7,12823.6)"></g><g transform="matrix(106.667,0,0,106.667,18056.9,12823.6)"></g><text x="16578.5px" y="12823.6px" style="font-family:'Lato-Bold', 'Lato', sans-serif;font-weight:700;font-size:106.667px;fill:#40a9eb;">Presentation la<tspan x="17302.1px 17357.2px " y="12823.6px 12823.6px ">ye</tspan>r access is deﬁned within abstr<tspan x="18855.8px " y="12823.6px ">a</tspan>ction of</text><text x="16578.5px" y="12951.6px" style="font-family:'Lato-Bold', 'Lato', sans-serif;font-weight:700;font-size:106.667px;fill:#40a9eb;">presenter<tspan x="17038.3px " y="12951.6px ">.</tspan> It contains whole fr<tspan x="17995.9px " y="12951.6px ">a</tspan>mework of communication</text><g transform="matrix(106.667,0,0,106.667,17695,13079.6)"></g><g transform="matrix(106.667,0,0,106.667,17731.2,13079.6)"></g><text x="16578.5px" y="13079.6px" style="font-family:'Lato-Bold', 'Lato', sans-serif;font-weight:700;font-size:106.667px;fill:#40a9eb;">and potential output deﬁnition. Y<tspan x="18146px " y="13079.6px ">o</tspan>u can communicate with</text><text x="16578.5px" y="13207.6px" style="font-family:'Lato-Bold', 'Lato', sans-serif;font-weight:700;font-size:106.667px;fill:#40a9eb;">presentation via Request Objects. If y<tspan x="18350.7px " y="13207.6px ">o</tspan>u need data from data</text><text x="16578.5px" y="13335.6px" style="font-family:'Lato-Bold', 'Lato', sans-serif;font-weight:700;font-size:106.667px;fill:#40a9eb;">source y<tspan x="16973.6px " y="13335.6px ">o</tspan>u need to ask presenter for it. Presenter returns</text><text x="16578.5px" y="13463.6px" style="font-family:'Lato-Bold', 'Lato', sans-serif;font-weight:700;font-size:106.667px;fill:#40a9eb;">presentation model which y<tspan x="17891.8px " y="13463.6px ">o</tspan>u can use on markup.</text><text x="16578.5px" y="13591.6px" style="font-family:'Lato-Bold', 'Lato', sans-serif;font-weight:700;font-size:106.667px;fill:#40a9eb;">Sometimes for special cases y<tspan x="17971.4px " y="13591.6px ">o</tspan>u ma<tspan x="18257px " y="13591.6px ">y</tspan> use mapper if y<tspan x="19048.8px " y="13591.6px ">o</tspan>u need</text><g transform="matrix(106.667,0,0,106.667,17060.9,13719.6)"></g><g transform="matrix(106.667,0,0,106.667,17097,13719.6)"></g><g transform="matrix(106.667,0,0,106.667,18067.9,13719.6)"></g><g transform="matrix(106.667,0,0,106.667,18104,13719.6)"></g><g transform="matrix(106.667,0,0,106.667,19069,13719.6)"></g><text x="16578.5px" y="13719.6px" style="font-family:'Lato-Bold', 'Lato', sans-serif;font-weight:700;font-size:106.667px;fill:#40a9eb;">for a speciﬁc screen updated deﬁnition of that model</text></g></g><g><rect x="48326.5" y="22728.5" width="7802.61" height="3500.57" style="fill:#ddf8f8;"/><g transform="matrix(3.125,0,0,3.125,-3130.41,-16284.6)"><text x="16578.5px" y="12823.6px" style="font-family:'Lato-Bold', 'Lato', sans-serif;font-weight:700;font-size:106.667px;fill:#3be7ec;">Data store access logic is a gatewa<tspan x="18195.2px " y="12823.6px ">y</tspan> for an<tspan x="18549.5px " y="12823.6px ">y</tspan></text><text x="16578.5px" y="12951.6px" style="font-family:'Lato-Bold', 'Lato', sans-serif;font-weight:700;font-size:106.667px;fill:#3be7ec;">data, it contains all of the logic required to get</text><text x="16578.5px" y="13079.6px" style="font-family:'Lato-Bold', 'Lato', sans-serif;font-weight:700;font-size:106.667px;fill:#3be7ec;">data and potentially map it. It&apos;s also a form of</text><text x="16578.5px" y="13207.6px" style="font-family:'Lato-Bold', 'Lato', sans-serif;font-weight:700;font-size:106.667px;fill:#3be7ec;">isolation between an<tspan x="17564.8px " y="13207.6px ">y</tspan> markup related logic and</text><g transform="matrix(106.667,0,0,106.667,18720,13335.6)"></g><text x="16578.5px" y="13335.6px" style="font-family:'Lato-Bold', 'Lato', sans-serif;font-weight:700;font-size:106.667px;fill:#3be7ec;">strictly logic related to data based oper<tspan x="18426.1px " y="13335.6px ">a</tspan>tions</text></g></g><g><rect x="25871.2" y="33003" width="7802.61" height="3500.57" style="fill:#ddf8f8;"/><g transform="matrix(3.125,0,0,3.125,-25585.7,-5845.64)"><text x="16578.5px" y="12823.6px" style="font-family:'Lato-Bold', 'Lato', sans-serif;font-weight:700;font-size:106.667px;fill:#3be7ec;">Markup logic contains classic logic related to</text><text x="16578.5px" y="12951.6px" style="font-family:'Lato-Bold', 'Lato', sans-serif;font-weight:700;font-size:106.667px;fill:#3be7ec;">handling user actions performed on markup,</text><text x="16578.5px" y="13079.6px" style="font-family:'Lato-Bold', 'Lato', sans-serif;font-weight:700;font-size:106.667px;fill:#3be7ec;">lik<tspan x="16692px " y="13079.6px ">e</tspan> handling clicks, lifecy<tspan x="17769.6px " y="13079.6px ">c</tspan>le of components,</text><g transform="matrix(106.667,0,0,106.667,17275.2,13207.6)"></g><text x="16578.5px" y="13207.6px" style="font-family:'Lato-Bold', 'Lato', sans-serif;font-weight:700;font-size:106.667px;fill:#3be7ec;">na<tspan x="16693.1px " y="13207.6px ">v</tspan>igation etc.</text></g></g></g><g id="Frameworks"><g><g transform="matrix(2500,0,0,2500,13174,27210.6)"></g><text x="9341.49px" y="27210.6px" style="font-family:'Lato-Regular', 'Lato', sans-serif;font-size:2500px;fill:#3f4e6c;">&lt;/&gt;</text><g transform="matrix(833.333,0,0,833.333,14381.4,28481.6)"></g><text x="8410.94px" y="28481.6px" style="font-family:'Lato-Bold', 'Lato', sans-serif;font-weight:700;font-size:833.333px;fill:#3f4e6c;">FRAMEWORKS</text></g><g><g transform="matrix(833.333,0,0,833.333,12032.1,33594.6)"></g><text x="10592.1px" y="33594.6px" style="font-family:'Lato-Bold', 'Lato', sans-serif;font-weight:700;font-size:833.333px;fill:#3f4e6c;">SSR</text><g><rect x="10050.9" y="31773" width="2700.37" height="826.987" style="fill:#3f4e6c;"/><g><circle cx="12101.6" cy="32186.5" r="92.824" style="fill:#f2fdef;"/><circle cx="12390.9" cy="32186.5" r="92.824" style="fill:#f2fdef;"/><circle cx="11812.2" cy="32186.5" r="92.824" style="fill:#f2fdef;"/><path d="M11287.8,32140.1l0,92.824c0,25.615 -20.796,46.411 -46.412,46.411l-940.718,0c-25.616,0 -46.412,-20.796 -46.412,-46.411l-0,-92.824c-0,-25.615 20.796,-46.412 46.412,-46.412l940.718,0c25.616,0 46.412,20.797 46.412,46.412Z" style="fill:#f2fdef;"/></g><rect x="10050.9" y="30796.7" width="2700.37" height="826.987" style="fill:#3f4e6c;"/><g><circle cx="12101.6" cy="31210.2" r="92.824" style="fill:#f2fdef;"/><circle cx="12390.9" cy="31210.2" r="92.824" style="fill:#f2fdef;"/><circle cx="11812.2" cy="31210.2" r="92.824" style="fill:#f2fdef;"/><path d="M11287.8,31163.8l0,92.824c0,25.615 -20.796,46.411 -46.412,46.411l-940.718,0c-25.616,0 -46.412,-20.796 -46.412,-46.411l-0,-92.824c-0,-25.615 20.796,-46.412 46.412,-46.412l940.718,0c25.616,0 46.412,20.797 46.412,46.412Z" style="fill:#f2fdef;"/></g><rect x="10050.9" y="29820.3" width="2700.37" height="826.987" style="fill:#3f4e6c;"/><g><circle cx="12101.6" cy="30233.8" r="92.824" style="fill:#f2fdef;"/><circle cx="12390.9" cy="30233.8" r="92.824" style="fill:#f2fdef;"/><circle cx="11812.2" cy="30233.8" r="92.824" style="fill:#f2fdef;"/><path d="M11287.8,30187.4l0,92.824c0,25.615 -20.796,46.411 -46.412,46.411l-940.718,0c-25.616,0 -46.412,-20.796 -46.412,-46.411l-0,-92.824c-0,-25.615 20.796,-46.412 46.412,-46.412l940.718,0c25.616,0 46.412,20.797 46.412,46.412Z" style="fill:#f2fdef;"/></g></g></g><g><circle cx="10836.6" cy="23644.2" r="160.105" style="fill:#3f4e6c;"/><circle cx="11401.1" cy="23644.2" r="160.105" style="fill:#3f4e6c;"/><circle cx="11965.6" cy="23644.2" r="160.105" style="fill:#3f4e6c;"/></g><g><circle cx="10836.6" cy="35215.3" r="160.105" style="fill:#3f4e6c;"/><circle cx="11401.1" cy="35215.3" r="160.105" style="fill:#3f4e6c;"/><circle cx="11965.6" cy="35215.3" r="160.105" style="fill:#3f4e6c;"/></g></g></g></svg>