<?xml version="1.0" encoding="UTF-8" standalone="no"?><!DOCTYPE svg PUBLIC "-//W3C//DTD SVG 1.1//EN" "http://www.w3.org/Graphics/SVG/1.1/DTD/svg11.dtd"><svg width="100%" height="100%" viewBox="0 0 78513 50917" version="1.1" xmlns="http://www.w3.org/2000/svg" xmlns:xlink="http://www.w3.org/1999/xlink" xml:space="preserve" xmlns:serif="http://www.serif.com/" style="fill-rule:evenodd;clip-rule:evenodd;stroke-linecap:round;stroke-linejoin:round;stroke-miterlimit:1.5;"><g id="Data-Layer-Architecture" serif:id="Data Layer Architecture"><g id="Layers"><g id="Data-Layer" serif:id="Data Layer"><path d="M73763.8,49460.2l-69177.8,0l-0,-48010.7l69177.8,0l-0,48010.7Z" style="fill:#fef3f3;"/><g transform="matrix(5000,0,0,5000,45933.2,6273.49)"></g><text x="32983.2px" y="6273.49px" style="font-family:'Lato-Bold', 'Lato', sans-serif;font-weight:700;font-size:5000px;fill:#fcdddd;">D<tspan x="36593.2px 39775.7px 42383.2px " y="6273.49px 6273.49px 6273.49px ">ATA</tspan></text></g><g id="Functionality"><path d="M67304.5,43441.8l-55335.1,-0l-0,-35967.2l55335.1,0l0,35967.2Z" style="fill:#fef7f7;stroke:#b91717;stroke-width:4.17px;"/><g transform="matrix(1250,0,0,1250,44190.6,9965.63)"></g><text x="34226.8px" y="9965.63px" style="font-family:'Lato-Bold', 'Lato', sans-serif;font-weight:700;font-size:1250px;fill:#f7bfbf;">FUNCTIONALITY</text></g><g id="DI"><g><rect x="0" y="49460.5" width="73763.8" height="1455.99" style="fill:#c8d2e6;"/><g transform="matrix(1,0,0,0.935325,0,3260.94)"><text x="35219.5px" y="50420.6px" style="font-family:'Lato-Bold', 'Lato', sans-serif;font-weight:700;font-size:668.217px;fill:#fff;">DEPENDENCY INJECTION</text></g></g><g><rect x="0" y="0" width="73763.8" height="1455.99" style="fill:#c8d2e6;"/><g transform="matrix(1,0,0,0.934582,0,62.813)"><text x="35597px" y="960.185px" style="font-family:'Lato-Bold', 'Lato', sans-serif;font-weight:700;font-size:668.75px;fill:#fff;">DEPENDENCY INJECTION</text></g></g></g></g><g id="Data-Source" serif:id="Data Source"><path d="M59171.9,14150.1l4699.46,-0l-0,22615l-4699.46,-0l-0,-22615Z" style="fill:#fcdee2;stroke:#f9b8b7;stroke-width:41.67px;"/><g transform="matrix(1.21353e-16,-1,0.999999,3.08966e-17,33569.3,90110)"><g transform="matrix(833.334,0,0,833.334,67440.5,28270.3)"></g><text x="61839.7px" y="28270.3px" style="font-family:'Lato-Bold', 'Lato', sans-serif;font-weight:700;font-size:833.334px;fill:#f17979;">D<tspan x="62441.3px 62971.7px 63406.3px " y="28270.3px 28270.3px 28270.3px ">ATA</tspan> SOUR<tspan x="66404.7px " y="28270.3px ">C</tspan>E</text></g></g><g id="Domain----Data-Mapper" serif:id="Domain &lt;&gt; Data Mapper"><path d="M28772.4,21581.4l-12440.1,-0l-0,-3906.24l12440.1,0l0,3906.24Z" style="fill:#fffffe;stroke:#f9b7b7;stroke-width:43.37px;stroke-linecap:square;"/><g transform="matrix(3.125,-1.54074e-31,7.70372e-32,3.125,-32358.1,-9190.73)"><text x="16759.8px" y="9136.83px" style="font-family:'Lato-Regular', 'Lato', sans-serif;font-size:192px;fill:#f49999;">DOMAIN MAPPER</text><g transform="matrix(192,0,0,192,18404.8,9419.5)"></g><text x="16774.9px" y="9419.5px" style="font-family:'Lato-Regular', 'Lato', sans-serif;font-size:192px;fill:#f49999;">D<tspan x="16915.5px 17033.4px 17134px " y="9419.5px 9419.5px 9419.5px ">ATA</tspan> T<tspan x="17405.5px " y="9419.5px ">O</tspan> DOMAIN</text></g></g><g id="Repository-Logic" serif:id="Repository Logic"><path d="M51792.9,28684.6l-20549.9,-0l0,-6452.72l20549.9,-0l0,6452.72Z" style="fill:#fefafa;stroke:#f9b7b7;stroke-width:71.64px;stroke-linecap:square;"/><g transform="matrix(15.625,9.3938e-16,4.73995e-16,15.625,36035.7,25319.7)"><text x="0px" y="0px" style="font-family:'Lato-Bold', 'Lato', sans-serif;font-weight:700;font-size:53.333px;fill:#f49999;">D<tspan x="38.507px 72.453px 100.267px " y="0px 0px 0px ">ATA</tspan> SOUR<tspan x="292.16px " y="0px ">C</tspan>E REPOSIT<tspan x="585.201px " y="0px ">O</tspan>RY</text><g transform="matrix(53.3334,0,0,53.3334,428.414,66.6667)"></g><text x="269.267px" y="66.667px" style="font-family:'Lato-Bold', 'Lato', sans-serif;font-weight:700;font-size:53.333px;fill:#f49999;">L<tspan x="294.707px " y="66.667px ">O</tspan>GIC</text></g></g><g id="Data-Flows-Description" serif:id="Data Flows Description"><g><path d="M19158,22428.8l154.537,0l0,1132.08l143.499,-0l-220.767,370.092l-220.767,-370.092l143.498,-0l0,-1132.08Z" style="fill:#72f1d0;"/><path d="M25946.7,23931l-154.536,0l-0,-1132.08l-143.499,0l220.767,-370.092l220.767,370.092l-143.499,0l0,1132.08Z" style="fill:#72f1d0;"/></g><g><path d="M21843.2,26606.9l0,-154.537l1132.08,0l0,-143.498l370.092,220.767l-370.092,220.767l0,-143.499l-1132.08,0Z" style="fill:#72f1d0;"/><path d="M23345.4,24309.6l0,154.537l-1132.08,0l-0,143.499l-370.093,-220.767l370.093,-220.767l-0,143.498l1132.08,0Z" style="fill:#72f1d0;"/><g transform="matrix(333.333,0,0,333.333,23906,25193.2)"></g><text x="21233.9px" y="25193.2px" style="font-family:'Lato-Bold', 'Lato', sans-serif;font-weight:700;font-size:333.333px;fill:#f49999;">DOMAIN MODEL</text><g transform="matrix(333.333,0,0,333.333,24443.2,26015.2)"></g><text x="20722.8px" y="26015.2px" style="font-family:'Lato-Bold', 'Lato', sans-serif;font-weight:700;font-size:333.333px;fill:#f49999;">REQUEST OBJECT D<tspan x="23820.5px 24032.7px 24206.5px " y="26015.2px 26015.2px 26015.2px ">ATA</tspan></text></g><g><path d="M54716,26606.9l-0,-154.537l1132.08,0l-0,-143.498l370.092,220.767l-370.092,220.767l-0,-143.499l-1132.08,0Z" style="fill:#72f1d0;"/><path d="M56218.2,24309.6l-0,154.537l-1132.08,0l-0,143.499l-370.092,-220.767l370.092,-220.767l-0,143.498l1132.08,0Z" style="fill:#72f1d0;"/><g transform="matrix(333.333,0,0,333.333,57368.6,25176.7)"></g><text x="53875.1px" y="25176.7px" style="font-family:'Lato-Bold', 'Lato', sans-serif;font-weight:700;font-size:333.333px;fill:#f49999;">D<tspan x="54115.7px 54327.9px 54501.7px " y="25176.7px 25176.7px 25176.7px ">ATA</tspan> SOUR<tspan x="55701.1px " y="25176.7px ">C</tspan>E MODEL</text><g transform="matrix(333.333,0,0,333.333,56812.7,26015.2)"></g><text x="54375.2px" y="26015.2px" style="font-family:'Lato-Bold', 'Lato', sans-serif;font-weight:700;font-size:333.333px;fill:#f49999;">P<tspan x="54557.7px 54764px 54982.2px 55141.2px 55399.2px " y="26015.2px 26015.2px 26015.2px 26015.2px 26015.2px ">AYLOA</tspan>D D<tspan x="56190px 56402.2px 56576px " y="26015.2px 26015.2px 26015.2px ">ATA</tspan></text></g></g><g id="Data-Flows" serif:id="Data Flows"><g><path d="M20248.6,25520.7c-16.159,-0 -30.894,-6.146 -41.993,-16.225c-11.325,-9.238 -20.507,-23.692 -20.507,-46.276c0,-34.494 28.006,-62.5 62.5,-62.5c34.495,-0 62.5,28.005 62.5,62.5c0,58.921 -62.5,62.501 -62.5,62.501Zm62.5,-616.329l0,138.459c0,34.495 -28.005,62.5 -62.5,62.5c-34.494,0 -62.5,-28.005 -62.5,-62.5l0,-138.459c0,-34.495 28.006,-62.501 62.5,-62.501c34.495,0 62.5,28.006 62.5,62.501Zm0,-553.825l0,138.455c0,34.494 -28.005,62.5 -62.5,62.5c-34.494,-0 -62.5,-28.006 -62.5,-62.5l0,-138.455c0,-34.495 28.006,-62.501 62.5,-62.501c34.495,0 62.5,28.006 62.5,62.501Zm0,-553.824l0,138.456c0,34.495 -28.005,62.5 -62.5,62.5c-34.494,-0 -62.5,-28.005 -62.5,-62.5l0,-138.456c0,-34.495 28.006,-62.504 62.5,-62.504c34.495,-0 62.5,28.009 62.5,62.504Zm0,-553.833l0,138.459c0,34.495 -28.005,62.5 -62.5,62.5c-34.494,0 -62.5,-28.005 -62.5,-62.5l0,-138.459c0,-34.494 28.006,-62.503 62.5,-62.503c34.495,0 62.5,28.009 62.5,62.503Zm0,-553.826l0,138.464c0,34.494 -28.005,62.5 -62.5,62.5c-34.494,-0 -62.5,-28.006 -62.5,-62.5l0,-138.464c0,-34.495 28.006,-62.501 62.5,-62.501c34.495,-0 62.5,28.006 62.5,62.501Zm-0.426,-1114.98c0.279,2.042 0.426,4.474 0.426,7.328l0,138.456c0,34.495 -28.005,62.5 -62.5,62.5c-34.494,0 -62.5,-28.005 -62.5,-62.5l0,-138.456c0,22.582 9.181,37.035 20.505,46.273c-12.593,-11.437 -20.505,-27.938 -20.505,-46.273c0,-34.494 28.006,-62.5 62.5,-62.5c32.016,0 58.441,24.125 62.074,55.172Zm0.426,699.612c0,34.495 -28.005,62.5 -62.5,62.5c-34.494,0 -62.5,-28.005 -62.5,-62.5l0,-138.456c0,-34.495 28.006,-62.5 62.5,-62.5c34.495,-0 62.5,28.005 62.5,62.5l0,138.456Z" style="fill:#ec3c56;"/><path d="M24856.1,25520.7c-16.159,-0 -30.894,-6.146 -41.993,-16.225c-11.325,-9.238 -20.507,-23.692 -20.507,-46.276c-0,-34.494 28.005,-62.5 62.5,-62.5c34.494,-0 62.5,28.005 62.5,62.5c-0,58.921 -62.5,62.501 -62.5,62.501Zm62.5,-616.329l-0,138.459c-0,34.495 -28.006,62.5 -62.5,62.5c-34.495,0 -62.5,-28.005 -62.5,-62.5l-0,-138.459c-0,-34.495 28.005,-62.501 62.5,-62.501c34.494,0 62.5,28.006 62.5,62.501Zm-0,-553.825l-0,138.455c-0,34.494 -28.006,62.5 -62.5,62.5c-34.495,-0 -62.5,-28.006 -62.5,-62.5l-0,-138.455c-0,-34.495 28.005,-62.501 62.5,-62.501c34.494,0 62.5,28.006 62.5,62.501Zm-0,-553.824l-0,138.456c-0,34.495 -28.006,62.5 -62.5,62.5c-34.495,-0 -62.5,-28.005 -62.5,-62.5l-0,-138.456c-0,-34.495 28.005,-62.504 62.5,-62.504c34.494,-0 62.5,28.009 62.5,62.504Zm-0,-553.846c-0,-0.012 -0,0.001 -0,0.013l-0,138.459c-0,34.495 -28.006,62.5 -62.5,62.5c-34.495,0 -62.5,-28.005 -62.5,-62.5l-0,-138.459c-0,-34.494 28.005,-62.503 62.5,-62.503c34.482,0 62.479,27.988 62.5,62.49Zm-0,-553.813l-0,138.464c-0,34.494 -28.006,62.5 -62.5,62.5c-34.495,-0 -62.5,-28.006 -62.5,-62.5l-0,-138.464c-0,-34.495 28.005,-62.501 62.5,-62.501c34.494,-0 62.5,28.006 62.5,62.501Zm-0.426,-1114.98c0.279,2.042 0.426,4.474 0.426,7.328l-0,138.456c-0,34.495 -28.006,62.5 -62.5,62.5c-34.495,0 -62.5,-28.005 -62.5,-62.5l-0,-138.456c-0,22.582 9.18,37.035 20.504,46.273c-12.592,-11.437 -20.504,-27.938 -20.504,-46.273c-0,-34.494 28.005,-62.5 62.5,-62.5c32.015,0 58.441,24.125 62.074,55.172Zm0.426,699.612c-0,34.495 -28.006,62.5 -62.5,62.5c-34.495,0 -62.5,-28.005 -62.5,-62.5l-0,-138.456c-0,-34.495 28.005,-62.5 62.5,-62.5c34.494,-0 62.5,28.005 62.5,62.5l-0,138.456Z" style="fill:#ec3c56;"/></g><path d="M63871.4,25458.2l4341.51,-0" style="fill:none;stroke:#ec3c56;stroke-width:125px;"/><path d="M51794.9,25458.2l7377.02,-0" style="fill:none;stroke:#ec3c56;stroke-width:125px;"/><path d="M4502.38,25458.2l26740.7,-0" style="fill:none;stroke:#ec3c56;stroke-width:125px;"/><g><circle cx="63871.4" cy="25458.2" r="486.926" style="fill:#fce3e7;"/><path d="M63871.4,24809c358.322,-0 649.235,290.912 649.235,649.235c-0,358.322 -290.913,649.235 -649.235,649.235c-358.323,-0 -649.235,-290.913 -649.235,-649.235c-0,-358.323 290.912,-649.235 649.235,-649.235Zm-0,162.308c268.742,0 486.926,218.185 486.926,486.927c-0,268.742 -218.184,486.926 -486.926,486.926c-268.742,-0 -486.927,-218.184 -486.927,-486.926c0,-268.742 218.185,-486.927 486.927,-486.927Z" style="fill:#ec3c56;"/><circle cx="63871.4" cy="25458.2" r="348.223" style="fill:#ec3c56;"/></g><g><circle cx="31243" cy="25458.2" r="486.926" style="fill:#fce3e7;"/><path d="M31243,24809c358.323,-0 649.235,290.912 649.235,649.235c0,358.322 -290.912,649.235 -649.235,649.235c-358.322,-0 -649.235,-290.913 -649.235,-649.235c0,-358.323 290.913,-649.235 649.235,-649.235Zm0,162.308c268.742,0 486.927,218.185 486.927,486.927c-0,268.742 -218.185,486.926 -486.927,486.926c-268.742,-0 -486.926,-218.184 -486.926,-486.926c0,-268.742 218.184,-486.927 486.926,-486.927Z" style="fill:#ec3c56;"/><circle cx="31243" cy="25458.2" r="348.223" style="fill:#ec3c56;"/></g><g><circle cx="59171.9" cy="25458.2" r="486.926" style="fill:#fce3e7;"/><path d="M59171.9,24809c358.322,-0 649.235,290.912 649.235,649.235c-0,358.322 -290.913,649.235 -649.235,649.235c-358.323,-0 -649.235,-290.913 -649.235,-649.235c-0,-358.323 290.912,-649.235 649.235,-649.235Zm-0,162.308c268.742,0 486.926,218.185 486.926,486.927c-0,268.742 -218.184,486.926 -486.926,486.926c-268.742,-0 -486.927,-218.184 -486.927,-486.926c0,-268.742 218.185,-486.927 486.927,-486.927Z" style="fill:#ec3c56;"/><circle cx="59171.9" cy="25458.2" r="348.223" style="fill:#ec3c56;"/></g><g><circle cx="51794.9" cy="25458.2" r="486.926" style="fill:#fce3e7;"/><path d="M51794.9,24809c358.322,-0 649.235,290.912 649.235,649.235c-0,358.322 -290.913,649.235 -649.235,649.235c-358.323,-0 -649.235,-290.913 -649.235,-649.235c-0,-358.323 290.912,-649.235 649.235,-649.235Zm-0,162.308c268.742,0 486.926,218.185 486.926,486.927c-0,268.742 -218.184,486.926 -486.926,486.926c-268.742,-0 -486.927,-218.184 -486.927,-486.926c0,-268.742 218.185,-486.927 486.927,-486.927Z" style="fill:#ec3c56;"/><circle cx="51794.9" cy="25458.2" r="348.223" style="fill:#ec3c56;"/></g></g><g id="Domain-Layer" serif:id="Domain Layer"><rect x="0.078" y="1449.58" width="4585.94" height="48016.1" style="fill:#fcfae3;"/><g transform="matrix(9.23273e-17,-1,1,7.42446e-17,-29055.2,36051.3)"><g transform="matrix(3333.33,0,0,3333.33,17688,32553.2)"></g><text x="3498.05px" y="32553.2px" style="font-family:'Lato-Bold', 'Lato', sans-serif;font-weight:700;font-size:3333.33px;fill:#f7edc5;">DOMAIN</text></g></g><g id="Data-Source-Layer" serif:id="Data Source Layer"><rect x="73763.8" y="-0" width="4748.62" height="50916.4" style="fill:#f27688;"/><g transform="matrix(6.13948e-17,1,-0.999999,6.10694e-17,88663.8,-62708.7)"><g transform="matrix(1250,0,0,1250,100605,12977.5)"></g><text x="75686.2px" y="12977.5px" style="font-family:'Lato-Bold', 'Lato', sans-serif;font-weight:700;font-size:1250px;fill:#fce3e7;">REMO<tspan x="79333.7px " y="12977.5px ">T</tspan>E API / SERVICES / L<tspan x="91333.8px " y="12977.5px ">O</tspan>CAL ST<tspan x="96311.9px " y="12977.5px ">O</tspan>RA<tspan x="98985.6px " y="12977.5px ">G</tspan>E</text></g></g><g id="Hints"><g><rect x="63385.9" y="38313.9" width="7837.12" height="2993.5" style="fill:#fbe3e0;"/><g transform="matrix(3.125,0,0,3.125,12041.7,-970.711)"><g transform="matrix(106.667,0,0,106.667,18127.7,12823.6)"></g><g transform="matrix(106.667,0,0,106.667,18163.8,12823.6)"></g><text x="16578.5px" y="12823.6px" style="font-family:'Lato-Bold', 'Lato', sans-serif;font-weight:700;font-size:106.667px;fill:#ec3c56;">Data source is represented b<tspan x="17932.3px " y="12823.6px ">y</tspan> deﬁnition of it&apos;s</text><text x="16578.5px" y="12951.6px" style="font-family:'Lato-Bold', 'Lato', sans-serif;font-weight:700;font-size:106.667px;fill:#ec3c56;">client. Ev<tspan x="17007px " y="12951.6px ">e</tspan>ry data source should ha<tspan x="18212.7px 18267.9px " y="12951.6px 12951.6px ">ve</tspan> it&apos;s own</text><text x="16578.5px" y="13079.6px" style="font-family:'Lato-Bold', 'Lato', sans-serif;font-weight:700;font-size:106.667px;fill:#ec3c56;">client implementation which is injected then</text><g transform="matrix(106.667,0,0,106.667,17948.9,13207.6)"></g><g transform="matrix(106.667,0,0,106.667,17985,13207.6)"></g><text x="16578.5px" y="13207.6px" style="font-family:'Lato-Bold', 'Lato', sans-serif;font-weight:700;font-size:106.667px;fill:#ec3c56;">to repository<tspan x="17193.3px " y="13207.6px ">.</tspan> Data source deﬁne it&apos;s own data</text><g transform="matrix(106.667,0,0,106.667,18204.1,13335.6)"></g><text x="16578.5px" y="13335.6px" style="font-family:'Lato-Bold', 'Lato', sans-serif;font-weight:700;font-size:106.667px;fill:#ec3c56;">models tr<tspan x="17026.2px " y="13335.6px ">a</tspan>nslated later to domain.</text></g></g><g><rect x="27324.5" y="30290.2" width="7837.12" height="2993.5" style="fill:#fbe3e0;"/><g transform="matrix(3.125,0,0,3.125,-24019.7,-8994.43)"><text x="16578.5px" y="12823.6px" style="font-family:'Lato-Bold', 'Lato', sans-serif;font-weight:700;font-size:106.667px;fill:#ec3c56;">Repository contains logic related to only one</text><g transform="matrix(106.667,0,0,106.667,16822.3,12951.6)"></g><g transform="matrix(106.667,0,0,106.667,16858.4,12951.6)"></g><text x="16578.5px" y="12951.6px" style="font-family:'Lato-Bold', 'Lato', sans-serif;font-weight:700;font-size:106.667px;fill:#ec3c56;">speciﬁc data source. If y<tspan x="17702.7px " y="12951.6px ">o</tspan>u need to combine</text><text x="16578.5px" y="13079.6px" style="font-family:'Lato-Bold', 'Lato', sans-serif;font-weight:700;font-size:106.667px;fill:#ec3c56;">multiple data sources, it&apos;s better to create</text><text x="16578.5px" y="13207.6px" style="font-family:'Lato-Bold', 'Lato', sans-serif;font-weight:700;font-size:106.667px;fill:#ec3c56;">either mix<tspan x="17060.7px " y="13207.6px ">e</tspan>d source repository or use Unit Of</text><g transform="matrix(106.667,0,0,106.667,17255.5,13335.6)"></g><text x="16578.5px" y="13335.6px" style="font-family:'Lato-Bold', 'Lato', sans-serif;font-weight:700;font-size:106.667px;fill:#ec3c56;">W<tspan x="16688px " y="13335.6px ">o</tspan>rk pattern.</text></g></g><g><rect x="8050.79" y="9084.12" width="7837.12" height="2993.5" style="fill:#fbe3e0;"/><g transform="matrix(3.125,0,0,3.125,-43293.4,-30200.5)"><g transform="matrix(106.667,0,0,106.667,17634.8,12823.6)"></g><g transform="matrix(106.667,0,0,106.667,17671,12823.6)"></g><text x="16578.5px" y="12823.6px" style="font-family:'Lato-Bold', 'Lato', sans-serif;font-weight:700;font-size:106.667px;fill:#ec3c56;">Data la<tspan x="16914.6px 16969.8px " y="12823.6px 12823.6px ">ye</tspan>r contains deﬁnition of data sources,</text><text x="16578.5px" y="12951.6px" style="font-family:'Lato-Bold', 'Lato', sans-serif;font-weight:700;font-size:106.667px;fill:#ec3c56;">clients implementation ( REST<tspan x="17989.6px " y="12951.6px ">,</tspan> GRAPHQL<tspan x="18547.7px " y="12951.6px ">,</tspan></text><text x="16578.5px" y="13079.6px" style="font-family:'Lato-Bold', 'Lato', sans-serif;font-weight:700;font-size:106.667px;fill:#ec3c56;">e<tspan x="16632.3px " y="13079.6px ">x</tspan>ternal services integr<tspan x="17691px " y="13079.6px ">a</tspan>tion, Databases, local</text><text x="16578.5px" y="13207.6px" style="font-family:'Lato-Bold', 'Lato', sans-serif;font-weight:700;font-size:106.667px;fill:#ec3c56;">stor<tspan x="16769.1px " y="13207.6px ">a</tspan>ge etc. ) and implementation of</text><g transform="matrix(106.667,0,0,106.667,17618.5,13335.6)"></g><g transform="matrix(106.667,0,0,106.667,17654.7,13335.6)"></g><g transform="matrix(106.667,0,0,106.667,18624.3,13335.6)"></g><text x="16578.5px" y="13335.6px" style="font-family:'Lato-Bold', 'Lato', sans-serif;font-weight:700;font-size:106.667px;fill:#ec3c56;">repository which is deﬁned in domain la<tspan x="18451.9px 18507px 18564px 18600.3px " y="13335.6px 13335.6px 13335.6px 13335.6px ">yer.</tspan></text></g></g></g><g><circle cx="69973.2" cy="32713.8" r="96.525" style="fill:#ec3c56;"/><circle cx="70313.5" cy="32713.8" r="96.525" style="fill:#ec3c56;"/><circle cx="70653.9" cy="32713.8" r="96.525" style="fill:#ec3c56;"/></g><g><circle cx="69973.2" cy="18202.7" r="96.525" style="fill:#ec3c56;"/><circle cx="70313.5" cy="18202.7" r="96.525" style="fill:#ec3c56;"/><circle cx="70653.9" cy="18202.7" r="96.525" style="fill:#ec3c56;"/></g><g><g><rect x="69472.6" y="28757.7" width="1681.94" height="515.092" style="fill:#ec3c56;"/><rect x="69472.6" y="29365.8" width="1681.94" height="515.092" style="fill:#ec3c56;"/><rect x="69472.6" y="29973.9" width="1681.94" height="515.092" style="fill:#ec3c56;"/></g><g transform="matrix(400,0,0,400,71197.2,31027.7)"></g><text x="69386.4px" y="31027.7px" style="font-family:'Lato-Bold', 'Lato', sans-serif;font-weight:700;font-size:400px;fill:#ec3c56;">ST<tspan x="69823.4px " y="31027.7px ">O</tspan>RA<tspan x="70679px " y="31027.7px ">G</tspan>E</text></g><g><path d="M70429.1,24184.1l38.05,185.239c73.638,11.268 145.811,30.607 215.217,57.667l125.572,-141.397c70.268,31.949 137.273,70.635 200.075,115.514l-59.667,179.446c58.138,46.578 110.972,99.412 157.55,157.55l179.446,-59.667c44.879,62.802 83.565,129.807 115.514,200.075l-141.397,125.572c27.06,69.406 46.399,141.579 57.667,215.217l185.239,38.05c7.465,76.828 7.465,154.199 0,231.027l-185.239,38.049c-11.268,73.638 -30.607,145.812 -57.667,215.218l141.397,125.571c-31.949,70.268 -70.635,137.273 -115.514,200.075l-179.446,-59.667c-46.578,58.138 -99.412,110.973 -157.55,157.55l59.667,179.446c-62.802,44.88 -129.807,83.565 -200.075,115.514l-125.572,-141.397c-69.406,27.06 -141.579,46.399 -215.217,57.667l-38.05,185.239c-76.828,7.466 -154.198,7.466 -231.027,0l-38.049,-185.239c-73.638,-11.268 -145.811,-30.607 -215.217,-57.667l-125.572,141.397c-70.268,-31.949 -137.273,-70.634 -200.075,-115.514l59.667,-179.446c-58.138,-46.577 -110.972,-99.412 -157.55,-157.55l-179.446,59.667c-44.879,-62.802 -83.565,-129.807 -115.514,-200.075l141.397,-125.571c-27.06,-69.406 -46.399,-141.58 -57.667,-215.218l-185.239,-38.049c-7.466,-76.828 -7.466,-154.199 -0,-231.027l185.239,-38.05c11.268,-73.638 30.607,-145.811 57.667,-215.217l-141.397,-125.572c31.949,-70.268 70.635,-137.273 115.514,-200.075l179.446,59.667c46.578,-58.138 99.412,-110.972 157.55,-157.55l-59.667,-179.446c62.802,-44.879 129.807,-83.565 200.075,-115.514l125.572,141.397c69.406,-27.06 141.579,-46.399 215.217,-57.667l38.049,-185.239c76.829,-7.465 154.199,-7.465 231.027,-0Zm-115.513,485.751c388.012,-0 703.028,315.016 703.028,703.028c0,388.012 -315.016,703.028 -703.028,703.028c-388.012,0 -703.028,-315.016 -703.028,-703.028c-0,-388.012 315.016,-703.028 703.028,-703.028Z" style="fill:#ec3c56;"/><g transform="matrix(400,0,0,400,70623.7,25509.2)"></g><text x="69964.1px" y="25509.2px" style="font-family:'Lato-Bold', 'Lato', sans-serif;font-weight:700;font-size:400px;fill:#ec3c56;">API</text></g><g><path d="M69876.2,20113.7c29.152,-140.237 215.146,-251.877 437.344,-251.877c222.198,0 408.192,111.64 437.344,251.877c152.038,-94.405 397.773,-96.838 567.987,2.424c170.213,99.261 209.437,267.87 102.064,388.32c203.782,-4.399 394.277,103.513 432.861,255.59c38.584,152.077 -87.316,298.761 -280.973,343.066c160.175,87.664 206.294,255.428 95.195,389.162c-111.099,133.734 -343.212,189.859 -532.539,137.286c41.62,138.709 -78.216,287.826 -287.014,340.642c-208.798,52.816 -438.516,-7.881 -534.925,-132.731c-96.409,124.85 -326.127,185.547 -534.925,132.731c-208.798,-52.816 -328.634,-201.933 -287.014,-340.642c-189.327,52.573 -421.44,-3.552 -532.539,-137.286c-111.099,-133.734 -64.98,-301.498 95.195,-389.162c-193.657,-44.305 -319.557,-190.989 -280.973,-343.066c38.584,-152.077 229.079,-259.989 432.861,-255.59c-107.373,-120.45 -68.149,-289.059 102.064,-388.32c170.214,-99.262 415.949,-96.829 567.987,-2.424Z" style="fill:#ec3c56;"/><g transform="matrix(300,0,0,300,71354.2,21051)"></g><text x="69178.3px" y="21051px" style="font-family:'Lato-Bold', 'Lato', sans-serif;font-weight:700;font-size:300px;fill:#fef3f9;">INTEGRA<tspan x="70453.9px " y="21051px ">T</tspan>IONS</text></g></g></svg>