<?xml version="1.0" encoding="UTF-8" standalone="no"?><!DOCTYPE svg PUBLIC "-//W3C//DTD SVG 1.1//EN" "http://www.w3.org/Graphics/SVG/1.1/DTD/svg11.dtd"><svg width="100%" height="100%" viewBox="0 0 78450 50917" version="1.1" xmlns="http://www.w3.org/2000/svg" xmlns:xlink="http://www.w3.org/1999/xlink" xml:space="preserve" xmlns:serif="http://www.serif.com/" style="fill-rule:evenodd;clip-rule:evenodd;stroke-linecap:square;stroke-linejoin:round;stroke-miterlimit:1.5;"><g id="UI-Layer-Architecture" serif:id="UI Layer Architecture"><g id="Layers"><g id="UI-Layer" serif:id="UI Layer"><rect x="4523.52" y="-0" width="73863.9" height="46330.4" style="fill:#e8fce3;"/><g transform="matrix(5000,0,0,5000,56138,5711.37)"></g><text x="26625.5px" y="5711.36px" style="font-family:'Lato-Bold', 'Lato', sans-serif;font-weight:700;font-size:5000px;fill:#c9f8be;">D<tspan x="30235.5px 33418px 36025.5px " y="5711.36px 5711.36px 5711.36px ">ATA</tspan> ST<tspan x="46003px " y="5711.36px ">O</tspan>RE</text></g><g id="Product-Feature" serif:id="Product Feature"><path d="M65622.2,40531.9l-48333.5,-0l-0,-32544.2l48333.5,0l0,32544.2Z" style="fill:#eefdea;stroke:#cef8d9;stroke-width:43.43px;"/><g transform="matrix(1,2.71372e-17,3.43347e-16,1,0.00815817,-1.81899e-12)"><g transform="matrix(1250,0,0,1250,46913.9,11501.4)"></g><text x="35960.2px" y="11501.4px" style="font-family:'Lato-Bold', 'Lato', sans-serif;font-weight:700;font-size:1250px;fill:#bef7c1;">D<tspan x="36862.7px 37658.3px 38310.2px " y="11501.4px 11501.4px 11501.4px ">ATA</tspan> NAMESP<tspan x="44504.5px 45360.2px " y="11501.4px 11501.4px ">AC</tspan>E</text></g></g></g><g id="Logic"><g id="Data-Access-Logic" serif:id="Data Access Logic"><path d="M51452.2,29551.6l-19993.5,0l-0,-10583.6l19993.5,0l-0,10583.6Z" style="fill:#f5fdf5;stroke:#64d072;stroke-width:40.41px;"/><g transform="matrix(3.125,0,0,3.125,-14247.8,-4838.22)"><text x="16636.6px" y="9193.56px" style="font-family:'Lato-Bold', 'Lato', sans-serif;font-weight:700;font-size:266.667px;fill:#9fea9f;">D<tspan x="16829.2px 16998.9px 17138px " y="9193.56px 9193.56px 9193.56px ">ATA</tspan> NAMESP<tspan x="18459.4px 18642px " y="9193.56px 9193.56px ">AC</tspan>E</text><g transform="matrix(266.667,0,0,266.667,19113.6,9577.56)"></g><text x="16496.5px" y="9577.56px" style="font-family:'Lato-Bold', 'Lato', sans-serif;font-weight:700;font-size:266.667px;fill:#9fea9f;">DEFINITION &amp; L<tspan x="18445px " y="9577.56px ">O</tspan>GIC</text></g></g></g><g id="Data-Flows-description" serif:id="Data Flows description"><g><path d="M42441.6,37034.6l-154.537,-0l0,-1132.08l-143.498,-0l220.767,-370.092l220.767,370.092l-143.499,-0l0,1132.08Z" style="fill:#72f1d0;"/><path d="M40331.8,35532.4l154.537,-0l0,1132.08l143.499,-0l-220.767,370.092l-220.767,-370.092l143.498,-0l0,-1132.08Z" style="fill:#72f1d0;"/><g transform="matrix(6.12323e-17,-1,1,6.12323e-17,-88662.2,90826.1)"><g transform="matrix(333.333,0,0,333.333,56110.6,129818)"></g><text x="52889.9px" y="129818px" style="font-family:'Lato-Bold', 'Lato', sans-serif;font-weight:700;font-size:333.333px;fill:#9fea9f;">D<tspan x="53130.6px 53342.7px 53516.6px " y="129818px 129818px 129818px ">ATA</tspan> ST<tspan x="54181.7px " y="129818px ">O</tspan>RE MODEL</text></g><g transform="matrix(6.12323e-17,-1,1,6.12323e-17,-87180.9,90988.8)"><g transform="matrix(333.333,0,0,333.333,55645.5,129159)"></g><text x="53711.9px" y="129159px" style="font-family:'Lato-Bold', 'Lato', sans-serif;font-weight:700;font-size:333.333px;fill:#9fea9f;">INPUT D<tspan x="55022.9px 55235px 55408.9px " y="129159px 129159px 129159px ">ATA</tspan></text></g></g></g><g id="Data-Flows" serif:id="Data Flows"><path d="M41455.5,29551.6l-0,16778.8" style="fill:none;stroke:#61ec3e;stroke-width:125px;stroke-linecap:round;"/><g><circle cx="41455.5" cy="29551.6" r="486.926" style="fill:#e8fce3;"/><path d="M41455.5,30200.9c-358.323,0 -649.235,-290.912 -649.235,-649.235c-0,-358.322 290.912,-649.235 649.235,-649.235c358.322,0 649.235,290.913 649.235,649.235c-0,358.323 -290.913,649.235 -649.235,649.235Zm-0,-162.309c-268.742,0 -486.926,-218.184 -486.926,-486.926c-0,-268.742 218.184,-486.926 486.926,-486.926c268.742,-0 486.926,218.184 486.926,486.926c0,268.742 -218.184,486.926 -486.926,486.926Z" style="fill:#61ec3e;"/><circle cx="41455.5" cy="29551.6" r="348.223" style="fill:#61ec3e;"/></g><g id="Data-Flows-description1" serif:id="Data Flows description"><g><path d="M23308.9,25271l-0,-154.537l1132.08,0l0,-143.498l370.093,220.767l-370.093,220.767l0,-143.499l-1132.08,0Z" style="fill:#72f1d0;"/><path d="M24811.1,23161.2l-0,154.537l-1132.08,0l-0,143.499l-370.092,-220.767l370.092,-220.767l-0,143.498l1132.08,0Z" style="fill:#72f1d0;"/><g transform="matrix(333.333,0,0,333.333,25627.9,23985.1)"></g><text x="22407.2px" y="23985.1px" style="font-family:'Lato-Bold', 'Lato', sans-serif;font-weight:700;font-size:333.333px;fill:#9fea9f;">D<tspan x="22647.9px 22860.1px 23033.9px " y="23985.1px 23985.1px 23985.1px ">ATA</tspan> ST<tspan x="23699.1px " y="23985.1px ">O</tspan>RE MODEL</text><g transform="matrix(333.333,0,0,333.333,25000.3,24807.1)"></g><text x="23066.6px" y="24807.1px" style="font-family:'Lato-Bold', 'Lato', sans-serif;font-weight:700;font-size:333.333px;fill:#9fea9f;">INPUT D<tspan x="24377.6px 24589.8px 24763.6px " y="24807.1px 24807.1px 24807.1px ">ATA</tspan></text></g></g><path d="M31430.5,24259.8l-26907,-0" style="fill:none;stroke:#61ec3e;stroke-width:125px;stroke-linecap:round;"/><g><path d="M31034.3,24259.8c-0,-268.742 218.184,-486.927 486.926,-486.927c268.742,0 486.926,218.185 486.926,486.927c0,268.742 -218.184,486.926 -486.926,486.926c-268.742,-0 -486.926,-218.184 -486.926,-486.926Z" style="fill:#e8fce3;"/><path d="M30872,24259.8c-0,-358.323 290.912,-649.235 649.235,-649.235c358.322,-0 649.235,290.912 649.235,649.235c-0,358.322 -290.913,649.235 -649.235,649.235c-358.323,-0 -649.235,-290.913 -649.235,-649.235Zm162.309,-0c-0,-268.742 218.184,-486.927 486.926,-486.927c268.742,0 486.926,218.185 486.926,486.927c0,268.742 -218.184,486.926 -486.926,486.926c-268.742,-0 -486.926,-218.184 -486.926,-486.926Z" style="fill:#61ec3e;"/><path d="M31173,24259.8c-0,-192.19 156.033,-348.224 348.223,-348.224c192.189,0 348.223,156.034 348.223,348.224c-0,192.189 -156.034,348.223 -348.223,348.223c-192.19,-0 -348.223,-156.034 -348.223,-348.223Z" style="fill:#61ec3e;"/></g><g id="Presentation"><path d="M78449.9,50916.5l-73863.9,0l-0,-4586.02l73863.9,-0l0,4586.02Z" style="fill:#e3f2fc;"/><g transform="matrix(1,2.71372e-17,3.43347e-16,1,0.00664201,0)"><g transform="matrix(3333.33,0,0,3333.33,53743.8,49828.4)"></g><text x="29277.1px" y="49828.4px" style="font-family:'Lato-Bold', 'Lato', sans-serif;font-weight:700;font-size:3333.33px;fill:#bee1f7;">PRESENT<tspan x="43407.1px 45528.8px " y="49828.4px 49828.4px ">AT</tspan>ION</text></g></g></g><g id="UI-Layer1" serif:id="UI Layer"><rect x="0.078" y="0" width="4585.94" height="50916.5" style="fill:#ebf7fd;"/><g transform="matrix(9.23273e-17,-1,1,7.42446e-17,-22470.1,29439.6)"><g transform="matrix(3333.33,0,0,3333.33,7601.44,25954.8)"></g><text x="3484.77px" y="25954.8px" style="font-family:'Lato-Bold', 'Lato', sans-serif;font-weight:700;font-size:3333.33px;fill:#d8ebf6;">UI</text></g></g><g><rect x="61727" y="36863.8" width="7790.42" height="2166.76" style="fill:#d4f9ca;"/><g transform="matrix(3.125,0,0,3.125,10396.8,-2641.87)"><text x="16578.5px" y="12823.6px" style="font-family:'Lato-Bold', 'Lato', sans-serif;font-weight:700;font-size:106.667px;fill:#61ec3e;">Sometimes Presentation la<tspan x="17851px 17906.1px " y="12823.6px 12823.6px ">ye</tspan>r ma<tspan x="18171px " y="12823.6px ">y</tspan> need to</text><text x="16578.5px" y="12951.6px" style="font-family:'Lato-Bold', 'Lato', sans-serif;font-weight:700;font-size:106.667px;fill:#61ec3e;">access data store la<tspan x="17493.8px 17549px " y="12951.6px 12951.6px ">ye</tspan>r to either update data</text><text x="16578.5px" y="13079.6px" style="font-family:'Lato-Bold', 'Lato', sans-serif;font-weight:700;font-size:106.667px;fill:#61ec3e;">within store itself or get some data for a data</text><g transform="matrix(106.667,0,0,106.667,17036.8,13207.6)"></g><text x="16578.5px" y="13207.6px" style="font-family:'Lato-Bold', 'Lato', sans-serif;font-weight:700;font-size:106.667px;fill:#61ec3e;">store call.</text></g></g><g><rect x="13393.5" y="9566.17" width="7790.42" height="3096.12" style="fill:#d4f9ca;"/><g transform="matrix(3.125,0,0,3.125,-37936.7,-29856.5)"><text x="16578.5px" y="12823.6px" style="font-family:'Lato-Bold', 'Lato', sans-serif;font-weight:700;font-size:106.667px;fill:#61ec3e;">Data store in gener<tspan x="17483.5px " y="12823.6px ">a</tspan>l don<tspan x="17766.9px " y="12823.6px ">&apos;</tspan>t ha<tspan x="17968.7px 18023.9px " y="12823.6px 12823.6px ">ve</tspan> access to an<tspan x="18667px " y="12823.6px ">y</tspan></text><text x="16578.5px" y="12951.6px" style="font-family:'Lato-Bold', 'Lato', sans-serif;font-weight:700;font-size:106.667px;fill:#61ec3e;">la<tspan x="16661.4px 16716.5px 16773.5px 16809.8px " y="12951.6px 12951.6px 12951.6px 12951.6px ">yer.</tspan> It contains logic, data or structures</text><text x="16578.5px" y="13079.6px" style="font-family:'Lato-Bold', 'Lato', sans-serif;font-weight:700;font-size:106.667px;fill:#61ec3e;">related only to store data which in this</text><text x="16578.5px" y="13207.6px" style="font-family:'Lato-Bold', 'Lato', sans-serif;font-weight:700;font-size:106.667px;fill:#61ec3e;">implementation we consider it to be closer to</text><text x="16578.5px" y="13335.6px" style="font-family:'Lato-Bold', 'Lato', sans-serif;font-weight:700;font-size:106.667px;fill:#61ec3e;">ui la<tspan x="16771.5px 16826.6px " y="13335.6px 13335.6px ">ye</tspan>r than data la<tspan x="17504px 17559.1px 17616.1px 17652.5px " y="13335.6px 13335.6px 13335.6px 13335.6px ">yer.</tspan> UI and Presentation</text><g transform="matrix(106.667,0,0,106.667,18152,13463.6)"></g><text x="16578.5px" y="13463.6px" style="font-family:'Lato-Bold', 'Lato', sans-serif;font-weight:700;font-size:106.667px;fill:#61ec3e;">la<tspan x="16661.4px 16716.5px " y="13463.6px 13463.6px ">ye</tspan>rs can access it when needed.</text></g></g></g></svg>