<?xml version="1.0" encoding="UTF-8" standalone="no"?><!DOCTYPE svg PUBLIC "-//W3C//DTD SVG 1.1//EN" "http://www.w3.org/Graphics/SVG/1.1/DTD/svg11.dtd"><svg width="100%" height="100%" viewBox="0 0 78450 50917" version="1.1" xmlns="http://www.w3.org/2000/svg" xmlns:xlink="http://www.w3.org/1999/xlink" xml:space="preserve" xmlns:serif="http://www.serif.com/" style="fill-rule:evenodd;clip-rule:evenodd;stroke-linecap:round;stroke-linejoin:round;stroke-miterlimit:1.5;"><g id="UI-Layer-Architecture" serif:id="UI Layer Architecture"><g id="Layers"><path d="M78449.9,49460.2l-73863.9,0l-0,-48010.7l73863.9,0l0,48010.7Z" style="fill:#fcfae3;"/><path d="M69185.5,43441.8l-55335.1,-0l-0,-35967.2l55335.1,0l0,35967.2Z" style="fill:#fdfbec;stroke:#635128;stroke-width:4.17px;"/><g id="DI"><g><g><rect x="0" y="49460.5" width="78449.9" height="1455.99" style="fill:#c8d2e6;"/></g><g><g transform="matrix(1,0,0,0.935325,0,3260.94)"><text x="38259.2px" y="50420.6px" style="font-family:'Lato-Bold', 'Lato', sans-serif;font-weight:700;font-size:668.217px;fill:#fff;">DEPENDENCY INJECTION</text></g></g></g><g><g><rect x="-0" y="0" width="78449.9" height="1455.99" style="fill:#c8d2e6;"/></g><g><g transform="matrix(1,0,0,0.935327,0,62.098)"><text x="37451.8px" y="960.185px" style="font-family:'Lato-Bold', 'Lato', sans-serif;font-weight:700;font-size:668.217px;fill:#fff;">DEPENDENCY INJECTION</text></g></g></g></g></g><g id="UI-Layer" serif:id="UI Layer"><rect x="0.078" y="1449.58" width="4585.94" height="48016.1" style="fill:#e3f2fc;"/><g transform="matrix(9.23273e-17,-1,1,7.42446e-17,-34213.7,41183.2)"><g transform="matrix(3333.33,0,0,3333.33,27951.4,37698.5)"></g><text x="3484.77px" y="37698.5px" style="font-family:'Lato-Bold', 'Lato', sans-serif;font-weight:700;font-size:3333.33px;fill:#d1eafa;">PRESENT<tspan x="17614.8px 19736.4px " y="37698.5px 37698.5px ">AT</tspan>ION</text></g></g><g id="Data-LAyer" serif:id="Data LAyer"><path d="M59171.9,15310.1l4699.46,-0l-0,20296.2l-4699.46,-0l-0,-20296.2Z" style="fill:#fef3f3;stroke:#f9b8b7;stroke-width:41.67px;"/><g transform="matrix(1.21353e-16,-1,0.999999,3.08966e-17,33821.6,89944.7)"><g transform="matrix(833.334,0,0,833.334,67022.8,28061.6)"></g><text x="61883.2px" y="28061.6px" style="font-family:'Lato-Bold', 'Lato', sans-serif;font-weight:700;font-size:833.334px;fill:#fbd2d2;">REPOSIT<tspan x="65265.3px " y="28061.6px ">O</tspan>RY</text></g></g><g transform="matrix(5000,0,0,5000,52160.5,6273.49)"></g><text x="30875.5px" y="6273.49px" style="font-family:'Lato-Bold', 'Lato', sans-serif;font-weight:700;font-size:5000px;fill:#f8eec5;">DOMAIN</text><g transform="matrix(1250,0,0,1250,52644.2,9965.63)"></g><text x="30460.5px" y="9965.63px" style="font-family:'Lato-Bold', 'Lato', sans-serif;font-weight:700;font-size:1250px;fill:#f7ebbf;">SPECIFIC DOMAIN IMPLEMENT<tspan x="48768px 49563.6px " y="9965.63px 9965.63px ">AT</tspan>ION</text><g id="Flows-Description" serif:id="Flows Description"><g><path d="M50907.9,26606.9l0,-154.537l1132.08,0l0,-143.498l370.092,220.767l-370.092,220.767l0,-143.499l-1132.08,0Z" style="fill:#72f1d0;"/><path d="M52410.1,24309.6l0,154.537l-1132.08,0l0,143.499l-370.092,-220.767l370.092,-220.767l0,143.498l1132.08,0Z" style="fill:#72f1d0;"/><g transform="matrix(333.333,0,0,333.333,52970.8,25193.2)"></g><text x="50298.6px" y="25193.2px" style="font-family:'Lato-Bold', 'Lato', sans-serif;font-weight:700;font-size:333.333px;fill:#ebda3d;">DOMAIN MODEL</text><g transform="matrix(333.333,0,0,333.333,53507.9,26015.2)"></g><text x="49787.6px" y="26015.2px" style="font-family:'Lato-Bold', 'Lato', sans-serif;font-weight:700;font-size:333.333px;fill:#ebda3d;">REQUEST OBJECT D<tspan x="52885.2px 53097.4px 53271.2px " y="26015.2px 26015.2px 26015.2px ">ATA</tspan></text></g><g><path d="M40766.9,26606.9l0,-154.537l1132.08,0l0,-143.498l370.092,220.767l-370.092,220.767l0,-143.499l-1132.08,0Z" style="fill:#72f1d0;"/><path d="M42269.1,24309.6l0,154.537l-1132.08,0l-0,143.499l-370.093,-220.767l370.093,-220.767l-0,143.498l1132.08,0Z" style="fill:#72f1d0;"/><g transform="matrix(333.333,0,0,333.333,42829.7,25193.2)"></g><text x="40157.6px" y="25193.2px" style="font-family:'Lato-Bold', 'Lato', sans-serif;font-weight:700;font-size:333.333px;fill:#ebda3d;">DOMAIN MODEL</text><g transform="matrix(333.333,0,0,333.333,43366.9,26015.2)"></g><text x="39646.5px" y="26015.2px" style="font-family:'Lato-Bold', 'Lato', sans-serif;font-weight:700;font-size:333.333px;fill:#ebda3d;">REQUEST OBJECT D<tspan x="42744.2px 42956.4px 43130.2px " y="26015.2px 26015.2px 26015.2px ">ATA</tspan></text></g><g><path d="M40766.9,32304l0,-154.537l1132.08,0l0,-143.498l370.092,220.767l-370.092,220.767l0,-143.499l-1132.08,0Z" style="fill:#72f1d0;"/><path d="M42269.1,30006.7l0,154.537l-1132.08,0l-0,143.499l-370.093,-220.767l370.093,-220.767l-0,143.498l1132.08,0Z" style="fill:#72f1d0;"/><g transform="matrix(333.333,0,0,333.333,42829.7,30890.3)"></g><text x="40157.6px" y="30890.3px" style="font-family:'Lato-Bold', 'Lato', sans-serif;font-weight:700;font-size:333.333px;fill:#ebda3d;">DOMAIN MODEL</text><g transform="matrix(333.333,0,0,333.333,43366.9,31712.3)"></g><text x="39646.5px" y="31712.3px" style="font-family:'Lato-Bold', 'Lato', sans-serif;font-weight:700;font-size:333.333px;fill:#ebda3d;">REQUEST OBJECT D<tspan x="42744.2px 42956.4px 43130.2px " y="31712.3px 31712.3px 31712.3px ">ATA</tspan></text></g><g><path d="M40766.9,20909.7l0,-154.537l1132.08,0l0,-143.498l370.092,220.767l-370.092,220.767l0,-143.499l-1132.08,0Z" style="fill:#72f1d0;"/><path d="M42269.1,18612.5l0,154.537l-1132.08,0l-0,143.499l-370.093,-220.767l370.093,-220.767l-0,143.498l1132.08,0Z" style="fill:#72f1d0;"/><g transform="matrix(333.333,0,0,333.333,42829.7,19496.1)"></g><text x="40157.6px" y="19496.1px" style="font-family:'Lato-Bold', 'Lato', sans-serif;font-weight:700;font-size:333.333px;fill:#ebda3d;">DOMAIN MODEL</text><g transform="matrix(333.333,0,0,333.333,43366.9,20318.1)"></g><text x="39646.5px" y="20318.1px" style="font-family:'Lato-Bold', 'Lato', sans-serif;font-weight:700;font-size:333.333px;fill:#ebda3d;">REQUEST OBJECT D<tspan x="42744.2px 42956.4px 43130.2px " y="20318.1px 20318.1px 20318.1px ">ATA</tspan></text></g><g><path d="M21845.4,26603.6l0,-154.537l1132.08,-0l-0,-143.499l370.092,220.767l-370.092,220.767l-0,-143.498l-1132.08,-0Z" style="fill:#72f1d0;"/><path d="M23347.6,24306.3l0,154.537l-1132.08,-0l0,143.498l-370.092,-220.767l370.092,-220.767l0,143.499l1132.08,-0Z" style="fill:#72f1d0;"/><g transform="matrix(333.333,0,0,333.333,23908.3,25189.9)"></g><text x="21236.1px" y="25189.9px" style="font-family:'Lato-Bold', 'Lato', sans-serif;font-weight:700;font-size:333.333px;fill:#ebda3d;">DOMAIN MODEL</text><g transform="matrix(333.333,0,0,333.333,24445.4,26011.9)"></g><text x="20725.1px" y="26011.9px" style="font-family:'Lato-Bold', 'Lato', sans-serif;font-weight:700;font-size:333.333px;fill:#ebda3d;">REQUEST OBJECT D<tspan x="23822.7px 24034.9px 24208.7px " y="26011.9px 26011.9px 26011.9px ">ATA</tspan></text></g><g><path d="M21845.4,32304l0,-154.537l1132.08,0l-0,-143.498l370.092,220.767l-370.092,220.767l-0,-143.499l-1132.08,0Z" style="fill:#72f1d0;"/><path d="M23347.6,30006.7l0,154.537l-1132.08,0l0,143.499l-370.092,-220.767l370.092,-220.767l0,143.498l1132.08,0Z" style="fill:#72f1d0;"/><g transform="matrix(333.333,0,0,333.333,23908.3,30890.3)"></g><text x="21236.1px" y="30890.3px" style="font-family:'Lato-Bold', 'Lato', sans-serif;font-weight:700;font-size:333.333px;fill:#ebda3d;">DOMAIN MODEL</text><g transform="matrix(333.333,0,0,333.333,24445.4,31712.3)"></g><text x="20725.1px" y="31712.3px" style="font-family:'Lato-Bold', 'Lato', sans-serif;font-weight:700;font-size:333.333px;fill:#ebda3d;">REQUEST OBJECT D<tspan x="23822.7px 24034.9px 24208.7px " y="31712.3px 31712.3px 31712.3px ">ATA</tspan></text></g><g><path d="M21845.4,20909.7l0,-154.537l1132.08,0l-0,-143.498l370.092,220.767l-370.092,220.767l-0,-143.499l-1132.08,0Z" style="fill:#72f1d0;"/><path d="M23347.6,18612.5l0,154.537l-1132.08,0l0,143.499l-370.092,-220.767l370.092,-220.767l0,143.498l1132.08,0Z" style="fill:#72f1d0;"/><g transform="matrix(333.333,0,0,333.333,23908.3,19496.1)"></g><text x="21236.1px" y="19496.1px" style="font-family:'Lato-Bold', 'Lato', sans-serif;font-weight:700;font-size:333.333px;fill:#ebda3d;">DOMAIN MODEL</text><g transform="matrix(333.333,0,0,333.333,24445.4,20318.1)"></g><text x="20725.1px" y="20318.1px" style="font-family:'Lato-Bold', 'Lato', sans-serif;font-weight:700;font-size:333.333px;fill:#ebda3d;">REQUEST OBJECT D<tspan x="23822.7px 24034.9px 24208.7px " y="20318.1px 20318.1px 20318.1px ">ATA</tspan></text></g></g><g id="Data-Flows" serif:id="Data Flows"><g><path d="M38071.3,21714.2l-12440.1,0l-0,-3906.24l12440.1,0l-0,3906.24Z" style="fill:#fffffe;stroke:#f9ecb7;stroke-width:43.37px;stroke-linecap:square;"/><g transform="matrix(1,6.01203e-17,3.03357e-17,0.999999,0,0.0109678)"><text x="29768.3px" y="20062.4px" style="font-family:'Lato-Bold', 'Lato', sans-serif;font-weight:700;font-size:833.334px;fill:#f4e299;">SCENARIO</text></g></g><g><path d="M38071.3,33108.5l-12440.1,-0l-0,-3906.24l12440.1,0l-0,3906.24Z" style="fill:#fffffe;stroke:#f9ecb7;stroke-width:43.37px;stroke-linecap:square;"/><g transform="matrix(1,6.01203e-17,3.03357e-17,0.999999,3.63798e-12,0.0171968)"><g transform="matrix(833.334,0,0,833.334,34426.9,31456.6)"></g><text x="29211.9px" y="31456.6px" style="font-family:'Lato-Bold', 'Lato', sans-serif;font-weight:700;font-size:833.334px;fill:#f4e299;">INTERA<tspan x="32192.7px 32751.5px 33214.8px " y="31456.6px 31456.6px 31456.6px ">CTO</tspan>R</text></g></g><g><path d="M38071.3,27408.5l-12440.1,0l-0,-3906.24l12440.1,0l-0,3906.24Z" style="fill:#fffffe;stroke:#f9ecb7;stroke-width:43.37px;stroke-linecap:square;"/><g transform="matrix(1,6.01203e-17,3.03357e-17,0.999999,0,0.0140807)"><g transform="matrix(833.334,0,0,833.334,33725.6,25756.6)"></g><text x="29959.4px" y="25756.6px" style="font-family:'Lato-Bold', 'Lato', sans-serif;font-weight:700;font-size:833.334px;fill:#f4e299;">USE CASE</text></g></g><g><path d="M25631.2,19761.1l-6069.31,-0l0,5694.24l6069.31,-0" style="fill:none;stroke:#ebda3d;stroke-width:125px;"/><path d="M25631.2,31155.4l-6069.31,-0l0,-5700.02" style="fill:none;stroke:#ebda3d;stroke-width:125px;"/><path d="M4586.02,25458.2l14975.9,-0" style="fill:none;stroke:#ebda3d;stroke-width:125px;"/></g><g><path d="M44146.1,25458.2l15025.9,-0" style="fill:none;stroke:#ebda3d;stroke-width:125px;"/><path d="M38071.3,31155.4l6069.3,-0l0,-5694.24l-6069.3,-0" style="fill:none;stroke:#ebda3d;stroke-width:125px;"/><path d="M38071.3,19761.1l6069.3,-0l0,5700.02" style="fill:none;stroke:#ebda3d;stroke-width:125px;"/></g><path d="M63871.4,25458.2l14578.5,-0" style="fill:none;stroke:#ec3c56;stroke-width:125px;"/><g><circle cx="63871.4" cy="25458.2" r="486.926" style="fill:#fce3e7;"/><path d="M63871.4,24809c358.322,-0 649.235,290.912 649.235,649.235c-0,358.322 -290.913,649.235 -649.235,649.235c-358.323,-0 -649.235,-290.913 -649.235,-649.235c-0,-358.323 290.912,-649.235 649.235,-649.235Zm-0,162.308c268.742,0 486.926,218.185 486.926,486.927c-0,268.742 -218.184,486.926 -486.926,486.926c-268.742,-0 -486.927,-218.184 -486.927,-486.926c0,-268.742 218.185,-486.927 486.927,-486.927Z" style="fill:#ec3c56;"/><circle cx="63871.4" cy="25458.2" r="348.223" style="fill:#ec3c56;"/></g><g><circle cx="59171.9" cy="25458.2" r="486.926" style="fill:#fce3e7;"/><path d="M59171.9,24809c358.322,-0 649.235,290.912 649.235,649.235c-0,358.322 -290.913,649.235 -649.235,649.235c-358.323,-0 -649.235,-290.913 -649.235,-649.235c-0,-358.323 290.912,-649.235 649.235,-649.235Zm-0,162.308c268.742,0 486.926,218.185 486.926,486.927c-0,268.742 -218.184,486.926 -486.926,486.926c-268.742,-0 -486.927,-218.184 -486.927,-486.926c0,-268.742 218.185,-486.927 486.927,-486.927Z" style="fill:#ec3c56;"/><circle cx="59171.9" cy="25458.2" r="348.223" style="fill:#ec3c56;"/></g><g><circle cx="25631.2" cy="25458.2" r="486.926" style="fill:#fcfae3;"/><path d="M25631.2,24809c358.323,-0 649.235,290.912 649.235,649.235c-0,358.322 -290.912,649.235 -649.235,649.235c-358.323,-0 -649.235,-290.913 -649.235,-649.235c-0,-358.323 290.912,-649.235 649.235,-649.235Zm-0,162.308c268.742,0 486.926,218.185 486.926,486.927c0,268.742 -218.184,486.926 -486.926,486.926c-268.742,-0 -486.926,-218.184 -486.926,-486.926c-0,-268.742 218.184,-486.927 486.926,-486.927Z" style="fill:#ebda3d;"/><circle cx="25631.2" cy="25458.2" r="348.223" style="fill:#ebda3d;"/></g><g><circle cx="25631.2" cy="31155.4" r="486.926" style="fill:#fcfae3;"/><path d="M25631.2,30506.1c358.323,-0 649.235,290.912 649.235,649.235c-0,358.322 -290.912,649.235 -649.235,649.235c-358.323,-0 -649.235,-290.913 -649.235,-649.235c-0,-358.323 290.912,-649.235 649.235,-649.235Zm-0,162.308c268.742,0 486.926,218.185 486.926,486.927c0,268.742 -218.184,486.926 -486.926,486.926c-268.742,-0 -486.926,-218.184 -486.926,-486.926c-0,-268.742 218.184,-486.927 486.926,-486.927Z" style="fill:#ebda3d;"/><circle cx="25631.2" cy="31155.4" r="348.223" style="fill:#ebda3d;"/></g><g><circle cx="25631.2" cy="19761.1" r="486.926" style="fill:#fcfae3;"/><path d="M25631.2,19111.9c358.323,-0 649.235,290.912 649.235,649.235c-0,358.322 -290.912,649.235 -649.235,649.235c-358.323,-0 -649.235,-290.913 -649.235,-649.235c-0,-358.323 290.912,-649.235 649.235,-649.235Zm-0,162.308c268.742,0 486.926,218.185 486.926,486.927c0,268.742 -218.184,486.926 -486.926,486.926c-268.742,0 -486.926,-218.184 -486.926,-486.926c-0,-268.742 218.184,-486.927 486.926,-486.927Z" style="fill:#ebda3d;"/><circle cx="25631.2" cy="19761.1" r="348.223" style="fill:#ebda3d;"/></g><g><circle cx="38071.3" cy="25458.2" r="486.926" style="fill:#fcfae3;"/><path d="M38071.3,24809c358.322,-0 649.235,290.912 649.235,649.235c-0,358.322 -290.913,649.235 -649.235,649.235c-358.323,-0 -649.235,-290.913 -649.235,-649.235c-0,-358.323 290.912,-649.235 649.235,-649.235Zm-0,162.308c268.742,0 486.926,218.185 486.926,486.927c-0,268.742 -218.184,486.926 -486.926,486.926c-268.742,-0 -486.927,-218.184 -486.927,-486.926c0,-268.742 218.185,-486.927 486.927,-486.927Z" style="fill:#ebda3d;"/><circle cx="38071.3" cy="25458.2" r="348.223" style="fill:#ebda3d;"/></g><g><circle cx="38071.3" cy="31155.4" r="486.926" style="fill:#fcfae3;"/><path d="M38071.3,30506.1c358.322,-0 649.235,290.912 649.235,649.235c-0,358.322 -290.913,649.235 -649.235,649.235c-358.323,-0 -649.235,-290.913 -649.235,-649.235c-0,-358.323 290.912,-649.235 649.235,-649.235Zm-0,162.308c268.742,0 486.926,218.185 486.926,486.927c-0,268.742 -218.184,486.926 -486.926,486.926c-268.742,-0 -486.927,-218.184 -486.927,-486.926c0,-268.742 218.185,-486.927 486.927,-486.927Z" style="fill:#ebda3d;"/><circle cx="38071.3" cy="31155.4" r="348.223" style="fill:#ebda3d;"/></g><g><circle cx="38071.3" cy="19761.1" r="486.926" style="fill:#fcfae3;"/><path d="M38071.3,19111.9c358.322,-0 649.235,290.912 649.235,649.235c-0,358.322 -290.913,649.235 -649.235,649.235c-358.323,-0 -649.235,-290.913 -649.235,-649.235c-0,-358.323 290.912,-649.235 649.235,-649.235Zm-0,162.308c268.742,0 486.926,218.185 486.926,486.927c-0,268.742 -218.184,486.926 -486.926,486.926c-268.742,0 -486.927,-218.184 -486.927,-486.926c0,-268.742 218.185,-486.927 486.927,-486.927Z" style="fill:#ebda3d;"/><circle cx="38071.3" cy="19761.1" r="348.223" style="fill:#ebda3d;"/></g></g><g id="Hints"><g><rect x="65267" y="9084.12" width="7837.12" height="2993.5" style="fill:#fbe3e0;"/><g transform="matrix(3.125,0,0,3.125,13922.8,-30200.5)"><g transform="matrix(106.667,0,0,106.667,17484.3,12823.6)"></g><g transform="matrix(106.667,0,0,106.667,17520.5,12823.6)"></g><text x="16578.5px" y="12823.6px" style="font-family:'Lato-Bold', 'Lato', sans-serif;font-weight:700;font-size:106.667px;fill:#ec3c56;">In domain model is ﬁrst time where we are</text><text x="16578.5px" y="12951.6px" style="font-family:'Lato-Bold', 'Lato', sans-serif;font-weight:700;font-size:106.667px;fill:#ec3c56;">able to reach Data la<tspan x="17548.8px 17604px " y="12951.6px 12951.6px ">ye</tspan>r for giv<tspan x="18026.6px " y="12951.6px ">e</tspan>n</text><text x="16578.5px" y="13079.6px" style="font-family:'Lato-Bold', 'Lato', sans-serif;font-weight:700;font-size:106.667px;fill:#ec3c56;">functionality<tspan x="17184.1px " y="13079.6px ">.</tspan> Repository e<tspan x="17828.9px " y="13079.6px ">x</tspan>poses interface</text><g transform="matrix(106.667,0,0,106.667,18294.3,13207.6)"></g><g transform="matrix(106.667,0,0,106.667,18330.5,13207.6)"></g><text x="16578.5px" y="13207.6px" style="font-family:'Lato-Bold', 'Lato', sans-serif;font-weight:700;font-size:106.667px;fill:#ec3c56;">through which we can perform speciﬁc</text><g transform="matrix(106.667,0,0,106.667,16947.3,13335.6)"></g><text x="16578.5px" y="13335.6px" style="font-family:'Lato-Bold', 'Lato', sans-serif;font-weight:700;font-size:106.667px;fill:#ec3c56;">actions.</text></g></g><g><rect x="41520.4" y="13288.1" width="7837.12" height="2993.5" style="fill:#faf6d4;"/><g transform="matrix(3.125,0,0,3.125,-9823.78,-25830.5)"><g transform="matrix(106.667,0,0,106.667,17418.3,12823.6)"></g><g transform="matrix(106.667,0,0,106.667,17454.5,12823.6)"></g><text x="16578.5px" y="12823.6px" style="font-family:'Lato-Bold', 'Lato', sans-serif;font-weight:700;font-size:106.667px;fill:#dfd151;">Repository ( as deﬁnition of abstr<tspan x="18149.2px " y="12823.6px ">a</tspan>ction is</text><text x="16578.5px" y="12951.6px" style="font-family:'Lato-Bold', 'Lato', sans-serif;font-weight:700;font-size:106.667px;fill:#dfd151;">within this la<tspan x="17184.7px 17239.9px " y="12951.6px 12951.6px ">ye</tspan>r ) returns domain model</text><g transform="matrix(106.667,0,0,106.667,17961.5,13079.6)"></g><g transform="matrix(106.667,0,0,106.667,17997.6,13079.6)"></g><text x="16578.5px" y="13079.6px" style="font-family:'Lato-Bold', 'Lato', sans-serif;font-weight:700;font-size:106.667px;fill:#dfd151;">through mapper<tspan x="17341.4px " y="13079.6px ">.</tspan> Interface deﬁnes all possible</text><g transform="matrix(106.667,0,0,106.667,17747.2,13207.6)"></g><g transform="matrix(106.667,0,0,106.667,17783.3,13207.6)"></g><g transform="matrix(106.667,0,0,106.667,18460.5,13207.6)"></g><text x="16578.5px" y="13207.6px" style="font-family:'Lato-Bold', 'Lato', sans-serif;font-weight:700;font-size:106.667px;fill:#dfd151;">methods related to speciﬁc data source.</text></g></g><g><rect x="34130.4" y="34945.4" width="7837.12" height="2993.5" style="fill:#faf6d4;"/><g transform="matrix(3.125,0,0,3.125,-17213.8,-4166.91)"><text x="16578.5px" y="12823.6px" style="font-family:'Lato-Bold', 'Lato', sans-serif;font-weight:700;font-size:106.667px;fill:#dfd151;">Scenario, Use Case, Inter<tspan x="17749.7px " y="12823.6px ">a</tspan>ctor contains</text><g transform="matrix(106.667,0,0,106.667,17983.3,12951.6)"></g><g transform="matrix(106.667,0,0,106.667,18019.5,12951.6)"></g><text x="16578.5px" y="12951.6px" style="font-family:'Lato-Bold', 'Lato', sans-serif;font-weight:700;font-size:106.667px;fill:#dfd151;">business logic related to speciﬁc user beha<tspan x="18579.7px " y="12951.6px ">v</tspan>ior<tspan x="18762.5px " y="12951.6px ">.</tspan></text><text x="16578.5px" y="13079.6px" style="font-family:'Lato-Bold', 'Lato', sans-serif;font-weight:700;font-size:106.667px;fill:#dfd151;">Around those patterns we build whole logic in</text><g transform="matrix(106.667,0,0,106.667,17021.4,13207.6)"></g><text x="16578.5px" y="13207.6px" style="font-family:'Lato-Bold', 'Lato', sans-serif;font-weight:700;font-size:106.667px;fill:#dfd151;">a project.</text></g></g><g><rect x="9931.84" y="13430" width="7837.12" height="2993.5" style="fill:#faf6d4;"/><g transform="matrix(3.125,0,0,3.125,-41412.3,-25854.7)"><g transform="matrix(106.667,0,0,106.667,17447.8,12823.6)"></g><g transform="matrix(106.667,0,0,106.667,17483.9,12823.6)"></g><text x="16578.5px" y="12823.6px" style="font-family:'Lato-Bold', 'Lato', sans-serif;font-weight:700;font-size:106.667px;fill:#dfd151;">Domain la<tspan x="17057.5px 17112.7px " y="12823.6px 12823.6px ">ye</tspan>r is deﬁned b<tspan x="17769.9px " y="12823.6px ">y</tspan> few design patterns</text><text x="16578.5px" y="12951.6px" style="font-family:'Lato-Bold', 'Lato', sans-serif;font-weight:700;font-size:106.667px;fill:#dfd151;">Scenario, Use Case, Inter<tspan x="17749.7px " y="12951.6px ">a</tspan>ctor and Repository<tspan x="18738.9px " y="12951.6px ">.</tspan></text><g transform="matrix(106.667,0,0,106.667,17222.3,13079.6)"></g><g transform="matrix(106.667,0,0,106.667,17258.5,13079.6)"></g><g transform="matrix(106.667,0,0,106.667,18417.7,13079.6)"></g><g transform="matrix(106.667,0,0,106.667,18453.8,13079.6)"></g><text x="16578.5px" y="13079.6px" style="font-family:'Lato-Bold', 'Lato', sans-serif;font-weight:700;font-size:106.667px;fill:#dfd151;">Here y<tspan x="16892.5px " y="13079.6px ">o</tspan>u can ﬁnd business logic and deﬁnition</text><text x="16578.5px" y="13207.6px" style="font-family:'Lato-Bold', 'Lato', sans-serif;font-weight:700;font-size:106.667px;fill:#dfd151;">of abstr<tspan x="16943.7px " y="13207.6px ">a</tspan>ction when it comes to repository (</text><g transform="matrix(106.667,0,0,106.667,17860,13335.6)"></g><text x="16578.5px" y="13335.6px" style="font-family:'Lato-Bold', 'Lato', sans-serif;font-weight:700;font-size:106.667px;fill:#dfd151;">not implementation itself ).</text></g></g></g></g></svg>